<svg xmlns="http://www.w3.org/2000/svg" viewBox="0 0 500 500"><g id="freepik--background-complete--inject-159"><rect y="382.4" width="500" height="0.25" style="fill:#ebebeb"></rect><rect x="416.78" y="398.49" width="33.12" height="0.25" style="fill:#ebebeb"></rect><rect x="322.53" y="401.21" width="8.69" height="0.25" style="fill:#ebebeb"></rect><rect x="396.59" y="389.21" width="19.19" height="0.25" style="fill:#ebebeb"></rect><rect x="52.46" y="390.89" width="43.19" height="0.25" style="fill:#ebebeb"></rect><rect x="104.56" y="390.89" width="6.33" height="0.25" style="fill:#ebebeb"></rect><rect x="131.47" y="395.11" width="93.68" height="0.25" style="fill:#ebebeb"></rect><path d="M237,337.8H43.91a5.71,5.71,0,0,1-5.7-5.71V60.66A5.71,5.71,0,0,1,43.91,55H237a5.71,5.71,0,0,1,5.71,5.71V332.09A5.71,5.71,0,0,1,237,337.8ZM43.91,55.2a5.46,5.46,0,0,0-5.45,5.46V332.09a5.46,5.46,0,0,0,5.45,5.46H237a5.47,5.47,0,0,0,5.46-5.46V60.66A5.47,5.47,0,0,0,237,55.2Z" style="fill:#ebebeb"></path><path d="M453.31,337.8H260.21a5.72,5.72,0,0,1-5.71-5.71V60.66A5.72,5.72,0,0,1,260.21,55h193.1A5.71,5.71,0,0,1,459,60.66V332.09A5.71,5.71,0,0,1,453.31,337.8ZM260.21,55.2a5.47,5.47,0,0,0-5.46,5.46V332.09a5.47,5.47,0,0,0,5.46,5.46h193.1a5.47,5.47,0,0,0,5.46-5.46V60.66a5.47,5.47,0,0,0-5.46-5.46Z" style="fill:#ebebeb"></path><path d="M128.38,356.47a4.76,4.76,0,0,1,6.13-4.57,10.07,10.07,0,0,1,10-11.55,10.46,10.46,0,0,1,1.86.17A8.82,8.82,0,0,1,162.72,345h.14a8.13,8.13,0,0,1,0,16.26H133A4.77,4.77,0,0,1,128.38,356.47Z" style="fill:#fafafa"></path><path d="M298.53,168a6,6,0,0,1,6-6,6.18,6.18,0,0,1,1.73.25,12.35,12.35,0,0,1-.14-1.84,12.69,12.69,0,0,1,15-12.48,11.1,11.1,0,0,1,20.59,5.61h.19a10.24,10.24,0,0,1,0,20.47H304.36A6,6,0,0,1,298.53,168Z" style="fill:#fafafa"></path><path d="M83.46,263a8.47,8.47,0,0,1,10.91-8.11,18.64,18.64,0,0,1-.19-2.61,17.93,17.93,0,0,1,21.25-17.63,15.69,15.69,0,0,1,29.09,7.93l.26,0a14.46,14.46,0,0,1,0,28.92H91.7A8.48,8.48,0,0,1,83.46,263Z" style="fill:#fafafa"></path><path d="M359.53,251.09c0-3.57-.12-7.11-.44-10.59a107.75,107.75,0,0,0-106.55-97.92c-.65,0-1.31,0-2,0a107.36,107.36,0,0,0-38.39,7.5h0a107.78,107.78,0,1,0,147.35,101Z" style="fill:#e0e0e0"></path><path d="M284.06,328.82c2,.2,2.94,2.69,3.35,4.71.61,3.05,1.23,6.09,1.84,9.14-3.71,1.73-3.4,6.26-1.67,9.32a107.79,107.79,0,0,0,71.95-100.9c0-3.57-.12-7.11-.44-10.59a2.34,2.34,0,0,0-.27-.15c-2.94-1.39-5.26,1.12-7.47,2.54-.5.32-7,3.45-7,2.58a28.52,28.52,0,0,1-.45,8.45.91.91,0,0,1-.28.57c-.42.28-.9-.3-1.05-.78-.39-1.25-.56-2.56-1-3.77a4.4,4.4,0,0,0-2.56-2.78c-1.25-.39-2.61.07-3.91-.11a5.38,5.38,0,0,1-3.7-2.78,17.7,17.7,0,0,1-1.52-4.35c-1.52,3.38-5.38,1.3-7.65,4-.73.88-1.6,2.14-2.66,1.72s-1.12-2.13-2.2-2.26c-.75-.1-1.31.73-1.42,1.48a8.37,8.37,0,0,1-.3,2.25,2,2,0,0,1-2.71.83c-.82-.5-1.14-1.5-1.65-2.31s-1.62-1.5-2.39-.93a1.63,1.63,0,0,0-.42.52c-.75,1.44.1,3.19,1.1,4.47s2.24,2.55,2.35,4.17a1.35,1.35,0,0,1-1.87-.39,2.23,2.23,0,0,0-.39-.63c-.41-.35-1,0-1.48.27a9.72,9.72,0,0,1-7.32,1.3l-.56-9.85c-.74,0-1.19-.07-1.47-.84a100.55,100.55,0,0,1-7.44,7.15,2,2,0,0,0-.78.94,7,7,0,0,0,0,1.29c-.08,1.44-2,1.81-3.44,1.78-.42.23-.18.91.24,1.14s.94.26,1.31.55a1.83,1.83,0,0,1,.37,2,4.74,4.74,0,0,1-5.94,3,1.48,1.48,0,0,1-.72-.49c-.37-.54,0-1.25,0-1.89.27-2.55-2.48-2-3.74-1.25-1.72.95-2.68,3.48-3,5.29-.38,2.12-2,16.15-6.66,14.21a2,2,0,0,1-1-1c-.68-1.28-.63-2.81-1.13-4.17s-2-2.59-3.29-1.89c-.51.28-.83.81-1.32,1.13-1.34.89-3.26-.18-4.72.49a12.72,12.72,0,0,0-1.76,1.36c-.61.42-1.57.55-2,0s.08-1.7-.31-2.43a1.31,1.31,0,0,0-2.15.15,2.24,2.24,0,0,0,.37,2.43,3.16,3.16,0,0,1,.74,1.13c.17.8-.59,1.47-1.26,1.93L248,278.72a1.91,1.91,0,0,0,1.51,1.46c.71.2,1.48.19,2.19.43,3.42,1.14,3.41,6.21,7.89,5.22a2.17,2.17,0,0,1,2.51-2.4c1.64.41,2.7,2.75,4.33,2.29.57-.16,1-.65,1.58-.79,1.58-.38,2.35,2.06,2.8,3.09,1.47,3.44-.82,3.85-.73,6.92,0,1.4,1.08,2.59,1.34,4s-.21,2.58,0,3.86c.48,3.52,5.13,1.39,7.2,1-1.12,2,.54,4.42,2.36,5.8,2.8,2.13,2.32,1.94,2.67,5a2.22,2.22,0,0,0,1.32,1.9c1.34.48,2.64-.85,4.05-1,.68-.07,1.37.14,2,0,1.76-.3,2.37-2.46,3.52-3.82a4.88,4.88,0,0,1,4.18-1.69,10.39,10.39,0,0,1,0,2.73l-3,1.83a6.66,6.66,0,0,0-2.32,2,5.39,5.39,0,0,1-.93,1.44c-.87.74-2.17.29-3.31.22-2.76-.18-7.26,1.54-9.93,2.41-2.83.94-3.83,2.94-6.44,3.84a.84.84,0,0,0-.3,1.23,1.88,1.88,0,0,0,1.26.68,5.1,5.1,0,0,0,3.29-.55c-1.31.72,2.5,3.86,3.19,4,1.13.26,2.64-.59,3.79-.65,2.85-.15,4.5.42,2.63,3.52-.71,1.18-1.55,2.69-.76,3.83a1.78,1.78,0,0,1,2.08.84,3.78,3.78,0,0,1,.36,2.37,2.34,2.34,0,0,1-.59,1.5c-.22.21-.5.34-.66.59-.53.8.56,1.67,1.45,2" style="fill:#ebebeb;isolation:isolate"></path><path d="M189.77,205.39c.88-.67,2.14-.13,3.07.48s2,1.33,3,.95L196,203a.7.7,0,0,1,.89-.84l2.48.12c.68.76-1.24,1.68-1,2.67.12.43.61.62,1,.84,3.4,1.82,1.24,5.62-.3,7.68-1.79,2.4-1.67,5.66-1.48,8.64a4.13,4.13,0,0,0,1,2.95c.8.68,2,.64,3,.94,1.76.51,3,2.07,4.65,2.88,5.76,2.83,9.56-3.33,7.68-8.19-1-2.52-1.38-2-.83-4.73.23-1.12-.14-2.45,1-3.21a2.06,2.06,0,0,1,3.12,1.56c.1,1.48.44,2.89-.17,4.28,1.7-.64,3.73-.23,5.59-.23a2.45,2.45,0,0,0,3.46,2.35c0-.84.17-2,1-2a1.43,1.43,0,0,1,.68.24c.89.52,1.67,1.22,2.6,1.65,1.43.67,5.54.36,6.18,2.29.12.33.12.71.25,1a1.59,1.59,0,0,0,1.91.82,2.13,2.13,0,0,0,1.39-1.67c.1-.5,0-1,.17-1.51.7-2.61,3.38-.57,4.57-1.27.58-.34,2.94-4.78,3-5.32a6,6,0,0,0,4.73,2.52c2.07-.1,3-1.75,3.42-3.76s.52-4.66,1-6.2c.25-.82.46-1.83-.13-2.46-.73-.8-2.28-.49-2.82-1.44a3.19,3.19,0,0,1-.24-1,3.79,3.79,0,0,0-4.51-2.91c-.63-.42-.64-1.33-.68-2.09s-.36-1.7-1.12-1.75-1.27,1.08-1.25,2a9.39,9.39,0,0,0,.41,2.64,3.16,3.16,0,0,1,.22,1.95,2.5,2.5,0,0,1-1,1.1,5.84,5.84,0,0,1-3.32,1.34,2.48,2.48,0,0,1-2.54-2.1,4.58,4.58,0,0,0,0-1c-.19-.81-1.23-1.09-2.06-1a7.55,7.55,0,0,1-2.48.29c-.82-.16-1.5-1.23-.92-1.83-1.1-.39-2.68-.58-3.11.5a3.18,3.18,0,0,0-.11,1.11c0,2.32-2.92,5.66-4.88,3.24-1.29-1.59.93-4.49-1.38-5.8-1.11-.62-2.61-.07-3.71-.72-.34-.4.25-1,.76-1.09a4.93,4.93,0,0,1,4.64,1.26c.66-1.34-.36-3.32.79-4.29s3.3.17,4.15-1.05a2.37,2.37,0,0,0,.31-1.21c.15-2.09-.49-5.93,2.46-6.28a4.17,4.17,0,0,0,1.06-.14c1-.4,1-1.82.82-2.9-1.1-.48-2.29.34-3.36.91s-2.76.66-3.12-.49c-.26-.83.38-1.86-.16-2.53-.26-.31-.7-.43-.92-.77-.52-.82.74-1.64,1-2.58.31-1.3-1.43-2.13-2.76-2s-2.83.55-3.9-.24a12.69,12.69,0,0,1-.91-.89,5.68,5.68,0,0,0-3.7-1c-2.08-.06,2.65-8.61,2.7-9.13.36-4-3.71-6.08-6-8.6a23.84,23.84,0,0,1-3-4.48,108.69,108.69,0,0,0-66.83,83.29,34.88,34.88,0,0,0-.59,5.06c2.46-.7,6.29-2.54,8.78-1,3.17,1.9.88,6.61,4.53,8,.91,0,.65-1.51,1.17-2.24a3.2,3.2,0,0,1,1.28-.78c.45-.23.88-.71.7-1.18.79-.62,1.88.17,2.61.86a6.58,6.58,0,0,0,3,1.79c2.42.51,4.64-1.22,6.82-2.38a31.86,31.86,0,0,1,5.69-2.19c-.94.06-1.41-1.24-1-2.11a9.67,9.67,0,0,1,1.78-2.18c1-1.24.24-2.68,1.09-4,1.06-1.64,3.09-2.79,3.26-4.72.22-2.35-2.38-3.85-4.57-4.72,1.16-2.65,4.3-4.48,4.3-7.37a7.49,7.49,0,0,0-1-3.16l-3-6.14a4,4,0,0,1-.58-2.69c.28-1.08,1.38-1.7,2.36-2.19l3.22-1.61a2.43,2.43,0,0,1,1.41-.37,2.14,2.14,0,0,1,1.23.93,11.46,11.46,0,0,1,2.29,8.07,46.37,46.37,0,0,0,11.09-3.08c-.39,2.19.51,4.62-.17,6.68" style="fill:#ebebeb;isolation:isolate"></path><path d="M278.86,223.37a4.27,4.27,0,0,1,1.91,3.12,20.41,20.41,0,0,1-.26,2.31,2.1,2.1,0,0,0,.85,2c.87.48,1.92-.11,2.73-.69a3.24,3.24,0,0,0,1.52-1.79,15,15,0,0,0,0-1.77c.1-1.16,1.13-2,1.95-2.81s1.52-2.13.87-3.1c-.43-.64-1.29-.86-1.75-1.48-1.11-1.5.91-3.61,0-5-1.09-1.62-3.81-.79-5.31,0a14.38,14.38,0,0,0-3.71,3.67C274.53,221.6,275.61,221,278.86,223.37Z" style="fill:#ebebeb;isolation:isolate"></path><path d="M319.35,166.42c-18-15.63-43.19-23.68-66.81-23.84-.65,0-1.31,0-2,0-3.12,3.51-4.77,10.17,1.41,11.41,0,.67-.39.84-.73,1.38-.53.85.36,1.91,1.28,2.29,3,1.26,6.72,1.18,6.23,5.29-.57,4.9-2.88,1.78-5.43,3.56a5.37,5.37,0,0,0-.88,1c-1.08,1.24-3,1.23-4.62,1.12a1.89,1.89,0,0,0-1.25-2.46,2.7,2.7,0,0,1-1.13-.29c-.69-.49-.17-1.67.61-2s1.69-.19,2.5-.43,1.56-1.2,1.07-1.89a1.56,1.56,0,0,0-.91-.5,4.64,4.64,0,0,0-4.13,1.15,1.85,1.85,0,0,0-3.59.35c-.17,1.19.65,2.82-.42,3.38a2.67,2.67,0,0,1,2.66.84c2.5,2.95,1,10.11,7.6,8.91A26.47,26.47,0,0,1,254,175a2.44,2.44,0,0,1,2.58,1.48c1.39-2,4.94-1.58,6.12-3.71a2.59,2.59,0,0,0-.58-3.13,1.27,1.27,0,0,1-.38-.42c-.14-.36.18-.73.23-1.12.1-.67-.63-1.18-.72-1.85-.12-.94,1-1.53,1.87-1.77s2-.57,2.22-1.5c.06-.31,0-.64.05-1a1.62,1.62,0,0,1,1.42-1.14,4.66,4.66,0,0,1,1.91.29c.42.36.23,1.07-.14,1.48s-.91.67-1.22,1.14c-.17.25.68,5.84.26,5.69,2,.69,6.26.79,5.4,3.78-.3,1-.91,2.15-.52,3.17-1.41-.39-2.82-.77-4.23-1.13-.34.45.22,1.07.77,1.21s1.21.12,1.59.55a1.9,1.9,0,0,1,.32,1.13l.21,3.89c.08,1.41.27,3,1.44,3.82s3.2.18,4.31-1a1.51,1.51,0,0,1,.95-.61,1.47,1.47,0,0,1,.89.5,5.85,5.85,0,0,0,5.07,1.54,3.81,3.81,0,0,0,3-4c-.12-.7-.42-1.55.12-2,.32-.27.86-.3,1-.69s-.45-.84-.87-1.16a2.1,2.1,0,0,1-.61-2.53c.22-.43,4.11-2,4.72-1.74,1.38.68,1.14,4.4,1.31,5.83a2.12,2.12,0,0,0,.62,1.51c.7.52,1.7,0,2.25-.71s.94-1.54,1.72-1.92a3.75,3.75,0,0,1,1.49-.26,3.84,3.84,0,0,1,2.9.72c.33.34.53.8.87,1.14a3,3,0,0,0,3.09.37c1-.37,2-1,3-1.29,2.25-.6,4.82.47,6.89-.6,1-.52,1.72-1.95.93-2.75s-2.17-.57-2.35-1.53,2.07-2.23,2.47-3c.31-.64-.38-1.82.35-3C317.28,167.74,318.71,167.45,319.35,166.42Z" style="fill:#ebebeb;isolation:isolate"></path><path d="M187,320.72c-1.28-.86-2.72-1.35-3.17-3.11-.6-2.4.69-3.42,3.08-2.53a1,1,0,0,0,.65.09c.69-.22.21-1.24-.24-1.8a4.86,4.86,0,0,1-.58-4.65c.13-.37-6.59-.52-7.33-.12-2.59,1.42-.9,6.94-3.91,6-.2-2.1-.09-4.27-.09-6.4l-3.07-.11c.76,0,.3-3.89,0-4.32-1-1.66-4.13-1-3.85-4.1.35-4,8.05-4.78,7.13-.22a20.14,20.14,0,0,0,7.6,1l.15,2.43a2.22,2.22,0,0,0,2,.15,6.1,6.1,0,0,0-.44-6.71c.88-1.35-.2-3.08-1.22-4.32,2.81-2.07,2-7.3-1.3-8.42s-7.13,2.57-6.13,5.92a7.73,7.73,0,0,0-4.36,2,10.2,10.2,0,0,0-7.47-9.2c-2.06-.53-4.5-.5-5.91-2.1-.63-.71-.94-1.65-1.52-2.39-1.32-1.68-3.67-2-5.8-2.14-1.42-.07-2.85-.09-4.27-.07a107.9,107.9,0,0,0,40.22,61,4.2,4.2,0,0,0,2.18-.33c1.21-.64,1.59-2.17,1.83-3.52,1-5.26.43-8.53-3.85-11.8Z" style="fill:#ebebeb;isolation:isolate"></path><path d="M112.81,182.45a8.46,8.46,0,0,1,10.9-8.11,18.64,18.64,0,0,1-.19-2.61,17.94,17.94,0,0,1,21.26-17.63A15.68,15.68,0,0,1,173.86,162l.26,0a14.46,14.46,0,1,1,0,28.92H121v0A8.46,8.46,0,0,1,112.81,182.45Z" style="fill:#fafafa"></path><path d="M351.07,242.56a8.46,8.46,0,0,1,10.9-8.12,18.5,18.5,0,0,1-.19-2.6A18,18,0,0,1,383,214.2a15.68,15.68,0,0,1,29.08,7.93h.26a14.46,14.46,0,1,1,0,28.91H359.3A8.46,8.46,0,0,1,351.07,242.56Z" style="fill:#fafafa"></path><path d="M246,312.13a4.76,4.76,0,0,1,6.13-4.57,10.08,10.08,0,0,1,10-11.56,10.47,10.47,0,0,1,1.86.18,8.82,8.82,0,0,1,16.36,4.46h.14a8.13,8.13,0,1,1,0,16.26H250.67A4.77,4.77,0,0,1,246,312.13Z" style="fill:#fafafa"></path><path d="M298,368.94a4.77,4.77,0,0,1,6.14-4.56,10.08,10.08,0,0,1,10-11.56A9.44,9.44,0,0,1,316,353a8.82,8.82,0,0,1,16.36,4.46h.15a8.13,8.13,0,1,1,0,16.26H302.68A4.77,4.77,0,0,1,298,368.94Z" style="fill:#fafafa"></path><path d="M146,384.7a2.51,2.51,0,0,1-1.65-.62l-35.77-31.55L72.8,384.08a2.5,2.5,0,0,1-4.13-2.2L89.74,221s0,0,0,0l15.49-118.33a2.52,2.52,0,0,1,2.47-2.18h0a2.5,2.5,0,0,1,2.48,2.16l16.12,117.66a2.55,2.55,0,0,1,.2,1.41l22,160.22a2.5,2.5,0,0,1-1.3,2.55A2.45,2.45,0,0,1,146,384.7ZM80.77,328l-6.28,47.91,30.3-26.72Zm31.58,21.19,30.25,26.68-6.52-47.61ZM83.13,323.42l25.44,22.44L134,323.42l-25.45-31.93Zm5.67-56.74-6.52,49.78,23.1-29Zm23,20.8,22.61,28.37-6.64-48.42Zm-19-23.91,15.85,19.9,15.84-19.88-16-19.17ZM94,227.23l-4.19,32,15.32-18.76Zm17.62,13.25,14.91,17.81-4.23-30.89ZM95.47,221.24l12.84,15.34,12.5-15.31-12.73-15.54Zm2.87-27.41-2.49,19,9-11.07Zm13,7.94,8.94,10.9-2.57-18.74Zm-11.14-13.6,7.91,9.65,7.84-9.64-7.92-10Zm1.3-18.21-1.32,10.14,4.65-5.94Zm9.7,4.18,4.59,5.8L114.39,170Zm-8.79-11.09,5.6,7.06,5.48-7-5.67-41.38Z" style="fill:#e0e0e0"></path><path d="M128.38,165.48H88.27a2.5,2.5,0,0,1,0-5h40.11a2.5,2.5,0,0,1,0,5Z" style="fill:#e0e0e0"></path><path d="M76.6,146.68c3.58-12.43,10.59-21.32,15.65-19.86,7.6,2.19,10.84,14,7.25,26.47S86.86,174,79.27,171.81C74.21,170.35,73,159.1,76.6,146.68Z" style="fill:#e0e0e0"></path><path d="M76.6,146.68c3.58-12.43,10.59-21.32,15.65-19.86S98.5,139.54,94.91,152s-10.58,21.31-15.64,19.85S73,159.1,76.6,146.68Z" style="fill:#ebebeb"></path><path d="M87.21,152.89,66,143.11l23.15,3.19S89.56,151.09,87.21,152.89Z" style="fill:#e0e0e0"></path><path d="M104,108.6a1,1,0,0,1-1-1V83.52a1,1,0,0,1,2,0V107.6A1,1,0,0,1,104,108.6Z" style="fill:#e0e0e0"></path><path d="M106.84,114.36a1,1,0,0,1-1-1V89.27a1,1,0,0,1,2,0v24.09A1,1,0,0,1,106.84,114.36Z" style="fill:#e0e0e0"></path><rect x="99.62" y="101.32" width="14.43" height="15.38" style="fill:#e6e6e6"></rect><path d="M147.32,116.51c4.84,18.5,2.66,35.1-4.87,37.07-11.31,3-24.39-9.65-29.23-28.14s.39-35.88,11.7-38.84C132.45,84.63,142.48,98,147.32,116.51Z" style="fill:#e0e0e0"></path><path d="M147.32,116.51c4.84,18.5,2.66,35.1-4.87,37.07s-17.55-11.44-22.4-29.93-2.66-35.08,4.87-37.05S142.48,98,147.32,116.51Z" style="fill:#ebebeb"></path><path d="M129.14,116.65,163.53,113l-31.82,13.46S127.52,120.71,129.14,116.65Z" style="fill:#e0e0e0"></path></g><g id="freepik--Shadow--inject-159"><ellipse id="freepik--path--inject-159" cx="250" cy="416.24" rx="193.89" ry="11.32" style="fill:#f5f5f5"></ellipse></g><g id="freepik--Satellite--inject-159"><polygon points="361.89 136.82 365.51 126.13 384.86 148.88 379.2 163.21 361.89 136.82" style="fill:#407BFF"></polygon><polygon points="384.86 148.88 382.16 155.7 382.04 156.03 379.2 163.21 374.45 155.96 374.25 155.66 370.2 149.5 370 149.18 365.71 142.65 365.51 142.34 361.89 136.82 363.33 132.57 363.45 132.22 365.51 126.13 369.88 131.27 370.1 131.53 374.76 137 374.98 137.27 379.95 143.1 380.17 143.36 384.86 148.88" style="fill:#fff;opacity:0.7000000000000001"></polygon><g style="opacity:0.2;isolation:isolate"><path d="M380.17,143.36l-.22-.25-2.84,6.25-4.6-5.77,2.47-6.32-.22-.27-2.47,6.32-4.58-5.75,2.39-6-.22-.26-2.39,6-4-5.08-.12.35,4,5.06-1.85,4.71.2.31,1.87-4.75,4.58,5.75L370,149.18l.21.31,2.17-5.57,4.59,5.75-2.72,6,.2.3,2.73-6L382,156l.12-.33-4.84-6.07Z"></path></g><path d="M402.43,151.91a1.43,1.43,0,0,0-.7.4l-5.62,3.21,2,9.28,6.44.58a1.42,1.42,0,0,0,.81.07c1.61-.35,2.25-3.66,1.44-7.4S404,151.56,402.43,151.91Z" style="fill:#407BFF"></path><path d="M402.43,151.91a1.43,1.43,0,0,0-.7.4l-5.62,3.21,2,9.28,6.44.58a1.42,1.42,0,0,0,.81.07c1.61-.35,2.25-3.66,1.44-7.4S404,151.56,402.43,151.91Z" style="opacity:0.2;isolation:isolate"></path><path d="M395.16,150.72l-16.83,3.67c-2.25.49-3.16,5.1-2,10.31s3.88,9,6.13,8.53l16.83-3.66c2.25-.5,3.15-5.11,2-10.32S397.41,150.23,395.16,150.72Z" style="fill:#407BFF"></path><path d="M384.46,162.92c1.13,5.21.23,9.82-2,10.31s-5-3.33-6.13-8.53-.23-9.82,2-10.31S383.32,157.72,384.46,162.92Z" style="fill:#fff;opacity:0.2"></path><path d="M378.47,160.76l-5.92,1.29c-.79.17-1.11,1.79-.71,3.62s1.36,3.18,2.16,3l5.91-1.29c.79-.18,1.11-1.8.71-3.63S379.26,160.58,378.47,160.76Z" style="fill:#263238"></path><path d="M374.71,165.05c.39,1.83.08,3.45-.71,3.63s-1.76-1.18-2.16-3-.08-3.45.71-3.62S374.31,163.22,374.71,165.05Z" style="fill:#fff;opacity:0.2"></path><path d="M378.85,164.14c1.81,8.29-1.46,16.06-7.32,17.5l-.21.05-.22.05c-4.49.75-9.52-5.18-11.32-13.44s.31-15.74,4.7-16.92l.22,0,.21-.05C370.84,150.16,377.05,155.86,378.85,164.14Z" style="fill:#407BFF"></path><path d="M378.85,164.14c1.81,8.29-1.46,16.06-7.32,17.5l-.21.05-.22.05c-4.49.75-9.52-5.18-11.32-13.44s.31-15.74,4.7-16.92l.22,0,.21-.05C370.84,150.16,377.05,155.86,378.85,164.14Z" style="fill:#fff;opacity:0.5"></path><path d="M376.23,164.71c1.8,8.26-.3,15.75-4.7,16.93l-.21.05-.22.05c-4.49.75-9.52-5.18-11.32-13.44s.31-15.74,4.7-16.92l.22,0,.21-.05C369.4,150.52,374.43,156.46,376.23,164.71Z" style="fill:#fff;opacity:0.2"></path><path d="M373.54,165.3c.33,1.49,0,2.84-.83,3s-1.67-.9-2-2.39.05-2.84.83-3S373.21,163.81,373.54,165.3Z" style="opacity:0.2;isolation:isolate"></path><path d="M355.73,169.69a.51.51,0,0,1-.49-.4.5.5,0,0,1,.31-.57l15.8-6.27a.49.49,0,0,1,.65.28.5.5,0,0,1-.28.65l-13,5.15,13.95-.72a.5.5,0,0,1,.52.48.49.49,0,0,1-.47.52l-17,.88Z" style="fill:#407BFF"></path><path d="M355.73,169.69a.5.5,0,0,1-.1-1l17.8-3.89a.51.51,0,0,1,.6.39.49.49,0,0,1-.38.59l-17.81,3.88Z" style="fill:#407BFF"></path><path d="M355.73,169.19a.42.42,0,0,1-.32.5.43.43,0,0,1-.51-.32.43.43,0,0,1,.33-.51A.42.42,0,0,1,355.73,169.19Z" style="fill:#407BFF"></path><polygon points="391.22 178.36 396.34 163.25 423.69 195.4 415.69 215.66 391.22 178.36" style="fill:#407BFF"></polygon><polygon points="423.69 195.4 419.88 205.04 419.7 205.51 415.69 215.66 408.98 205.42 408.7 204.99 402.98 196.27 402.69 195.83 396.63 186.59 396.34 186.15 391.22 178.36 393.26 172.34 393.42 171.86 396.34 163.25 402.51 170.51 402.83 170.87 409.41 178.62 409.73 178.99 416.75 187.24 417.06 187.61 423.69 195.4" style="fill:#fff;opacity:0.7000000000000001"></polygon><g style="opacity:0.2;isolation:isolate"><path d="M417.06,187.61l-.31-.37-4,8.84-6.51-8.15,3.5-8.94-.32-.37-3.49,8.92-6.47-8.12,3.38-8.55-.32-.36L399.14,179l-5.72-7.18-.16.48,5.7,7.16-2.62,6.65.29.44,2.64-6.7,6.47,8.12-3.06,7.82.3.44,3.07-7.87,6.49,8.12L408.7,205l.28.43,3.86-8.52,6.86,8.61.18-.47L413,196.46Z"></path></g></g><g id="freepik--Plant--inject-159"><path d="M402.59,346.11c.21,1.47-3.78,2.44-7,3,.26,2.67,2,5.36,4.49,7.88,3.09-1.74,7.49-4,8.3-3.47s-3.62,3.53-6.44,5.24a58,58,0,0,0,6.39,4.84c1.38-1.29,3-2.42,4-1.81s.73,2.64.24,4.42c3.36,2,5.87,3.15,5.87,3.15a67.5,67.5,0,0,0,2.24-9.53c-.17-.34-.33-.67-.49-1-.54-1.25,0-1.79.88-2a33.62,33.62,0,0,0,.06-6.87c-3.8-.79-8.42-2.27-6.69-4.55,1-1.37,2.95-1.53,4.94-1.18a8.61,8.61,0,0,0-.94-1.28c-6.91-7.62-11.74,0-11.74,0-4-3.35-9.66-2.44-10.88,2.79C398,345.15,402.33,344.29,402.59,346.11Z" style="fill:#407BFF"></path><path d="M402.59,346.11c.21,1.47-3.78,2.44-7,3,.26,2.67,2,5.36,4.49,7.88,3.09-1.74,7.49-4,8.3-3.47s-3.62,3.53-6.44,5.24a58,58,0,0,0,6.39,4.84c1.38-1.29,3-2.42,4-1.81s.73,2.64.24,4.42c3.36,2,5.87,3.15,5.87,3.15a67.5,67.5,0,0,0,2.24-9.53c-.17-.34-.33-.67-.49-1-.54-1.25,0-1.79.88-2a33.62,33.62,0,0,0,.06-6.87c-3.8-.79-8.42-2.27-6.69-4.55,1-1.37,2.95-1.53,4.94-1.18a8.61,8.61,0,0,0-.94-1.28c-6.91-7.62-11.74,0-11.74,0-4-3.35-9.66-2.44-10.88,2.79C398,345.15,402.33,344.29,402.59,346.11Z" style="fill:#fff;opacity:0.30000000000000004;isolation:isolate"></path><path d="M411.21,402.09l-1-.08c0-.51,4.09-51.52-7.36-56.33a3.88,3.88,0,0,0-3.47.08c-4.13,2.16-6.12,11.09-6.14,11.18l-1-.22c.08-.38,2.1-9.47,6.65-11.84a4.89,4.89,0,0,1,4.32-.12C415.36,349.84,411.39,400,411.21,402.09Z" style="fill:#407BFF"></path><path d="M412.66,401c-.21-2.3-4.88-56.27,3.86-62,2.09-1.37,4-1.67,5.55-.86,4.13,2.08,4.67,10.91,4.69,11.28l-1,.06c0-.09-.53-8.63-4.14-10.45-1.25-.63-2.78-.36-4.55.81-8.25,5.4-3.47,60.51-3.42,61.07Z" style="fill:#407BFF"></path><path d="M414,405.35c-.07-1.76-1.51-43.07,6.45-46.69a5.59,5.59,0,0,1,4.73,0c5.46,2.4,8.84,12.57,9,13l-.95.32c0-.11-3.38-10.19-8.43-12.41a4.54,4.54,0,0,0-3.91,0c-6.11,2.78-6.31,34-5.87,45.74Z" style="fill:#407BFF"></path><path d="M411.94,403.46l-1-.11c1.4-12.3,4.08-45.06-.3-49a1.7,1.7,0,0,0-1.79-.55c-2.93,1.12-4.72,11.78-5.16,15.79l-1-.11c.17-1.54,1.76-15.07,5.79-16.62a2.67,2.67,0,0,1,2.82.74C417,358.68,412.15,401.64,411.94,403.46Z" style="fill:#407BFF"></path><polygon points="395.26 380.15 431.18 380.15 428.18 420.39 398.26 420.39 395.26 380.15" style="fill:#263238"></polygon><path d="M400.15,365.38c-.37,1-3.16.21-5.35-.57-.76,1.74-.59,4,.06,6.41,2.5,0,6,.07,6.31.7s-3.44.93-5.77,1a41.47,41.47,0,0,0,2.28,5.18c1.3-.32,2.69-.47,3.07.24s-.45,1.88-1.37,2.81c1.4,2.36,2.54,3.95,2.54,3.95a46.9,46.9,0,0,0,4.65-5.11c0-.26,0-.53.05-.8.1-1,.6-1.11,1.22-.91a23.23,23.23,0,0,0,2.38-4.21c-2.07-1.8-4.41-4.29-2.56-5.1,1.11-.49,2.34.07,3.45,1a5.11,5.11,0,0,0-.14-1.11c-1.65-7.07-7.24-4-7.24-4-1.33-3.45-5.12-4.82-7.66-2C397.66,363.22,400.61,364.17,400.15,365.38Z" style="fill:#407BFF"></path><path d="M400.15,365.38c-.37,1-3.16.21-5.35-.57-.76,1.74-.59,4,.06,6.41,2.5,0,6,.07,6.31.7s-3.44.93-5.77,1a41.47,41.47,0,0,0,2.28,5.18c1.3-.32,2.69-.47,3.07.24s-.45,1.88-1.37,2.81c1.4,2.36,2.54,3.95,2.54,3.95a46.9,46.9,0,0,0,4.65-5.11c0-.26,0-.53.05-.8.1-1,.6-1.11,1.22-.91a23.23,23.23,0,0,0,2.38-4.21c-2.07-1.8-4.41-4.29-2.56-5.1,1.11-.49,2.34.07,3.45,1a5.11,5.11,0,0,0-.14-1.11c-1.65-7.07-7.24-4-7.24-4-1.33-3.45-5.12-4.82-7.66-2C397.66,363.22,400.61,364.17,400.15,365.38Z" style="fill:#fff;opacity:0.30000000000000004;isolation:isolate"></path><path d="M426.83,370.16a14.06,14.06,0,0,0-3.29.69,7.93,7.93,0,0,1-.48-2.37c-.23-7.25,5-4.2,7.7-6.32a5.87,5.87,0,0,1,4.58-1.44,11,11,0,0,0-.62,1.24,1.14,1.14,0,0,0,.88,1.55,3.33,3.33,0,0,0,2-.24,4.8,4.8,0,0,0,.52-.36,9.71,9.71,0,0,1,1,2.42,13.52,13.52,0,0,1,.47,3.1,11,11,0,0,0-1.21.34,1.13,1.13,0,0,0-.45,1.72,5.11,5.11,0,0,0,1.49,1.05,17,17,0,0,1-.91,3.4l-.37.05a7.44,7.44,0,0,0-.78.2,2.23,2.23,0,0,0-.43.16,1.15,1.15,0,0,0-.68.87,1.12,1.12,0,0,0,.43,1,3.61,3.61,0,0,0,.53.33,7.89,7.89,0,0,1-2.87,2.9,30.08,30.08,0,0,1-3.05-1.62c.22-.29.44-.58.64-.88a1.69,1.69,0,0,0,.3-1.13,1.57,1.57,0,0,0-.58-1,1.61,1.61,0,0,0-1.14-.3,1.52,1.52,0,0,0-1,.58c-.24.36-.51.7-.77,1a19.11,19.11,0,0,1-3.68-3.57l.11,0a10.87,10.87,0,0,1,2-.34,1.54,1.54,0,0,0-.39-3.06Z" style="fill:#407BFF"></path><path d="M426.83,370.16a14.06,14.06,0,0,0-3.29.69,7.93,7.93,0,0,1-.48-2.37c-.23-7.25,5-4.2,7.7-6.32a5.87,5.87,0,0,1,4.58-1.44,11,11,0,0,0-.62,1.24,1.14,1.14,0,0,0,.88,1.55,3.33,3.33,0,0,0,2-.24,4.8,4.8,0,0,0,.52-.36,9.71,9.71,0,0,1,1,2.42,13.52,13.52,0,0,1,.47,3.1,11,11,0,0,0-1.21.34,1.13,1.13,0,0,0-.45,1.72,5.11,5.11,0,0,0,1.49,1.05,17,17,0,0,1-.91,3.4l-.37.05a7.44,7.44,0,0,0-.78.2,2.23,2.23,0,0,0-.43.16,1.15,1.15,0,0,0-.68.87,1.12,1.12,0,0,0,.43,1,3.61,3.61,0,0,0,.53.33,7.89,7.89,0,0,1-2.87,2.9,30.08,30.08,0,0,1-3.05-1.62c.22-.29.44-.58.64-.88a1.69,1.69,0,0,0,.3-1.13,1.57,1.57,0,0,0-.58-1,1.61,1.61,0,0,0-1.14-.3,1.52,1.52,0,0,0-1,.58c-.24.36-.51.7-.77,1a19.11,19.11,0,0,1-3.68-3.57l.11,0a10.87,10.87,0,0,1,2-.34,1.54,1.54,0,0,0-.39-3.06Z" style="fill:#fff;opacity:0.5;isolation:isolate"></path><path d="M428.9,345.18a9.89,9.89,0,0,1,2-1.08,5.31,5.31,0,0,0-.79-1.46c-3.06-3.91-4.45,0-6.82.06a4,4,0,0,0-3,1.26,6.74,6.74,0,0,1,.87.38.77.77,0,0,1,.22,1.2,2.28,2.28,0,0,1-1.17.76,2.18,2.18,0,0,1-.44,0,6.64,6.64,0,0,0,.54,1.71,9.55,9.55,0,0,0,1.12,1.83,6.86,6.86,0,0,1,.78-.35.78.78,0,0,1,1,.71,3.63,3.63,0,0,1-.33,1.21,12.29,12.29,0,0,0,2,1.38l.22-.13a4.59,4.59,0,0,1,.5-.24,1,1,0,0,1,.29-.11.81.81,0,0,1,.75.16.79.79,0,0,1,.23.74,2.83,2.83,0,0,1-.14.41,5.5,5.5,0,0,0,2.78.26,21.16,21.16,0,0,0,.9-2.18l-.72-.19a1.12,1.12,0,0,1-.66-.46,1,1,0,0,1-.14-.8,1,1,0,0,1,.46-.66,1.09,1.09,0,0,1,.79-.14c.29.08.57.15.86.21a13.07,13.07,0,0,0,.37-3.49l-.07,0A7.6,7.6,0,0,0,430,347a1.05,1.05,0,0,1-1.13-1.78Z" style="fill:#407BFF"></path><path d="M428.9,345.18a9.89,9.89,0,0,1,2-1.08,5.31,5.31,0,0,0-.79-1.46c-3.06-3.91-4.45,0-6.82.06a4,4,0,0,0-3,1.26,6.74,6.74,0,0,1,.87.38.77.77,0,0,1,.22,1.2,2.28,2.28,0,0,1-1.17.76,2.18,2.18,0,0,1-.44,0,6.64,6.64,0,0,0,.54,1.71,9.55,9.55,0,0,0,1.12,1.83,6.86,6.86,0,0,1,.78-.35.78.78,0,0,1,1,.71,3.63,3.63,0,0,1-.33,1.21,12.29,12.29,0,0,0,2,1.38l.22-.13a4.59,4.59,0,0,1,.5-.24,1,1,0,0,1,.29-.11.81.81,0,0,1,.75.16.79.79,0,0,1,.23.74,2.83,2.83,0,0,1-.14.41,5.5,5.5,0,0,0,2.78.26,21.16,21.16,0,0,0,.9-2.18l-.72-.19a1.12,1.12,0,0,1-.66-.46,1,1,0,0,1-.14-.8,1,1,0,0,1,.46-.66,1.09,1.09,0,0,1,.79-.14c.29.08.57.15.86.21a13.07,13.07,0,0,0,.37-3.49l-.07,0A7.6,7.6,0,0,0,430,347a1.05,1.05,0,0,1-1.13-1.78Z" style="fill:#fff;opacity:0.30000000000000004;isolation:isolate"></path><path d="M399.63,352.43c-.21,1.47,3.77,2.44,7,3-.27,2.67-2.05,5.37-4.5,7.89-3.08-1.74-7.49-4-8.3-3.48s3.62,3.53,6.44,5.25a57.88,57.88,0,0,1-6.38,4.84c-1.39-1.3-3-2.43-4-1.82s-.73,2.64-.24,4.42c-3.35,2-5.87,3.15-5.87,3.15a67.5,67.5,0,0,1-2.24-9.53c.17-.33.34-.67.49-1,.54-1.25,0-1.78-.88-2a33.52,33.52,0,0,1,0-6.86c3.8-.8,8.42-2.27,6.69-4.55-1.05-1.38-3-1.53-5-1.19a8.61,8.61,0,0,1,.94-1.28c6.92-7.61,11.74,0,11.74,0,4-3.34,9.66-2.44,10.88,2.79C404.21,351.48,399.89,350.62,399.63,352.43Z" style="fill:#407BFF"></path><path d="M399.63,352.43c-.21,1.47,3.77,2.44,7,3-.27,2.67-2.05,5.37-4.5,7.89-3.08-1.74-7.49-4-8.3-3.48s3.62,3.53,6.44,5.25a57.88,57.88,0,0,1-6.38,4.84c-1.39-1.3-3-2.43-4-1.82s-.73,2.64-.24,4.42c-3.35,2-5.87,3.15-5.87,3.15a67.5,67.5,0,0,1-2.24-9.53c.17-.33.34-.67.49-1,.54-1.25,0-1.78-.88-2a33.52,33.52,0,0,1,0-6.86c3.8-.8,8.42-2.27,6.69-4.55-1.05-1.38-3-1.53-5-1.19a8.61,8.61,0,0,1,.94-1.28c6.92-7.61,11.74,0,11.74,0,4-3.34,9.66-2.44,10.88,2.79C404.21,351.48,399.89,350.62,399.63,352.43Z" style="fill:#fff;opacity:0.5;isolation:isolate"></path></g><g id="freepik--wifi-icon--inject-159"><path d="M114.76,309.43a1.12,1.12,0,0,1-.81-.34,21.79,21.79,0,0,0-30.77,0,1.15,1.15,0,0,1-1.63,0,1.14,1.14,0,0,1,0-1.62,24.08,24.08,0,0,1,34,0,1.14,1.14,0,0,1,0,1.62A1.12,1.12,0,0,1,114.76,309.43Z" style="fill:#407BFF"></path><path d="M110,314.18a1.12,1.12,0,0,1-.81-.34,15.06,15.06,0,0,0-21.27,0,1.15,1.15,0,0,1-1.63,0,1.14,1.14,0,0,1,0-1.62,17.36,17.36,0,0,1,24.52,0,1.14,1.14,0,0,1,0,1.62A1.12,1.12,0,0,1,110,314.18Z" style="fill:#407BFF"></path><path d="M104.65,319.54a1.12,1.12,0,0,1-.81-.34,7.47,7.47,0,0,0-10.55,0,1.15,1.15,0,0,1-1.63,0,1.14,1.14,0,0,1,0-1.62,9.76,9.76,0,0,1,13.8,0,1.14,1.14,0,0,1,0,1.62A1.12,1.12,0,0,1,104.65,319.54Z" style="fill:#407BFF"></path><circle cx="98.56" cy="324.48" r="2.51" style="fill:#407BFF"></circle></g><g id="freepik--Device--inject-159"><path d="M102.77,366.46l-6.66-24.85-1.76.61,4.21,24.85S100.5,368.88,102.77,366.46Z" style="fill:#263238"></path><path d="M102.78,366.46c-2.28,2.42-4.21.61-4.21.61l-4.16-24.51-.06-.34,1.76-.61Z" style="fill:#fff;opacity:0.4;isolation:isolate"></path><path d="M98.57,367.07l-4.22-24.85,1.27-.13,5.41,23.6S101.17,367.15,98.57,367.07Z" style="fill:#fff;opacity:0.2;isolation:isolate"></path><polygon points="94.13 420.39 96.85 420.39 99.14 375.89 94.13 375.89 94.13 420.39" style="fill:#407BFF"></polygon><polygon points="94.13 420.39 96.85 420.39 99.14 375.89 94.13 375.89 94.13 420.39" style="fill:#fff;opacity:0.2;isolation:isolate"></polygon><polygon points="105.27 420.39 102.56 420.39 100.26 375.89 105.27 375.89 105.27 420.39" style="fill:#407BFF"></polygon><polygon points="128.25 420.39 125.54 420.39 115.58 375.89 120.59 375.89 128.25 420.39" style="fill:#407BFF"></polygon><polygon points="71.15 420.39 73.86 420.39 83.82 375.89 78.81 375.89 71.15 420.39" style="fill:#407BFF"></polygon><polygon points="128.25 420.39 125.54 420.39 115.58 375.89 120.59 375.89 128.25 420.39" style="fill:#fff;opacity:0.4;isolation:isolate"></polygon><polygon points="71.15 420.39 73.86 420.39 83.82 375.89 78.81 375.89 71.15 420.39" style="fill:#fff;opacity:0.4;isolation:isolate"></polygon><polygon points="105.27 420.39 102.56 420.39 100.26 375.89 105.27 375.89 105.27 420.39" style="fill:#fff;opacity:0.6000000000000001;isolation:isolate"></polygon><rect x="75.36" y="370.88" width="48.69" height="6.9" rx="1.89" style="fill:#407BFF"></rect><rect x="75.36" y="370.88" width="48.69" height="6.9" rx="1.89" style="fill:#fff;opacity:0.7000000000000001;isolation:isolate"></rect><path d="M114.24,368.78v2.1H82.88v-4.52s4.4-3,5.46-3,14.48.05,18.38,1.09A21.34,21.34,0,0,1,114.24,368.78Z" style="fill:#263238"></path><path d="M114.24,368.78v.76H99.9s-.81-1.21-1.34-1.36-15.68-1.82-15.68-1.82,4.4-3,5.46-3,14.48.05,18.38,1.09A21.34,21.34,0,0,1,114.24,368.78Z" style="fill:#fff;opacity:0.2;isolation:isolate"></path><path d="M85.91,367.87,79.25,343l-1.76.61,4.21,24.85S83.64,370.3,85.91,367.87Z" style="fill:#263238"></path><path d="M85.92,367.88c-2.28,2.42-4.22.6-4.22.6L77.55,344l-.06-.35,1.75-.6Z" style="fill:#fff;opacity:0.4;isolation:isolate"></path><path d="M81.7,368.48l-4.21-24.85,1.27-.13,5.41,23.6S84.31,368.56,81.7,368.48Z" style="fill:#fff;opacity:0.2;isolation:isolate"></path></g><g id="freepik--Banner--inject-159"><path d="M72.45,143.07a.5.5,0,0,1-.07-1l83.54-12.64a.5.5,0,0,1,.56.42.49.49,0,0,1-.42.57L72.53,143.07Z" style="fill:#263238"></path><path d="M403.18,143.61h-.08l-74.22-11a.5.5,0,0,1-.42-.56.51.51,0,0,1,.57-.43l74.22,11.05a.5.5,0,0,1,.42.56A.5.5,0,0,1,403.18,143.61Z" style="fill:#263238"></path><path d="M323.24,106.91a.51.51,0,0,1-.48-.35.5.5,0,0,1,.33-.63L403,80.41a.51.51,0,0,1,.63.33.5.5,0,0,1-.32.63l-79.94,25.51A.4.4,0,0,1,323.24,106.91Z" style="fill:#263238"></path><path d="M162.25,105.3h-.13L72.32,81.37a.5.5,0,1,1,.26-1l89.8,23.91a.5.5,0,0,1,.36.61A.51.51,0,0,1,162.25,105.3Z" style="fill:#263238"></path><g style="opacity:0.6000000000000001"><path d="M72.45,143.07a.5.5,0,0,1-.07-1l83.54-12.64a.5.5,0,0,1,.56.42.49.49,0,0,1-.42.57L72.53,143.07Z" style="fill:#fff"></path></g><g style="opacity:0.6000000000000001"><path d="M403.18,143.61h-.08l-74.22-11a.5.5,0,0,1-.42-.56.51.51,0,0,1,.57-.43l74.22,11.05a.5.5,0,0,1,.42.56A.5.5,0,0,1,403.18,143.61Z" style="fill:#fff"></path></g><g style="opacity:0.6000000000000001"><path d="M323.24,106.91a.51.51,0,0,1-.48-.35.5.5,0,0,1,.33-.63L403,80.41a.51.51,0,0,1,.63.33.5.5,0,0,1-.32.63l-79.94,25.51A.4.4,0,0,1,323.24,106.91Z" style="fill:#fff"></path></g><g style="opacity:0.6000000000000001"><path d="M162.25,105.3h-.13L72.32,81.37a.5.5,0,1,1,.26-1l89.8,23.91a.5.5,0,0,1,.36.61A.51.51,0,0,1,162.25,105.3Z" style="fill:#fff"></path></g><path d="M332.32,132.73a359.16,359.16,0,0,1-178.61,0q3.76-14.62,7.52-29.26a328.81,328.81,0,0,0,163.58,0Q328.56,118.11,332.32,132.73Z" style="fill:#407BFF"></path></g><g id="freepik--Text--inject-159"><path d="M178.64,117.55q-1,5.1-2,10.18l-2-.4.84-4.17c-1.33-.26-2.65-.54-4-.82-.3,1.39-.59,2.78-.88,4.16l-2.05-.44q1.11-5.06,2.21-10.13l2,.43c-.29,1.33-.57,2.66-.85,4,1.31.28,2.63.55,3.94.81.27-1.34.54-2.67.8-4Z" style="fill:#407BFF"></path><path d="M185,127l-4.1-.72-1.18,2-2.1-.4q2.94-4.71,5.77-9.47l2,.34q1,5.44,2.22,10.88l-2.16-.35Zm-.34-1.91c-.24-1.38-.47-2.77-.7-4.15-.69,1.22-1.38,2.44-2.08,3.66Z" style="fill:#407BFF"></path><path d="M197.12,124.4a3.5,3.5,0,0,1-4.34,3.17l-1.78-.26c-.14.94-.29,1.88-.43,2.82l-2.06-.32,1.62-10.24c1.24.2,2.49.39,3.74.57A3.53,3.53,0,0,1,197.12,124.4Zm-2.05-.29a1.66,1.66,0,0,0-1.6-2l-1.64-.25-.54,3.56,1.66.25A1.65,1.65,0,0,0,195.07,124.11Z" style="fill:#407BFF"></path><path d="M206.17,125.5a3.52,3.52,0,0,1-4.26,3.29l-1.78-.22c-.12,1-.24,1.89-.35,2.84l-2.07-.27c.45-3.43.9-6.85,1.34-10.28l3.76.47A3.53,3.53,0,0,1,206.17,125.5Zm-2.06-.23a1.66,1.66,0,0,0-1.65-2l-1.64-.2-.45,3.57,1.66.2A1.65,1.65,0,0,0,204.11,125.27Z" style="fill:#407BFF"></path><path d="M211.56,129l-.33,3.65-2.07-.19.36-3.69q-1.4-3.48-2.72-7l2.14.22q.92,2.41,1.88,4.82,1.4-2.19,2.76-4.38l2,.17C214.24,124.74,212.92,126.87,211.56,129Z" style="fill:#407BFF"></path><path d="M219.92,122.93l2,.14c-.21,3.45-.43,6.9-.64,10.35l-2.08-.14C219.45,129.83,219.68,126.38,219.92,122.93Z" style="fill:#407BFF"></path><path d="M232,123.54c-.11,3.46-.22,6.91-.34,10.37l-1.7-.06c-1.42-2.15-2.8-4.32-4.16-6.49-.11,2.1-.21,4.2-.32,6.29l-2.05-.11c.19-3.45.39-6.9.58-10.35l1.67.09c1.33,2.17,2.7,4.33,4.09,6.49l.24-6.3Z" style="fill:#407BFF"></path><path d="M235.83,125.6l-2.81-.07.06-2q3.79.11,7.59.14c0,.65,0,1.3,0,2l-2.8,0c-.05,2.8-.09,5.61-.13,8.41l-2.08,0Z" style="fill:#407BFF"></path><path d="M248.65,132.12l0,1.93q-3.48.06-7,0,0-5.18,0-10.37c2.2,0,4.39,0,6.59,0l0,1.93c-1.54,0-3.07,0-4.61,0,0,.75,0,1.5,0,2.25,1.36,0,2.73,0,4.09,0l0,1.86-4.12,0c0,.8,0,1.6,0,2.4C245.41,132.16,247,132.15,248.65,132.12Z" style="fill:#407BFF"></path><path d="M256.06,133.85c-.61-.94-1.22-1.88-1.82-2.83h-.1l-1.8.05c0,1,0,1.93.08,2.89l-2.08.05q-.1-5.19-.22-10.37l3.77-.1a3.53,3.53,0,0,1,3.95,3.62,3.39,3.39,0,0,1-1.69,3.34c.71,1.09,1.42,2.17,2.14,3.25Zm-2.21-8.34-1.66,0c0,1.2.07,2.4.1,3.61l1.67,0a1.81,1.81,0,1,0-.11-3.61Z" style="fill:#407BFF"></path><path d="M267.26,122.85q.38,5.18.74,10.35l-1.7.12c-1.63-2-3.24-4-4.81-6,.11,2.1.22,4.19.34,6.29l-2.06.1c-.16-3.45-.33-6.9-.49-10.36l1.66-.08q2.34,3,4.75,6l-.42-6.28Z" style="fill:#407BFF"></path><path d="M276.88,130.51c.07.64.13,1.28.19,1.92q-3.46.34-6.93.61l-.81-10.34q3.29-.26,6.57-.58c.06.64.12,1.28.19,1.92l-4.6.42c.06.75.13,1.49.19,2.24,1.36-.11,2.72-.23,4.08-.37l.18,1.86c-1.37.13-2.74.26-4.1.37.06.8.13,1.6.2,2.39C273.65,130.82,275.27,130.67,276.88,130.51Z" style="fill:#407BFF"></path><path d="M279.67,123.7l-2.79.29c-.07-.65-.13-1.29-.2-1.94q3.79-.39,7.57-.84c.08.64.15,1.29.23,1.94l-2.79.33,1,8.36-2.07.23C280.28,129.28,280,126.49,279.67,123.7Z" style="fill:#407BFF"></path><path d="M288.83,120.61c1.31-.18,2.62-.36,3.93-.56,2.82-.42,5.09,1.28,5.6,4.38s-1.15,5.45-4.08,5.88l-4,.58C289.77,127.46,289.3,124,288.83,120.61Zm5.06,7.77c1.76-.26,2.72-1.66,2.42-3.62s-1.64-3-3.36-2.74l-1.84.26c.3,2.13.61,4.25.91,6.37Z" style="fill:#407BFF"></path><path d="M306.07,126.1l-4.1.73c-.13.77-.27,1.55-.41,2.32l-2.11.35q1.16-5.43,2.17-10.88l2-.36q2.85,4.76,5.82,9.47l-2.15.41C306.86,127.46,306.46,126.78,306.07,126.1Zm-1-1.68c-.7-1.22-1.4-2.44-2.09-3.66-.23,1.39-.46,2.77-.7,4.16Z" style="fill:#407BFF"></path><path d="M313.3,123.2c.24,1.2.49,2.4.74,3.6l-2,.41c-.25-1.21-.49-2.42-.74-3.63q-2.34-2.92-4.64-5.88l2.11-.41c1.06,1.35,2.14,2.71,3.22,4,.47-1.66.92-3.33,1.37-5l1.94-.42C314.63,118.35,314,120.78,313.3,123.2Z" style="fill:#407BFF"></path><g style="opacity:0.6"><path d="M178.64,117.55q-1,5.1-2,10.18l-2-.4.84-4.17c-1.33-.26-2.65-.54-4-.82-.3,1.39-.59,2.78-.88,4.16l-2.05-.44q1.11-5.06,2.21-10.13l2,.43c-.29,1.33-.57,2.66-.85,4,1.31.28,2.63.55,3.94.81.27-1.34.54-2.67.8-4Z" style="fill:#fff"></path><path d="M185,127l-4.1-.72-1.18,2-2.1-.4q2.94-4.71,5.77-9.47l2,.34q1,5.44,2.22,10.88l-2.16-.35Zm-.34-1.91c-.24-1.38-.47-2.77-.7-4.15-.69,1.22-1.38,2.44-2.08,3.66Z" style="fill:#fff"></path><path d="M197.12,124.4a3.5,3.5,0,0,1-4.34,3.17l-1.78-.26c-.14.94-.29,1.88-.43,2.82l-2.06-.32,1.62-10.24c1.24.2,2.49.39,3.74.57A3.53,3.53,0,0,1,197.12,124.4Zm-2.05-.29a1.66,1.66,0,0,0-1.6-2l-1.64-.25-.54,3.56,1.66.25A1.65,1.65,0,0,0,195.07,124.11Z" style="fill:#fff"></path><path d="M206.17,125.5a3.52,3.52,0,0,1-4.26,3.29l-1.78-.22c-.12,1-.24,1.89-.35,2.84l-2.07-.27c.45-3.43.9-6.85,1.34-10.28l3.76.47A3.53,3.53,0,0,1,206.17,125.5Zm-2.06-.23a1.66,1.66,0,0,0-1.65-2l-1.64-.2-.45,3.57,1.66.2A1.65,1.65,0,0,0,204.11,125.27Z" style="fill:#fff"></path><path d="M211.56,129l-.33,3.65-2.07-.19.36-3.69q-1.4-3.48-2.72-7l2.14.22q.92,2.41,1.88,4.82,1.4-2.19,2.76-4.38l2,.17C214.24,124.74,212.92,126.87,211.56,129Z" style="fill:#fff"></path><path d="M219.92,122.93l2,.14c-.21,3.45-.43,6.9-.64,10.35l-2.08-.14C219.45,129.83,219.68,126.38,219.92,122.93Z" style="fill:#fff"></path><path d="M232,123.54c-.11,3.46-.22,6.91-.34,10.37l-1.7-.06c-1.42-2.15-2.8-4.32-4.16-6.49-.11,2.1-.21,4.2-.32,6.29l-2.05-.11c.19-3.45.39-6.9.58-10.35l1.67.09c1.33,2.17,2.7,4.33,4.09,6.49l.24-6.3Z" style="fill:#fff"></path><path d="M235.83,125.6l-2.81-.07.06-2q3.79.11,7.59.14c0,.65,0,1.3,0,2l-2.8,0c-.05,2.8-.09,5.61-.13,8.41l-2.08,0Z" style="fill:#fff"></path><path d="M248.65,132.12l0,1.93q-3.48.06-7,0,0-5.18,0-10.37c2.2,0,4.39,0,6.59,0l0,1.93c-1.54,0-3.07,0-4.61,0,0,.75,0,1.5,0,2.25,1.36,0,2.73,0,4.09,0l0,1.86-4.12,0c0,.8,0,1.6,0,2.4C245.41,132.16,247,132.15,248.65,132.12Z" style="fill:#fff"></path><path d="M256.06,133.85c-.61-.94-1.22-1.88-1.82-2.83h-.1l-1.8.05c0,1,0,1.93.08,2.89l-2.08.05q-.1-5.19-.22-10.37l3.77-.1a3.53,3.53,0,0,1,3.95,3.62,3.39,3.39,0,0,1-1.69,3.34c.71,1.09,1.42,2.17,2.14,3.25Zm-2.21-8.34-1.66,0c0,1.2.07,2.4.1,3.61l1.67,0a1.81,1.81,0,1,0-.11-3.61Z" style="fill:#fff"></path><path d="M267.26,122.85q.38,5.18.74,10.35l-1.7.12c-1.63-2-3.24-4-4.81-6,.11,2.1.22,4.19.34,6.29l-2.06.1c-.16-3.45-.33-6.9-.49-10.36l1.66-.08q2.34,3,4.75,6l-.42-6.28Z" style="fill:#fff"></path><path d="M276.88,130.51c.07.64.13,1.28.19,1.92q-3.46.34-6.93.61l-.81-10.34q3.29-.26,6.57-.58c.06.64.12,1.28.19,1.92l-4.6.42c.06.75.13,1.49.19,2.24,1.36-.11,2.72-.23,4.08-.37l.18,1.86c-1.37.13-2.74.26-4.1.37.06.8.13,1.6.2,2.39C273.65,130.82,275.27,130.67,276.88,130.51Z" style="fill:#fff"></path><path d="M279.67,123.7l-2.79.29c-.07-.65-.13-1.29-.2-1.94q3.79-.39,7.57-.84c.08.64.15,1.29.23,1.94l-2.79.33,1,8.36-2.07.23C280.28,129.28,280,126.49,279.67,123.7Z" style="fill:#fff"></path><path d="M288.83,120.61c1.31-.18,2.62-.36,3.93-.56,2.82-.42,5.09,1.28,5.6,4.38s-1.15,5.45-4.08,5.88l-4,.58C289.77,127.46,289.3,124,288.83,120.61Zm5.06,7.77c1.76-.26,2.72-1.66,2.42-3.62s-1.64-3-3.36-2.74l-1.84.26c.3,2.13.61,4.25.91,6.37Z" style="fill:#fff"></path><path d="M306.07,126.1l-4.1.73c-.13.77-.27,1.55-.41,2.32l-2.11.35q1.16-5.43,2.17-10.88l2-.36q2.85,4.76,5.82,9.47l-2.15.41C306.86,127.46,306.46,126.78,306.07,126.1Zm-1-1.68c-.7-1.22-1.4-2.44-2.09-3.66-.23,1.39-.46,2.77-.7,4.16Z" style="fill:#fff"></path><path d="M313.3,123.2c.24,1.2.49,2.4.74,3.6l-2,.41c-.25-1.21-.49-2.42-.74-3.63q-2.34-2.92-4.64-5.88l2.11-.41c1.06,1.35,2.14,2.71,3.22,4,.47-1.66.92-3.33,1.37-5l1.94-.42C314.63,118.35,314,120.78,313.3,123.2Z" style="fill:#fff"></path></g></g><g id="freepik--character-3--inject-159"><g id="freepik--group--inject-159"><path d="M356.49,218.5l10.31,19.25,21.11-1.23a31.26,31.26,0,0,1-1.94,3.14c-1.16,1.64-6.17,2.41-6.65,2a21.51,21.51,0,0,0-2-1.23s-15.22,2.87-17.15,2.67-8-20.68-8-20.68Z" style="fill:#ebb376"></path><path d="M387.91,236.52a31.26,31.26,0,0,1-1.94,3.14c-1.16,1.64-6.17,2.41-6.65,2a21.51,21.51,0,0,0-2-1.23s-15.22,2.87-17.15,2.67c-.75-.07-2.12-3.2-3.51-7-2.21-6-4.48-13.69-4.48-13.69l4.33-3.95,4,7.47,6.31,11.78Z" style="opacity:0.2;isolation:isolate"></path><path d="M360.49,226c-.24,3.88-1.21,7.78-3.73,10.07l-.12.1c-2.21-6-4.48-13.69-4.48-13.69l4.33-3.95Z" style="opacity:0.2;isolation:isolate"></path><path d="M309.3,262.18,361,258.29s-11.55-39.07-15-44.08-15-9.68-15-9.68l-14.49,2.91Z" style="fill:#407BFF"></path><path d="M309.3,262.18,361,258.29s-11.55-39.07-15-44.08-15-9.68-15-9.68l-14.49,2.91Z" style="opacity:0.2;isolation:isolate"></path><path d="M346.29,203.83c2.59.58,13.86,15.92,13.86,15.92l-7.9,6.83Z" style="fill:#407BFF"></path><path d="M346.29,203.83c2.59.58,13.86,15.92,13.86,15.92l-7.9,6.83Z" style="fill:#fff;opacity:0.2"></path><path d="M317.15,251.83H355c3.6,19.64,14.85,99.37,6.78,161.28h-12.8s1.18-94-10.12-124.41C337.52,305,324.3,413,324.3,413h-13s1.94-40.66,3.9-79.06C316.39,309.8,317.09,256.8,317.15,251.83Z" style="fill:#407BFF"></path><path d="M317.15,251.83H355c3.6,19.64,14.85,99.37,6.78,161.28h-12.8s1.18-94-10.12-124.41C337.52,305,324.3,413,324.3,413h-13s1.94-40.66,3.9-79.06C316.39,309.8,317.09,256.8,317.15,251.83Z" style="fill:#fff;opacity:0.6000000000000001"></path><path d="M338.82,288.7a101.21,101.21,0,0,1,4.23,16.36c1.05-14.47-3.18-29.81-3.18-29.81Z" style="opacity:0.2;isolation:isolate"></path><path d="M321.74,412.28h-8.66a.64.64,0,0,0-.61.49l-1.4,6.35a1,1,0,0,0,.81,1.24.91.91,0,0,0,.23,0c2.8-.05,4.84-.22,8.36-.22,2.16,0,8.7.23,11.69.23s3.38-3,2.16-3.23c-5.5-1.2-9.63-2.86-11.39-4.43A1.69,1.69,0,0,0,321.74,412.28Z" style="fill:#263238"></path><path d="M358.44,412.06h-8.65a.62.62,0,0,0-.61.49l-1.4,6.34a1.05,1.05,0,0,0,.81,1.25l.23,0c2.8-.05,4.84-.22,8.36-.22,2.16,0,8.7.23,11.69.23s3.38-3,2.15-3.23c-5.49-1.19-9.62-2.85-11.38-4.43A1.69,1.69,0,0,0,358.44,412.06Z" style="fill:#263238"></path><polygon points="350.07 256.42 355.77 256.35 355.28 252.28 350.07 252.28 350.07 256.42"></polygon><polygon points="329.45 252.28 317.21 252.28 317.21 256.82 329.45 256.67 329.45 252.28"></polygon><polygon points="330.81 256.65 348.71 256.43 348.71 252.28 330.81 252.28 330.81 256.65"></polygon><rect x="337.93" y="251.49" width="7.04" height="5.07" transform="translate(682.9 508.06) rotate(180)" style="fill:#fff"></rect><path d="M317.21,252.28h38.07s.49-27.16-9-48.45l-40,6.07a2.75,2.75,0,0,0-2.07,3.91C307.31,220.37,314,235.73,317.21,252.28Z" style="fill:#263238"></path><path d="M329.63,210s-8,1.45-11.36-1.37c1.54-1.85,1.79-5,1.47-8.31a43.32,43.32,0,0,0-1.32-6.92c-.2-.73-.4-1.41-.6-2L328,198.23c0,.16,0,.31-.06.48-.05.47-.1.94-.11,1.41a8.92,8.92,0,0,0,.45,3.35,7.48,7.48,0,0,0,.85,2.13,3.53,3.53,0,0,0,2.37.84C332.66,208,329.63,210,329.63,210Z" style="fill:#ebb376"></path><path d="M329.17,205.6a16,16,0,0,1-9.43-5.31,43.32,43.32,0,0,0-1.32-6.92l9.56,5.34c-.05.47-.1.94-.11,1.41a8.92,8.92,0,0,0,.45,3.35A7.48,7.48,0,0,0,329.17,205.6Z" style="opacity:0.2;isolation:isolate"></path><path d="M316,192.36s-2.37.9-2.92-.46.31-3.29-.75-3.77-3.47-.78-3.18-2.12,1.93-2.27,1-3.26-3-2.42-1.93-3.39,2.12-2.62,1.35-3.33.67-4.22,2.79-3.77,1.93-1.32,2-2.84,3.43-2.53,4-.92,2.43-.18,3-1.5,1.55-1.7,3.37-.55,1.79,4.4,3,2.64,3.48-2.73,4.44-1.58.2,2.41,1.88,2.51,3.71,3.36,2.84,3.75-.83,1.24.21,2.26,2.2,2.65.66,3.18-1.56,1.6-1.16,2.08-1.14,2.48-3.12,2.15S316,192.36,316,192.36Z" style="fill:#263238"></path><path d="M335.41,174.89s2.89,9.36-1.65,13.8-7.2-13.38-7.2-13.38Z" style="fill:#263238"></path><path d="M320.14,198.51a8.79,8.79,0,0,0,10.49,1.88,9.76,9.76,0,0,0,4.85-5.33,9.56,9.56,0,0,0,.32-1c1.63-6.22.89-16.58-5.87-19.49a9.52,9.52,0,0,0-13.33,9.25C316.86,190.79,316.69,194.89,320.14,198.51Z" style="fill:#ebb376"></path><path d="M327.12,186c-.05.57.27,1,.65,1s.68-.45.69-1-.28-1-.65-1S327.14,185.42,327.12,186Z" style="fill:#263238"></path><path d="M333.53,186.13c0,.56.28,1,.65,1s.68-.45.69-1-.28-1-.65-1S333.54,185.59,333.53,186.13Z" style="fill:#263238"></path><path d="M331.49,186.36a19.93,19.93,0,0,0,2.6,4.91,3.26,3.26,0,0,1-2.73.45Z" style="fill:#d58745"></path><path d="M335.92,183.54a.35.35,0,0,1-.34,0,2.71,2.71,0,0,0-2.36-.5.33.33,0,1,1-.22-.62h0a3.27,3.27,0,0,1,3,.59.32.32,0,0,1,.08.46h0A.41.41,0,0,1,335.92,183.54Z" style="fill:#263238"></path><path d="M325.91,183.42a.31.31,0,0,1-.18-.07.32.32,0,0,1,0-.46h0a3.27,3.27,0,0,1,3-.72.33.33,0,0,1,.22.41h0a.34.34,0,0,1-.41.22h0a2.67,2.67,0,0,0-2.33.61A.33.33,0,0,1,325.91,183.42Z" style="fill:#263238"></path><path d="M321.88,175.25l.65,1.31c-2.28.81-1.76,3.46-1.26,4.66,1.06,2.55-.3,6.59-2.23,8.24,0,0-.1-1.11-1-.82s-.52,6.1,1.39,8.83c0,0-2.85-2.44-4.58-8.51-1.61-5.61-1.91-10.31-.81-12.53Z" style="fill:#263238"></path><path d="M313.44,189.47a6.63,6.63,0,0,0,3.72,3.43c2.19.78,3.45-1.13,3-3.29-.43-1.91-2.07-4.68-4.34-4.51A3,3,0,0,0,313.44,189.47Z" style="fill:#ebb376"></path><path d="M321.29,201.34c3.25,2.38,9.65,3.25,12.88-.87s2.36-10.84,2.36-10.84a10.34,10.34,0,0,1-2.1,4.05c-1.72-2.17-4.78-1-4.78-1A4.33,4.33,0,0,0,327.1,191c-1.46-.18-5.56,0-5.56,0-1.31-.86-1.29-4.61-1.29-4.61l-.82.65S318,199,321.29,201.34Z" style="fill:#263238"></path><path d="M321.29,201.34c3.25,2.38,9.65,3.25,12.88-.87s2.36-10.84,2.36-10.84a10.34,10.34,0,0,1-2.1,4.05c-1.72-2.17-4.78-1-4.78-1A4.33,4.33,0,0,0,327.1,191c-1.46-.18-5.56,0-5.56,0-1.31-.86-1.29-4.61-1.29-4.61l-.82.65S318,199,321.29,201.34Z" style="fill:#fff;opacity:0.2"></path><path d="M329.94,194.81a20.83,20.83,0,0,0-1.68,2.5c-.16-.06-.33-.11-.49-.18-2.25-.86-3-2-3.17-3a3.14,3.14,0,0,1,.15-1.47,2.77,2.77,0,0,1,.37-.75,11.31,11.31,0,0,0,4.06,2.6C329.64,194.7,329.94,194.81,329.94,194.81Z" style="fill:#263238"></path><path d="M329.18,194.5l-.51.73c-2.12-.82-3.5-1.68-3.92-2.58a2.77,2.77,0,0,1,.37-.75A11.31,11.31,0,0,0,329.18,194.5Z" style="fill:#fff"></path><path d="M327.77,197.13c-2.25-.86-3-2-3.17-3a7.68,7.68,0,0,1,2.31,1.45A3,3,0,0,1,327.77,197.13Z" style="fill:#de5753"></path><path d="M327.3,171.66s3.74.38,5.48,2.11,2.79,4.29,2.09,4.44-2.55-1.16-3.09-1-.82,3.16-2.6,2-.72-1.08-2.22-1.62-2.53,1.29-3.17,1.1a4,4,0,0,1-1.26-.77s2.09-.47,2.27-1.11S327,176,327,176s-2.34-1.07-3.17-.46-.53,2.15-2.51,1.91-5.23,1.2-5.29-1.35S323,169.54,327.3,171.66Z" style="fill:#263238"></path><path d="M322.53,207.44s-.61,45.23-11.26,62.38L299.66,264a88.45,88.45,0,0,0,6.89-27.92,51.83,51.83,0,0,0-1.69-17.73,36.92,36.92,0,0,0-1.79-4.9c-.69-1.55.92-3.24,2.61-3.5Z" style="fill:#407BFF"></path><polygon points="313.35 205.6 322.52 207.44 320.24 215.11 311.27 209.14 313.35 205.6" style="fill:#407BFF"></polygon><polygon points="313.35 205.6 322.52 207.44 320.24 215.11 311.27 209.14 313.35 205.6" style="fill:#fff;opacity:0.2"></polygon><path d="M333.5,204.94l3.61,5.19s10.32,5,22.08,55.2l6.48-5.43s-14.16-52.25-19.38-56.07Z" style="fill:#407BFF"></path><polygon points="331.07 204.53 337.11 210.13 334.93 204.38 332.74 203.09 331.07 204.53" style="fill:#407BFF"></polygon><polygon points="331.07 204.53 337.11 210.13 334.93 204.38 332.74 203.09 331.07 204.53" style="fill:#fff;opacity:0.2"></polygon><path d="M327.74,189.35a2.81,2.81,0,1,1,2.45-2.79A2.64,2.64,0,0,1,327.74,189.35Zm0-5.08a2.32,2.32,0,1,0,1.95,2.29A2.15,2.15,0,0,0,327.74,184.27Z" style="fill:#263238"></path><path d="M334.45,189.16a2.82,2.82,0,1,1,2.45-2.8A2.65,2.65,0,0,1,334.45,189.16Zm0-5.09a2.33,2.33,0,1,0,1.95,2.29A2.14,2.14,0,0,0,334.45,184.07Z" style="fill:#263238"></path><path d="M330.08,186.77l-.28-.42c.06,0,1.5-1,2.6-.19l-.3.4C331.28,186,330.1,186.76,330.08,186.77Z" style="fill:#263238"></path><rect x="321.73" y="182.2" width="0.5" height="7.27" transform="translate(75.78 464.39) rotate(-78.52)" style="fill:#263238"></rect><path d="M317.82,233.45s-5.72,3.65-11.27,2.67a51.83,51.83,0,0,0-1.69-17.73c.5-.83.84-1.32.84-1.32Z" style="opacity:0.2;isolation:isolate"></path><path d="M314.62,218.5s9.32,13.1,10.18,14,23,0,23,0l3.46-2.44a62.55,62.55,0,0,1,9.82-.25c.59.25-.31,6-1,6.67s-8,1.59-8.87,1.27a5.91,5.91,0,0,0-2.19-.18s-24.16,2.16-26.5,1.28-11.83-10.79-11.83-10.79Z" style="fill:#ebb376"></path><path d="M303.16,210.83c-6.94,4.64,6.29,24.09,6.29,24.09L320.24,225S310.76,205.75,303.16,210.83Z" style="fill:#407BFF"></path><path d="M303.16,210.83c-6.94,4.64,6.29,24.09,6.29,24.09L320.24,225S310.76,205.75,303.16,210.83Z" style="fill:#fff;opacity:0.2"></path><path d="M346.06,237.86l.12,1.2a1.56,1.56,0,0,0,1.63,1.4l44.11-4.33a1.66,1.66,0,0,0,1.45-1.71l-.12-1.19Z" style="fill:#263238"></path><path d="M346.06,237.86l.12,1.2a1.56,1.56,0,0,0,1.63,1.4l44.11-4.33a1.66,1.66,0,0,0,1.45-1.71l-.12-1.19Z" style="fill:#fff;opacity:0.2;isolation:isolate"></path><path d="M362.52,236.24l.12,1.2a1.56,1.56,0,0,0,1.64,1.4l27.64-2.71a1.66,1.66,0,0,0,1.45-1.71l-.12-1.19Z" style="fill:#fff;opacity:0.2;isolation:isolate"></path><path d="M364.17,237.74l29.14-2.86a2.39,2.39,0,0,0,2-1.77l4.62-21.62a1.17,1.17,0,0,0-1.27-1.51l-29.15,2.87a2.43,2.43,0,0,0-2,1.82l-4.62,21.59A1.14,1.14,0,0,0,364.17,237.74Z" style="fill:#263238"></path><path d="M364.17,237.74l29.14-2.86a2.39,2.39,0,0,0,2-1.77l4.62-21.62a1.17,1.17,0,0,0-1.27-1.51l-29.15,2.87a2.43,2.43,0,0,0-2,1.82l-4.62,21.59A1.14,1.14,0,0,0,364.17,237.74Z" style="fill:#fff;opacity:0.2;isolation:isolate"></path><path d="M365.27,237.64l28-2.76a2.39,2.39,0,0,0,2-1.77l4.62-21.62a1.17,1.17,0,0,0-1.27-1.51l-28.05,2.76a2.44,2.44,0,0,0-2,1.82L364,236.16A1.15,1.15,0,0,0,365.27,237.64Z" style="fill:#fff;opacity:0.2;isolation:isolate"></path><path d="M379.75,224.85c-.23,1.43.58,2.5,1.8,2.38a3.32,3.32,0,0,0,2.6-2.81c.22-1.43-.58-2.5-1.8-2.38A3.31,3.31,0,0,0,379.75,224.85Z" style="fill:#fff;opacity:0.2;isolation:isolate"></path></g></g><g id="freepik--character-2--inject-159"><g id="freepik--group--inject-159"><path d="M234.43,182.53l6.44-1.27a6.71,6.71,0,0,1,.49-2.29,34.14,34.14,0,0,1,4.93-4.17c.46-.18,3.06,1,3.81,2.31s-5,7.49-5.4,7.63a12.54,12.54,0,0,1-2.87-.62L235.27,186Z" style="fill:#e4897b"></path><path d="M236.83,201.06s-12.7-5.42-12.28-7.86,16.41-8,16.41-8l-.71-4.36s-19.78,1.45-24.53,7,2.41,15.24,18,24.43l5.79-4.12Z" style="fill:#407BFF"></path><path d="M236.83,201.06l2.65,7.08-1.86,1.32-3.93,2.8a84.71,84.71,0,0,1-8.21-5.47c-9.71-7.4-13.58-14.55-9.76-19,4.75-5.51,24.53-7,24.53-7l.7,4.37s-16,5.51-16.41,7.95S236.83,201.06,236.83,201.06Z" style="fill:#fff;opacity:0.4"></path><path d="M237.62,209.46l-3.93,2.8a84.71,84.71,0,0,1-8.21-5.47c3.17-1.25,9.45.45,9.45.45A14.62,14.62,0,0,1,237.62,209.46Z" style="opacity:0.2;isolation:isolate"></path><polygon points="256.54 404.99 250.24 408.61 242.68 394.91 248.98 391.28 256.54 404.99" style="fill:#eec1bb"></polygon><path d="M249.47,407.8l7-4.45a.59.59,0,0,1,.76.06l4.22,4.39a1,1,0,0,1-.12,1.48,1.09,1.09,0,0,1-.17.13c-2.44,1.49-3.77,2.17-6.82,4.1-1.87,1.19-9.8,5.46-12.74,5.66s-3.26-2.56-2.06-3c6-2.24,8.36-5.11,9.13-7.37A2,2,0,0,1,249.47,407.8Z" style="fill:#263238"></path><polygon points="248.98 391.28 242.68 394.91 246.59 401.97 252.89 398.35 248.98 391.28" style="opacity:0.2;isolation:isolate"></polygon><path d="M231.4,244.18s-20.63,68.37-19.5,88.69c1.24,22.28,31.19,69.15,31.19,69.15l11.3-7.13s-21.16-46.18-22-63.28c1.17-24.74,26.89-84.83,26.89-84.83Z" style="fill:#263238"></path><path d="M247.76,268.2c-6.24,3.82-8.7,20.09-7.38,28.35,3.36-10.46,7.21-20.77,10.3-28.68A3,3,0,0,0,247.76,268.2Z" style="opacity:0.2;isolation:isolate"></path><polygon points="241.85 403.11 255.15 394.67 252.97 390.92 239.01 399.43 241.85 403.11" style="fill:#407BFF"></polygon><path d="M248,410.11a2.29,2.29,0,0,1-1.36.45A.86.86,0,0,1,246,410a.52.52,0,0,1,0-.54c.49-.77,3.15-.89,3.45-.89a.13.13,0,0,1,.15.08.19.19,0,0,1-.05.19A9.65,9.65,0,0,1,248,410.11Zm-1.62-.62a.44.44,0,0,0-.17.16.17.17,0,0,0,0,.21.59.59,0,0,0,.49.38A3.8,3.8,0,0,0,249,409,7,7,0,0,0,246.41,409.49Z" style="fill:#407BFF"></path><path d="M249.49,408.91h-.08c-.83.08-2.81-.42-3-1.15a.56.56,0,0,1,.25-.65,1,1,0,0,1,.73-.23c1,.1,2.16,1.69,2.21,1.79a.17.17,0,0,1,0,.17S249.52,408.89,249.49,408.91Zm-2.62-1.57-.06,0c-.18.15-.14.23-.13.28.14.43,1.49.89,2.38.94-.35-.44-1.12-1.3-1.78-1.36a.66.66,0,0,0-.41.1Z" style="fill:#407BFF"></path><polygon points="270.27 413.23 263.27 413.23 262.69 397 269.7 397 270.27 413.23" style="fill:#eec1bb"></polygon><path d="M262.3,412.42h8.51a.62.62,0,0,1,.6.48l1.38,6.24a1,1,0,0,1-.8,1.22.85.85,0,0,1-.23,0c-2.75-.05-4.76-.22-8.21-.22-2.13,0-8.56.23-11.5.23s-3.32-2.91-2.12-3.18c5.4-1.17,9.46-2.81,11.19-4.36A1.7,1.7,0,0,1,262.3,412.42Z" style="fill:#263238"></path><polygon points="269.7 397.01 262.69 397.01 262.99 405.38 270.01 405.38 269.7 397.01" style="opacity:0.2;isolation:isolate"></polygon><path d="M241,245.57s5.7,67,8.66,87.3c3.23,22.28,10.16,70.89,10.16,70.89h12.81s-2.62-46.53-3.83-68.42c-1.39-25-2.05-87.66-2.05-87.66Z" style="fill:#263238"></path><polygon points="258.24 404.03 273.35 404.03 273.35 399.51 257.67 399.22 258.24 404.03" style="fill:#407BFF"></polygon><path d="M260,413.65a2.06,2.06,0,0,1-1.34-.36,1,1,0,0,1-.35-.89.49.49,0,0,1,.28-.46c.78-.4,3,1,3.29,1.15a.15.15,0,0,1,.08.16.17.17,0,0,1-.12.14A8.78,8.78,0,0,1,260,413.65Zm-1-1.45a.36.36,0,0,0-.21,0c-.05,0-.1.06-.11.2a.66.66,0,0,0,.22.59,3.43,3.43,0,0,0,2.5.13A6.76,6.76,0,0,0,258.94,412.2Z" style="fill:#407BFF"></path><path d="M261.77,413.4h-.08c-.72-.39-2.12-1.93-2-2.67a.55.55,0,0,1,.54-.44.89.89,0,0,1,.7.21c.81.66,1,2.68,1,2.77a.19.19,0,0,1-.08.16A.16.16,0,0,1,261.77,413.4Zm-1.4-2.84h-.09c-.21,0-.23.12-.24.17-.08.45.81,1.62,1.53,2.16a4,4,0,0,0-.83-2.19A.57.57,0,0,0,260.37,410.56Z" style="fill:#407BFF"></path><polygon points="229.02 252.08 267.19 252.08 267.19 256.62 228.53 256.15 229.02 252.08"></polygon><rect x="253.55" y="250.03" width="1.36" height="8.06" style="fill:#263238"></rect><rect x="234.24" y="250.03" width="1.36" height="8.06" style="fill:#263238"></rect><rect x="239.36" y="251.28" width="7.06" height="5.09" style="fill:#fff"></rect><path d="M229.33,251.46,267.51,254c2.1-18.51,8.19-37.55,10-44.28a1.85,1.85,0,0,0-1.26-2.26c-1.89-.54-3.84-1-5.82-1.47a185.87,185.87,0,0,0-27.08-3.63,22.14,22.14,0,0,1-6.51-1.29C231.1,217.3,229.75,239.15,229.33,251.46Z" style="fill:#407BFF"></path><path d="M277.5,209.71c-.36,1.34-.89,3.16-1.52,5.37-.91,3.18-2,7.14-3.17,11.61a205.63,205.63,0,0,0-5.29,27.3l-38.19-2.53c.42-12.31,1.78-34.16,7.5-50.4a22.12,22.12,0,0,0,6.5,1.29A185.81,185.81,0,0,1,270.42,206c2,.44,3.93.93,5.82,1.47A1.85,1.85,0,0,1,277.5,209.71Z" style="fill:#fff;opacity:0.4"></path><path d="M263.57,203.8c-3.28,3-11.32,1.88-11.32,1.88s-5-1.37-4-2.94c3-.48,4.39-1.86,5-3.63a8.68,8.68,0,0,0,.3-3.37c0-.63-.14-1.26-.25-1.88l9.93-7.36C262,191.35,260.36,200.29,263.57,203.8Z" style="fill:#e4897b"></path><path d="M261,191.18c-.4,5.95-5.3,7.6-7.69,7.93a8.68,8.68,0,0,0,.3-3.37Z" style="opacity:0.2;isolation:isolate"></path><path d="M247.63,181.68s-5.16,4.29-5.21,4.89a6.85,6.85,0,0,0,.82,2.15l-.48.39a4,4,0,0,1-.82-2.14c0-1.1,5.25-5.59,5.25-5.59Z" style="fill:#263238"></path><path d="M252.24,180.67c-1.24,2.41-3.52,3.71-5.09,2.9s-1.85-3.42-.62-5.83,3.52-3.71,5.1-2.91S253.48,178.25,252.24,180.67Z"></path><path d="M254.41,168.68s-6.61,7.07-4.5,13,12.18-8.79,12.18-8.79Z" style="fill:#263238"></path><path d="M245.78,185.56a8.92,8.92,0,0,0-.14,1,9.22,9.22,0,0,0,.35,3.57,9.41,9.41,0,0,0,1.66,3.26,8.91,8.91,0,0,0,5.49,3.34,8.7,8.7,0,0,0,4.64-.49c4.63-1.73,6.25-5.45,9.48-11.52a9.4,9.4,0,0,0-7.85-14C252.14,170.44,247,179.32,245.78,185.56Z" style="fill:#e4897b"></path><path d="M257,182.12c-.2.53-.69.8-1,.65s-.41-.7-.18-1.2.7-.8,1-.65S257.21,181.61,257,182.12Z" style="fill:#263238"></path><path d="M251.23,179.48c-.2.52-.7.79-1,.64s-.41-.69-.18-1.2.7-.79,1-.64S251.45,179,251.23,179.48Z" style="fill:#263238"></path><path d="M252.94,180.57a19.51,19.51,0,0,1-4.43,3.23,3.24,3.24,0,0,0,2.23,1.59Z" style="fill:#de5753"></path><path d="M250.23,176a.34.34,0,0,0,.31.14,2.66,2.66,0,0,1,2.26.73.33.33,0,0,0,.5-.42h0a3.27,3.27,0,0,0-2.84-1,.33.33,0,0,0-.29.36h0A.34.34,0,0,0,250.23,176Z" style="fill:#263238"></path><path d="M259.17,180.35a.46.46,0,0,0,.2,0,.33.33,0,0,0,.16-.44h0A3.24,3.24,0,0,0,257.2,178a.31.31,0,0,0-.37.27h0a.33.33,0,0,0,.28.37h0a2.67,2.67,0,0,1,1.82,1.53A.35.35,0,0,0,259.17,180.35Z" style="fill:#263238"></path><path d="M266.27,174.84l-1.73,2.52a2.26,2.26,0,0,1-.3,3c-2.05,1.81-2.58,6-1.57,8.29,0,0,.56-1,1.27-.3s-2.18,5.65-5.05,7.25c0,0,3.58-.93,7.74-5.58,3.85-4.29,6.15-8.34,6.13-10.79Z" style="fill:#263238"></path><path d="M267.64,191.12a6.6,6.6,0,0,1-4.79,1.44c-2.28-.25-2.58-2.5-1.24-4.21,1.21-1.51,3.86-3.27,5.81-2.14A2.92,2.92,0,0,1,267.64,191.12Z" style="fill:#e4897b"></path><path d="M272.55,180.73s2.46-3.2-1.72-8.81-11.9-5.54-14.42-9.81-7.62,5.47-.21,10.61A70.57,70.57,0,0,0,272.55,180.73Z" style="fill:#263238"></path><path d="M250.36,187.36a20.21,20.21,0,0,1,1,2.8c.17,0,.35,0,.52-.06,2.36-.29,3.35-1.2,3.75-2.12a3,3,0,0,0,.2-1.43,2.7,2.7,0,0,0-.17-.81,11.17,11.17,0,0,1-4.5,1.51C250.67,187.33,250.36,187.36,250.36,187.36Z" style="fill:#263238"></path><path d="M251.16,187.25l.32.82c2.21-.28,3.74-.77,4.35-1.52a2.7,2.7,0,0,0-.17-.81A11.17,11.17,0,0,1,251.16,187.25Z" style="fill:#fff"></path><path d="M251.88,190.1c2.36-.29,3.35-1.2,3.75-2.12a7.62,7.62,0,0,0-2.56.84A2.87,2.87,0,0,0,251.88,190.1Z" style="fill:#de5753"></path><path d="M268.3,190.11c-1.24,2.42-3.52,3.72-5.1,2.91s-1.84-3.42-.61-5.83,3.52-3.72,5.1-2.91S269.54,187.7,268.3,190.11Z"></path><path d="M268.67,190.3c-.91,1.77-2.59,2.73-3.74,2.14s-1.36-2.51-.45-4.29,2.58-2.72,3.74-2.13S269.58,188.53,268.67,190.3Z" style="fill:#407BFF"></path><path d="M266.81,186s6.77-14.31-2.31-18.76l.34-.32a8.55,8.55,0,0,1,4.46,3.36c1.86,2.71,3.46,6.46-1.16,16.27Z" style="fill:#407BFF"></path><path d="M249.77,205.78l.71,4.72s-4.45,9.74-11.35,10.22-14.58,8.33-14.58,8.33l.22,4.4,3.39-.68a13.05,13.05,0,0,1,9.05-8.41c7.35-2.09,13.8-7.8,14.64-13.19l5.26-2.87L253.93,206Z" style="fill:#263238"></path><polygon points="262.96 202.17 254.24 205.15 252.08 201.45 246.9 202.58 247.85 208.86 253.65 206.65 256.9 211.5 266.33 205.14 262.96 202.17" style="fill:#407BFF"></polygon><polygon points="262.96 202.17 254.24 205.15 252.08 201.45 246.9 202.58 247.85 208.86 253.65 206.65 256.9 211.5 266.33 205.14 262.96 202.17" style="fill:#fff;opacity:0.6000000000000001"></polygon><path d="M276,215.08c-.91,3.18-2,7.14-3.17,11.61-4.17-5.88-.44-14.43-.44-14.43A8.25,8.25,0,0,1,276,215.08Z" style="opacity:0.2;isolation:isolate"></path><path d="M289.54,219.62l-5.2,4.5a11.51,11.51,0,0,0-2.7,1c-.38.38-2,9.73-1.54,9.92s5,2.69,5.59,2.41,2.31-8.19,2.31-8.19l-.77-1.7,4.09-4Z" style="fill:#e4897b"></path><path d="M272.76,206.53s29.53-6.71,32.61,0-16.31,19.93-16.31,19.93l-4-3.92s9.24-7.09,8-9.1-18.34,6.18-18.34,6.18S271.23,212.67,272.76,206.53Z" style="fill:#407BFF"></path><path d="M272.76,206.53s29.53-6.71,32.61,0-16.31,19.93-16.31,19.93l-4-3.92s9.24-7.09,8-9.1-18.34,6.18-18.34,6.18S271.23,212.67,272.76,206.53Z" style="fill:#fff;opacity:0.4"></path></g></g><g id="freepik--character-1--inject-159"><g id="freepik--group--inject-159"><polygon points="173.9 194.71 184.18 197.4 174.78 204.72 170.36 198.46 173.9 194.71" style="fill:#263238"></polygon><path d="M145.61,200.63s-3.92-.47-4.13.21-.54,6.45-.1,7.32a12.22,12.22,0,0,0,1.76,2.17l-3.77,8.27,4.6,3,3.08-9.12s2.65-2.1,2.25-5.16S145.61,200.63,145.61,200.63Z" style="fill:#eec1bb"></path><path d="M145.61,200.63s-3.92-.47-4.13.21-.54,6.45-.1,7.32a12.22,12.22,0,0,0,1.76,2.17l-3.77,8.27,4.6,3,3.08-9.12s2.65-2.1,2.25-5.16S145.61,200.63,145.61,200.63Z" style="opacity:0.2;isolation:isolate"></path><path d="M159.15,196.88c-3.25.33-13.85,21.8-13.85,21.8l-6.55-3.33s-8.48,12.79-3.66,17.65,22.37-13.61,22.37-13.61Z" style="fill:#263238"></path><path d="M189.13,412.16h8.78a.64.64,0,0,1,.62.5L200,419.1a1.05,1.05,0,0,1-.82,1.26l-.23,0c-2.85-.05-4.92-.22-8.49-.22-2.2,0-8.83.23-11.86.23s-3.44-3-2.19-3.28c5.57-1.21,9.77-2.9,11.55-4.5A1.77,1.77,0,0,1,189.13,412.16Z" style="fill:#263238"></path><path d="M151.87,411.93h8.78a.64.64,0,0,1,.62.5l1.43,6.44a1.07,1.07,0,0,1-.83,1.26.91.91,0,0,1-.23,0c-2.85-.05-4.92-.22-8.48-.22-2.2,0-8.84.23-11.87.23s-3.43-3-2.19-3.28c5.57-1.21,9.77-2.9,11.55-4.5A1.77,1.77,0,0,1,151.87,411.93Z" style="fill:#263238"></path><path d="M193.78,249.31H155.4c-3.65,19.92-15.07,100.85-6.88,163.69h13s-1.21-95.43,10.27-126.27c1.32,16.5,14.73,126.2,14.73,126.2h13.23s-2-41.27-3.95-80.25C194.55,308.14,193.84,254.35,193.78,249.31Z" style="fill:#407BFF"></path><path d="M171.78,286.73a102.41,102.41,0,0,0-4.28,16.6c-1.08-14.68,3.22-30.26,3.22-30.26Z" style="opacity:0.2;isolation:isolate"></path><polygon points="155.08 249.77 193.72 249.77 193.72 254.37 154.59 253.89 155.08 249.77"></polygon><rect x="179.92" y="247.7" width="1.38" height="8.16" style="fill:#407BFF"></rect><rect x="160.37" y="247.7" width="1.38" height="8.16" style="fill:#407BFF"></rect><rect x="165.54" y="248.96" width="7.15" height="5.15" style="fill:#fff"></rect><path d="M199.71,196.88c-.27,2.32-.58,5-.91,7.84-.22,1.82-.44,3.73-.68,5.73-.36,3.11-.74,6.42-1.14,9.88-.1.89-.21,1.79-.31,2.71-1,8.46-2,17.64-2.95,26.72H155.08s-2.94-27.76,4.07-52.88Z" style="fill:#263238"></path><path d="M198.8,204.72c-.22,1.82-.44,3.73-.68,5.73-.36,3.11-.74,6.42-1.14,9.88a63.25,63.25,0,0,1-.76-13Z" style="opacity:0.2;isolation:isolate"></path><path d="M172,196.76s15.92.22,15.53,0-15.91,13.4-15.91,13.4l-1.9-9.69Z" style="fill:#fff"></path><path d="M199.71,196.88c-.27,2.32-.58,5-.91,7.84-.22,1.82-.44,3.73-.68,5.73-.36,3.11-.74,6.42-1.14,9.88-.1.89-.21,1.79-.31,2.71-1,8.46-2,17.64-2.95,26.72H155.08s-2.94-27.76,4.07-52.88Z" style="fill:#fff;opacity:0.1"></path><path d="M185.51,197.54c-2.61,3.65-10.79,4.27-10.79,4.27s-3.49-1.19-2.79-3c2.82-1.11,2.18-1.87,2.39-3.74a8.86,8.86,0,0,0-.42-3.41c-.18-.61-.41-1.21-.65-1.81l8.26-9.4C181.26,185.57,181.58,194.74,185.51,197.54Z" style="fill:#eec1bb"></path><path d="M180.23,185.6c.89,6-3.61,8.65-5.91,9.5a8.86,8.86,0,0,0-.42-3.41Z" style="opacity:0.2;isolation:isolate"></path><path d="M159.24,170.35s0,9.66,5.56,12.52,2.88-14.69,2.88-14.69Z" style="fill:#263238"></path><path d="M180.47,188.16a8.65,8.65,0,0,1-9.32,4.81,9.66,9.66,0,0,1-6.12-3.6c-.21-.26-.4-.55-.59-.84-3.34-5.39-5.66-15.35-.14-20.06a9.38,9.38,0,0,1,15.24,4.84C181.32,179.93,182.67,183.74,180.47,188.16Z" style="fill:#eec1bb"></path><path d="M170.26,178.4a.87.87,0,0,1-.31,1.17c-.35.11-.77-.23-.95-.76s0-1.05.32-1.16S170.08,177.87,170.26,178.4Z" style="fill:#263238"></path><path d="M164.27,180.39a.86.86,0,0,1-.31,1.16c-.35.12-.77-.22-1-.75s0-1.05.31-1.17S164.1,179.89,164.27,180.39Z" style="fill:#263238"></path><path d="M166.26,180a19.64,19.64,0,0,1-1,5.37,3.24,3.24,0,0,0,2.71-.37Z" style="fill:#d4827d"></path><path d="M161.26,178.65a.34.34,0,0,0,.32-.13,2.63,2.63,0,0,1,2.07-1.15.33.33,0,0,0,0-.66h0a3.28,3.28,0,0,0-2.63,1.42.33.33,0,0,0,.06.46h0A.35.35,0,0,0,161.26,178.65Z" style="fill:#263238"></path><path d="M170.65,175.63a.33.33,0,0,0,.16-.12.33.33,0,0,0-.17-.43h0a3.26,3.26,0,0,0-3,.17.33.33,0,0,0-.08.46h0a.33.33,0,0,0,.45.08h0a2.67,2.67,0,0,1,2.37-.1A.32.32,0,0,0,170.65,175.63Z" style="fill:#263238"></path><path d="M172.07,166.77l-.22,1.41c2.38.1,2.65,2.76,2.54,4-.26,2.71,2.19,6.12,4.49,7.11,0,0-.24-1.08.73-1.08s2.26,5.6,1.25,8.72c0,0,2-3.12,1.85-9.34-.12-5.75-1.2-10.27-2.88-12Z" style="fill:#263238"></path><path d="M184.16,177.7a6.55,6.55,0,0,1-2.52,4.31c-1.83,1.37-3.57-.07-3.76-2.23-.15-1.92.59-5,2.77-5.51A2.92,2.92,0,0,1,184.16,177.7Z" style="fill:#eec1bb"></path><path d="M168.87,187a21.31,21.31,0,0,1,2.31,1.87l.41-.32c1.87-1.46,2.25-2.76,2.11-3.75a3,3,0,0,0-.57-1.33,2.9,2.9,0,0,0-.56-.61,11.13,11.13,0,0,1-3.07,3.63C169.12,186.79,168.87,187,168.87,187Z" style="fill:#263238"></path><path d="M169.5,186.47l.69.54c1.76-1.39,2.81-2.6,2.94-3.56a2.9,2.9,0,0,0-.56-.61A11.13,11.13,0,0,1,169.5,186.47Z" style="fill:#fff"></path><path d="M171.59,188.53c1.87-1.46,2.25-2.76,2.11-3.75a7.48,7.48,0,0,0-1.75,2A2.83,2.83,0,0,0,171.59,188.53Z" style="fill:#de5753"></path><path d="M181.89,169.3s.77-6.29-7.44-8.67S159.74,164,159.17,167c0,0-4.09,3.21.37,6.65l1.87-3.82S169.93,175.26,181.89,169.3Z" style="fill:#263238"></path><path d="M154.25,206.72a.59.59,0,0,1-.45.79L147.22,209a.79.79,0,0,1-.89-.49L142,195.8a.67.67,0,0,1,.43-.88l6.58-1.46a.88.88,0,0,1,.91.59Z" style="fill:#263238"></path><path d="M149.17,194.13l4.38,12.78a.51.51,0,0,1-.38.74l-5.58,1.23c-.37.08-1.11,0-1.23-.33L142,195.72c-.13-.36.44-.8.82-.88l5.58-1.24A.71.71,0,0,1,149.17,194.13Z" style="fill:#fff;opacity:0.5"></path><path d="M163.74,214.46l-4.17-5s-3.12-7.41-3.76-8.11-6.76,1.49-7.45,1.64,1.75,7.76,2.65,8.36,3.63.48,3.63.48l5.59,7.21Z" style="fill:#eec1bb"></path><path d="M162.94,212.52l-5.48,6.87s14.33,13.08,21.22,16.35,20.95-19.28,22.88-23.71,2.09-13.75-1.85-15.15-19.45,26-21,26.44S162.94,212.52,162.94,212.52Z" style="fill:#263238"></path><path d="M190.19,196.76l-3.47-3.67L176.61,200l.67,4.05-5.43,5.5-1.49-6.85,1.57-3.86,2-4.14-6.73,3.47-1.63,4.05,3.58-1.75s2.3,11,2.73,10.54l8.5-8.31,2.36,1.54Z" style="fill:#263238"></path></g></g></svg>