<svg xmlns="http://www.w3.org/2000/svg" xmlns:xlink="http://www.w3.org/1999/xlink" viewBox="0 0 500 500"><defs><clipPath id="freepik--clip-path--inject-145"><path d="M381.69,421.18c6-2.44,13.16-11,8.23-20.88s1.5-15.64-1.51-22.67S378,375,375.47,383.72s-3,12.62-5.55,16.33C363.71,408.9,370.92,425.59,381.69,421.18Z" style="fill:#407BFF;stroke:#263238;stroke-linecap:round;stroke-linejoin:round"></path></clipPath><clipPath id="freepik--clip-path-2--inject-145"><path d="M393.24,426.06c8.2.41,21.16-5.59,20.82-19.65s10.2-17.24,10.53-27-10.63-8.65-18.24,0-10.24,13-15.25,15.85C379.14,402.14,378.43,425.31,393.24,426.06Z" style="fill:#407BFF;stroke:#263238;stroke-linecap:round;stroke-linejoin:round"></path></clipPath><clipPath id="freepik--clip-path-3--inject-145"><path d="M250.67,444.91c5.61.8,14.9-2.49,15.56-12.18s8.11-11.19,9-17.87-6.76-6.62-12.54-1.15-7.86,8.26-11.48,9.92C242.51,427.58,240.55,443.45,250.67,444.91Z" style="fill:#407BFF;stroke:#263238;stroke-linecap:round;stroke-linejoin:round"></path></clipPath><clipPath id="freepik--clip-path-4--inject-145"><rect x="144.75" y="151.47" width="272.87" height="191.91" style="fill:#407BFF;stroke:#263238;stroke-linecap:round;stroke-linejoin:round"></rect></clipPath><clipPath id="freepik--clip-path-5--inject-145"><path d="M417.62,264.32v79.05H144.75v-144h10.9s35.3-11,38.28-12.64a3.83,3.83,0,0,1,1.56-.23c7.34-.09,35.25,6,39,5.46,4.14-.66,8.88-4,10.07-3.69,1,.22,8,6.67,11.22,9.78.59.57,1,1,1.32,1.32,1.7,1.82,7.64,1.8,11.2,1.62a6.11,6.11,0,0,1,1.6.18c4.18.91,11.38,5,12.34,5.28a5.39,5.39,0,0,1,1.25,1c3.08,2.88,10.46,11,10.46,11s5.35,6.61,9.59,7.28l.41.05c2.39.17,7.65,1.34,12.45,2.31,3.82.77,7.34,1.42,8.9,1.34,2.28-.13,4.6-1.65,6.59-2a2.91,2.91,0,0,1,2.92,1c1.48,1.76,7.63,5.57,12.41,8.56a63.19,63.19,0,0,1,5.74,3.84c2,1.84,4.23,5.94,10.42,6.06a7.6,7.6,0,0,0,.84,0,3.41,3.41,0,0,0,2.61-.93l.1-.12c.31-.45.28-.85.58-.71a13.6,13.6,0,0,1,2.06,1.91c4.35,4.36,29.28,21.44,36,17.85a12.18,12.18,0,0,1,5-1.34A22.31,22.31,0,0,1,417.62,264.32Z" style="fill:#bfbfbf;stroke:#263238;stroke-linecap:round;stroke-linejoin:round"></path></clipPath><clipPath id="freepik--clip-path-6--inject-145"><path d="M398.93,343.37H193.48a61,61,0,0,1,12.61-12.32,27.29,27.29,0,0,1,2.81-1.62,159.06,159.06,0,0,1,17.54-7c3.67-1.28,7.34-2.49,10.61-3.54,6.63-2.13,11.62-3.6,11.62-3.6s-2.16-24.76-5.66-42.39c-1.54-7.8-3.35-14.21-5.36-16.45s-6.78-3.84-12.34-4.88c-12.23-2.28-28.39-2.11-28.39-2.11s-5-22.53-8.9-33.87a21.89,21.89,0,0,0-2.67-5.9c-1.24-1.45-6.62-3.1-13.22-4.65-9.55-2.24-21.64-4.28-27.38-5.2v-.7c10.09-.54,41.25-2.07,64.09-1.62,13.45.26,24,1.2,25.68,3.42s3.39,7.24,4.79,12.69c2.64,10.42,4.4,22.8,4.4,22.8s19.92.93,34.15,4.12c6.85,1.54,12.38,3.61,13.73,6.35,1,2.07,2.05,6.79,3,12.74,3,18.4,5.48,48.6,5.48,48.6s11.43,1.06,26.53,3.61c3.26.55,6.69,1.17,10.21,1.86,4.19.82,8.51,1.75,12.83,2.79a179.54,179.54,0,0,1,27,8.47C388.2,329.82,396.93,335.88,398.93,343.37Z" style="fill:#407BFF;stroke:#263238;stroke-linecap:round;stroke-linejoin:round"></path></clipPath><clipPath id="freepik--clip-path-7--inject-145"><path d="M197.24,249.51s-2.51.41-2.51-1.86,3.17.65,6.12-.88,4.08-4,5.9-3.36,2.59,5.2,6.74,1.76,9.83-7.69,10.39-5,4.48,1.64,7.73-.54,8.51-4.89,8.72-3.33.66,2.5,3.38.15,7.93-4,9.31-1.7c0,0,13,2.14,6.28,2.83s-9.89.41-9.22,2.52-10.33,2.68-13.11,3.22-1.35,3.47-5.36,3.44-12.68-.39-12.76.63S206.11,250.76,197.24,249.51Z" style="fill:#407BFF;stroke:#263238;stroke-linecap:round;stroke-linejoin:round"></path></clipPath><clipPath id="freepik--clip-path-8--inject-145"><path d="M248.67,315.3s-4.1-.15-2.32-2.87,4.05,1.31,6.38,1.29,4.3-.14,7.67-3.34,3.56.77,5.34,2.05,6.1.76,8-2.05,5.84-4.94,8.52-2.49,7.51,1.2,9.34-1.54S296,307,296,307s6.23-5.2,8-4.09-2.22,4.09-2.22,4.09,8.25-1.26,6.4,1.53-11.32,2.62-13,3.9-2.26,5.82-8.21,4-7.91-1.75-11.48.41-6.74,2.13-9.9.47-8.42,1.11-12.81,1.2S245.05,318.68,248.67,315.3Z" style="fill:#407BFF;stroke:#263238;stroke-linecap:round;stroke-linejoin:round"></path></clipPath><clipPath id="freepik--clip-path-9--inject-145"><path d="M195.51,102.87s-1.71-6.85-5.27-8.11-8.31-1-9.43-2.5-.14,5.41,5.21,10.22,9.49,5.21,9.49,5.47Z" style="fill:#407BFF;stroke:#263238;stroke-linecap:round;stroke-linejoin:round"></path></clipPath><clipPath id="freepik--clip-path-10--inject-145"><path d="M305.51,139.61s-1.74-4.8-9.31-2.72-9.95,7-9.95,7,7.52,1.71,10.68.52,10.55-.13,10.55-.13Z" style="fill:#407BFF;stroke:#263238;stroke-linecap:round;stroke-linejoin:round"></path></clipPath></defs><g id="freepik--background-simple--inject-145"><path d="M441.32,200.46c-18.19-20.12-48.67-22.37-72.37-35.56-40.79-22.7-56.61-74.39-93.71-102.71-23.44-17.88-55.1-24.81-83.41-20.89-40.19,5.56-78,32.5-89.36,72A99.81,99.81,0,0,0,99,148.67c1.82,23.55,6.89,47.4,2.11,70.53-5.27,25.5-21.86,47-31.77,71.09-12.33,30-14,63.61-8.76,95.58,3.6,21.82,10.78,43.85,25.76,60.11,1.13,1.23,2.31,2.4,3.52,3.55h163.6c10.27-13.09,18.05-28.58,27.08-42.32,22.72-34.59,59.09-59.25,98.83-70.81,17.8-5.18,37.08-8.27,51.38-20.06,14.72-12.14,21.48-31.5,24.4-50.35C458.73,243.17,456.81,217.59,441.32,200.46Z" style="fill:#407BFF"></path><path d="M441.32,200.46c-18.19-20.12-48.67-22.37-72.37-35.56-40.79-22.7-56.61-74.39-93.71-102.71-23.44-17.88-55.1-24.81-83.41-20.89-40.19,5.56-78,32.5-89.36,72A99.81,99.81,0,0,0,99,148.67c1.82,23.55,6.89,47.4,2.11,70.53-5.27,25.5-21.86,47-31.77,71.09-12.33,30-14,63.61-8.76,95.58,3.6,21.82,10.78,43.85,25.76,60.11,1.13,1.23,2.31,2.4,3.52,3.55h163.6c10.27-13.09,18.05-28.58,27.08-42.32,22.72-34.59,59.09-59.25,98.83-70.81,17.8-5.18,37.08-8.27,51.38-20.06,14.72-12.14,21.48-31.5,24.4-50.35C458.73,243.17,456.81,217.59,441.32,200.46Z" style="fill:#fff;opacity:0.7000000000000001"></path></g><g id="freepik--Device--inject-145"><path d="M387.85,411.48s10.85,9.54,5,18.41C392.82,429.89,377.12,426.53,387.85,411.48Z" style="fill:#263238"></path><path d="M409.08,430.66s13-3.89,20,8.36C429.11,439,414.87,444.8,409.08,430.66Z" style="fill:#263238"></path><path d="M445.62,415.11s-10.68,18.14-22.48,2.11C423.14,417.22,437.2,408.53,445.62,415.11Z" style="fill:#263238"></path><path d="M433.87,391.77s7.2,15.53-9.06,18.76C424.81,410.53,421.63,397.16,433.87,391.77Z" style="fill:#263238"></path><path d="M407.83,395.64s14.1,8.49,5,20.63C412.85,416.27,399.35,407,407.83,395.64Z" style="fill:#263238"></path><path d="M387.28,445.32s1.55-11,16.85-19.45,25.29-17.79,28-27.62" style="fill:none;stroke:#263238;stroke-linecap:round;stroke-linejoin:round"></path><path d="M409.69,402.13s5.53,9,2.14,19.1" style="fill:none;stroke:#263238;stroke-linecap:round;stroke-linejoin:round"></path><path d="M436.46,418.71s-9.17,2.79-16.37-3.64" style="fill:none;stroke:#263238;stroke-linecap:round;stroke-linejoin:round"></path><path d="M422.75,437s-15.3-5.79-19.41-10.71" style="fill:none;stroke:#263238;stroke-linecap:round;stroke-linejoin:round"></path><path d="M388.74,418.13s.86,9.95,6.59,14.09" style="fill:none;stroke:#263238;stroke-linecap:round;stroke-linejoin:round"></path><path d="M427.53,407.26a27.19,27.19,0,0,0,4.56-9" style="fill:none;stroke:#fff;stroke-linecap:round;stroke-linejoin:round"></path><path d="M409.69,402.13a24.8,24.8,0,0,1,3.24,11.95" style="fill:none;stroke:#fff;stroke-linecap:round;stroke-linejoin:round"></path><path d="M436.46,418.71a18.78,18.78,0,0,1-9.73,0" style="fill:none;stroke:#fff;stroke-linecap:round;stroke-linejoin:round"></path><path d="M422.75,437a104.86,104.86,0,0,1-11-4.91" style="fill:none;stroke:#fff;stroke-linecap:round;stroke-linejoin:round"></path><path d="M388.74,418.13a29,29,0,0,0,2.61,9.27" style="fill:none;stroke:#fff;stroke-linecap:round;stroke-linejoin:round"></path><path d="M243.21,402.06s11.21,6.17,7.82,15C251,417,236.81,417.13,243.21,402.06Z" style="fill:#263238"></path><path d="M265.24,414.58s10.47-5.84,18.92,3.4C284.16,418,273,425.7,265.24,414.58Z" style="fill:#263238"></path><path d="M293.87,394.14s-5.77,17.73-19,6.13C274.83,400.27,285.32,390.06,293.87,394.14Z" style="fill:#263238"></path><path d="M279.24,376.21s9.2,12.05-4.24,18C275,394.17,269.68,383.21,279.24,376.21Z" style="fill:#263238"></path><path d="M257.46,384.54s13.82,4.64,8.29,16.88C265.75,401.42,252.29,396,257.46,384.54Z" style="fill:#263238"></path><path d="M249,432.56s-.6-10.9,11-21.17,18.47-20.23,18.9-29.24" style="fill:none;stroke:#263238;stroke-linecap:round;stroke-linejoin:round"></path><path d="M260.31,389.79s6.5,6.73,5.51,16.11" style="fill:none;stroke:#263238;stroke-linecap:round;stroke-linejoin:round"></path><path d="M286.63,399s-7.39,4.17-14.85,0" style="fill:none;stroke:#263238;stroke-linecap:round;stroke-linejoin:round"></path><path d="M278.28,417.49s-14.33-2.08-18.83-5.55" style="fill:none;stroke:#263238;stroke-linecap:round;stroke-linejoin:round"></path><path d="M245.26,407.64s2.58,8.68,8.32,11.16" style="fill:none;stroke:#263238;stroke-linecap:round;stroke-linejoin:round"></path><path d="M276.72,390.82a24,24,0,0,0,2.22-8.67" style="fill:none;stroke:#fff;stroke-linecap:round;stroke-linejoin:round"></path><path d="M260.31,389.79a22,22,0,0,1,5.09,9.72" style="fill:none;stroke:#fff;stroke-linecap:round;stroke-linejoin:round"></path><path d="M286.63,399a16.71,16.71,0,0,1-8.42,1.83" style="fill:none;stroke:#fff;stroke-linecap:round;stroke-linejoin:round"></path><path d="M278.28,417.49a95.2,95.2,0,0,1-10.44-2.15" style="fill:none;stroke:#fff;stroke-linecap:round;stroke-linejoin:round"></path><path d="M245.26,407.64a25.64,25.64,0,0,0,4,7.52" style="fill:none;stroke:#fff;stroke-linecap:round;stroke-linejoin:round"></path><path d="M242.31,436.62s-14.06-13.31-23-29.19-15.75-12.73-14.78-7.08,10.91,18.48,10.91,18.48-11.94-11.38-19.4-16c-10.92-6.74-20.1-11.13-22.37-5.48-2.62,6.53,22.9,13.6,42.07,31.17,0,0-16.79-1.37-28.44-6.15s-12.28,4.86-1.87,9.16,21.83-.79,33.83,2.93c0,0-18.82,3.44-17.42,10.1.79,3.76,6.29-.11,9-1.54,13.22-6.89,28.17,0,28.17,0Z" style="fill:#407BFF;stroke:#263238;stroke-linecap:round;stroke-linejoin:round"></path><path d="M242.31,436.62s-14.06-13.31-23-29.19-15.75-12.73-14.78-7.08,10.91,18.48,10.91,18.48-11.94-11.38-19.4-16c-10.92-6.74-20.1-11.13-22.37-5.48-2.62,6.53,22.9,13.6,42.07,31.17,0,0-16.79-1.37-28.44-6.15s-12.28,4.86-1.87,9.16,21.83-.79,33.83,2.93c0,0-18.82,3.44-17.42,10.1.79,3.76,6.29-.11,9-1.54,13.22-6.89,28.17,0,28.17,0Z" style="fill-opacity:0.7000000000000001;stroke:#263238;stroke-linecap:round;stroke-linejoin:round;opacity:0.2"></path><path d="M248.37,444s-4.07-19.75.75-37.32-1.87-17.9-5.15-13.2-3.06,26.5-3.06,26.5-6.26-18.62-6.67-32.08-1.63-20.89-7.09-20.08c-7,1-.51,33.18,8,51.75,0,0-11-12.79-15.9-24.38s-12.15-5.17-7.77,5.2,16.08,14.79,22,25.88c0,0-15.81-10.79-19.49-5.07-2.08,3.23,4.55,4.34,7.49,5.25,14.25,4.39,20,19.81,20,19.81Z" style="fill:#407BFF;stroke:#263238;stroke-linecap:round;stroke-linejoin:round"></path><path d="M245.32,406.36c-4.1,14.83-1.43,35.19-1.43,35.19s-14.12-39.13-14.61-56.43" style="fill:none;stroke:#263238;stroke-linecap:round;stroke-linejoin:round"></path><path d="M217.46,402.32s11.9,17.77,21.28,23.87" style="fill:none;stroke:#263238;stroke-linecap:round;stroke-linejoin:round"></path><path d="M220.52,422.92S237.3,430.49,242,436" style="fill:none;stroke:#263238;stroke-linecap:round;stroke-linejoin:round"></path><path d="M381.69,421.18c6-2.44,13.16-11,8.23-20.88s1.5-15.64-1.51-22.67S378,375,375.47,383.72s-3,12.62-5.55,16.33C363.71,408.9,370.92,425.59,381.69,421.18Z" style="fill:#407BFF"></path><g style="clip-path:url(#freepik--clip-path--inject-145)"><path d="M378.22,421.91a9.29,9.29,0,0,0,3.46-.72c6-2.45,13.17-11,8.24-20.89s1.5-15.64-1.51-22.67c-1-2.22-2.34-3.3-3.88-3.45-3.33-.36-7.34,3.6-9.06,9.54-2.51,8.69-3,12.62-5.55,16.33C364.41,407.91,369.48,422,378.22,421.91Z" style="opacity:0.2"></path><path d="M378.22,421.91c-2.07-28.61,4-43.27,6.31-47.73-3.33-.36-7.34,3.6-9.06,9.54-2.51,8.69-3,12.62-5.55,16.33C364.41,407.91,369.48,422,378.22,421.91Z" style="opacity:0.2"></path></g><path d="M381.69,421.18c6-2.44,13.16-11,8.23-20.88s1.5-15.64-1.51-22.67S378,375,375.47,383.72s-3,12.62-5.55,16.33C363.71,408.9,370.92,425.59,381.69,421.18Z" style="fill:none;stroke:#263238;stroke-linecap:round;stroke-linejoin:round"></path><path d="M382.18,379c-5,15.24-7.8,44.9,2.06,66.43" style="fill:none;stroke:#263238;stroke-linecap:round;stroke-linejoin:round"></path><path d="M385.41,388.66s-4.8,3.38-6.74,6.75c0,0-2.84-5-3.38-7" style="fill:none;stroke:#263238;stroke-linecap:round;stroke-linejoin:round"></path><path d="M387.14,400.53s-6.84,2.89-9.32,7.91c0,0-4.55-5.07-5.45-8.11" style="fill:none;stroke:#263238;stroke-linecap:round;stroke-linejoin:round"></path><path d="M387.21,410.36s-6.92,4.22-9.3,7.66c0,0-4.92-3.46-7-6.45" style="fill:none;stroke:#263238;stroke-linecap:round;stroke-linejoin:round"></path><path d="M393.24,426.06c8.2.41,21.16-5.59,20.82-19.65s10.2-17.24,10.53-27-10.63-8.65-18.24,0-10.24,13-15.25,15.85C379.14,402.14,378.43,425.31,393.24,426.06Z" style="fill:#407BFF"></path><g style="clip-path:url(#freepik--clip-path-2--inject-145)"><path d="M388.84,425c13.11-34.15,28-47.79,33.15-51.69-3.66-2.21-10.43.18-15.64,6.11-7.61,8.67-10.24,13-15.25,15.85C380.48,401.38,378.72,420.34,388.84,425Z" style="opacity:0.2"></path></g><path d="M393.24,426.06c8.2.41,21.16-5.59,20.82-19.65s10.2-17.24,10.53-27-10.63-8.65-18.24,0-10.24,13-15.25,15.85C379.14,402.14,378.43,425.31,393.24,426.06Z" style="fill:none;stroke:#263238;stroke-linecap:round;stroke-linejoin:round"></path><path d="M416.64,377.65c-12.8,13.64-30.06,42.16-33.13,70" style="fill:none;stroke:#263238;stroke-linecap:round;stroke-linejoin:round"></path><path d="M415.15,390.53s-7.37,1.3-11.44,4.14c0,0-.59-7.26-.08-10" style="fill:none;stroke:#263238;stroke-linecap:round;stroke-linejoin:round"></path><path d="M410.72,405.17s-9.46-.37-15.05,4.08c0,0-2.5-8.32-1.89-12.31" style="fill:none;stroke:#263238;stroke-linecap:round;stroke-linejoin:round"></path><path d="M405.48,416.56s-10.28,1.12-14.89,3.8c0,0-3.8-6.65-4.63-11.25" style="fill:none;stroke:#263238;stroke-linecap:round;stroke-linejoin:round"></path><path d="M250.67,444.91c5.61.8,14.9-2.49,15.56-12.18s8.11-11.19,9-17.87-6.76-6.62-12.54-1.15-7.86,8.26-11.48,9.92C242.51,427.58,240.55,443.45,250.67,444.91Z" style="fill:#407BFF"></path><g style="clip-path:url(#freepik--clip-path-3--inject-145)"><path d="M247.72,443.91a8,8,0,0,0,2.95,1c5.62.8,14.91-2.5,15.56-12.18s8.11-11.2,9-17.87c.26-2.11-.31-3.55-1.4-4.35-2.37-1.75-7.18-.54-11.13,3.2-5.79,5.48-7.87,8.26-11.49,9.92C243.48,427.14,241.07,440.05,247.72,443.91Z" style="opacity:0.4"></path><path d="M247.72,443.91c11.18-22.63,22.31-31.05,26.07-33.4-2.37-1.75-7.18-.54-11.13,3.2-5.79,5.48-7.87,8.26-11.49,9.92C243.48,427.14,241.07,440.05,247.72,443.91Z" style="opacity:0.2"></path></g><path d="M250.67,444.91c5.61.8,14.9-2.49,15.56-12.18s8.11-11.19,9-17.87-6.76-6.62-12.54-1.15-7.86,8.26-11.48,9.92C242.51,427.58,240.55,443.45,250.67,444.91Z" style="fill:none;stroke:#263238;stroke-linecap:round;stroke-linejoin:round"></path><path d="M269.84,413.14c-9.25,8.21-16.67,19-21.87,30.19" style="fill:none;stroke:#263238;stroke-linecap:round;stroke-linejoin:round"></path><path d="M268,421.89s-5.14.43-8.12,2.11a41.58,41.58,0,0,1,.58-6.85" style="fill:none;stroke:#263238;stroke-linecap:round;stroke-linejoin:round"></path><path d="M264,431.67s-6.48-.86-10.6,1.84c0,0-1.19-5.87-.52-8.58" style="fill:none;stroke:#263238;stroke-linecap:round;stroke-linejoin:round"></path><path d="M259.69,439.16s-7.13.11-10.47,1.66c0,0-2.19-4.81-2.46-8" style="fill:none;stroke:#263238;stroke-linecap:round;stroke-linejoin:round"></path><path d="M382.37,449.53H229.93v-4.86a4.27,4.27,0,0,1,4.27-4.27h51.57a8.25,8.25,0,0,0,8.08-9.9L270.8,317.61h59.35L390.09,437A8.63,8.63,0,0,1,382.37,449.53Z" style="fill:#757575;stroke:#263238;stroke-linecap:round;stroke-linejoin:round"></path><path d="M293.85,430.5,270.8,317.61h52.91l55.68,116.56a4.35,4.35,0,0,1-3.92,6.23h-89.7A8.25,8.25,0,0,0,293.85,430.5Z" style="fill:#999;stroke:#263238;stroke-linecap:round;stroke-linejoin:round"></path><rect x="144.95" y="143.84" width="288.51" height="223.17" rx="5.95" style="fill:#999;stroke:#263238;stroke-linecap:round;stroke-linejoin:round"></rect><rect x="136.93" y="143.84" width="288.51" height="223.17" rx="5.95" style="fill:#bfbfbf;stroke:#263238;stroke-linecap:round;stroke-linejoin:round"></rect><rect x="144.75" y="151.47" width="272.87" height="191.91" style="fill:#407BFF"></rect><g style="clip-path:url(#freepik--clip-path-4--inject-145)"><rect x="144.75" y="151.47" width="272.87" height="191.91" style="fill:#fff;opacity:0.7000000000000001"></rect><path d="M417.85,329.73V161.43c-1.57-.36-2.92-.7-3.3-.76-.92-.13-6.2-4.62-11.25-3.47S392,162.32,392,162.32l-61.19,4h54.52l-9.55,3.2s-3.86,3.19-4.95,3.91-7.48,6.57-7.48,6.57-8.44,3.79-12.91,6.5-2.08,4-7,5.46-20.57-4.61-21.36-5.46-10.29.06-14.54,1.1-11.49,6.77-11.49,6.77H241.41l15-4.43s6.33-.22,7.18-3.44,7.18-4.38,7.18-4.38L323.69,180l-31.43-2.22a33.46,33.46,0,0,1-3.38-4.35c-1.58-2.44-4.75-2.3-8.27-3.91s-6.76.42-13.09,3.91-6.29,4.46-6.29,4.46-26.15,1.94-31.3-.11-5.65-1-5.65-1-11.36,5-13.19,5.33-8.45-2.1-8.45-2.1l-5.72-3.68s-6.55-4.4-11.57-1.24-12,0-16.39-6.88c-3.46-5.41-14.64-9.3-24.48-7.26V329.73Z" style="fill:#fff;opacity:0.7000000000000001"></path></g><rect x="144.75" y="151.47" width="272.87" height="191.91" style="fill:none;stroke:#263238;stroke-linecap:round;stroke-linejoin:round"></rect><path d="M417.62,210.68V316.13c-54.86-6-137.8-22.75-142.18-38.6-6.34-23-7.92-61.59-7.92-61.59s57.81-22.05,68.46-27.71,44.88,26.77,50.51,31.12,20.06-5.46,25.6-9.65C412.89,209.09,414.85,209.52,417.62,210.68Z" style="fill:#407BFF;opacity:0.5"></path><path d="M417.62,264.32v79.05H144.75v-144h10.9s35.3-11,38.28-12.64a3.83,3.83,0,0,1,1.56-.23c7.34-.09,35.25,6,39,5.46,4.14-.66,8.88-4,10.07-3.69,1,.22,8,6.67,11.22,9.78.59.57,1,1,1.32,1.32,1.7,1.82,7.64,1.8,11.2,1.62a6.11,6.11,0,0,1,1.6.18c4.18.91,11.38,5,12.34,5.28a5.39,5.39,0,0,1,1.25,1c3.08,2.88,10.46,11,10.46,11s5.35,6.61,9.59,7.28l.41.05c2.39.17,7.65,1.34,12.45,2.31,3.82.77,7.34,1.42,8.9,1.34,2.28-.13,4.6-1.65,6.59-2a2.91,2.91,0,0,1,2.92,1c1.48,1.76,7.63,5.57,12.41,8.56a63.19,63.19,0,0,1,5.74,3.84c2,1.84,4.23,5.94,10.42,6.06a7.6,7.6,0,0,0,.84,0,3.41,3.41,0,0,0,2.61-.93l.1-.12c.31-.45.28-.85.58-.71a13.6,13.6,0,0,1,2.06,1.91c4.35,4.36,29.28,21.44,36,17.85a12.18,12.18,0,0,1,5-1.34A22.31,22.31,0,0,1,417.62,264.32Z" style="fill:#bfbfbf"></path><g style="clip-path:url(#freepik--clip-path-5--inject-145)"><path d="M417.62,264.32v79.05H144.75V239.59a6.66,6.66,0,0,1,1.51-.56c1.92-.29,18.59-9.3,18.59-9.3l9.55,3.78,8.06-3.78s-6.62,13.47-8.06,13.61-9.55,8.46-9.55,8.46-1.19,14.43-3,14.92,13.63.71,13.63.71l5.93-7.59h7.64l4.88-1.82s3.46-3.1,3-1.56,3,4.35,3.48,6.11-.66,6.25-1.12,7.43-7.06.89-7.06,2,1.05,14.57,1.71,15.6-3.3,4.53,0,4.36,12.16,4.84,12.16,4.84l6.91-3.12s4.4-4.74,4.73-5,4.57,9.34,4.69,10.46,1.38,11.31,1.38,11.31,5.29.43,6.9,0,7-5.17,7-5.17,3.62-6.17,2.83-7.44S230.7,270,230.7,270l-.77-12s-14,5.88-15.29,4.51-7.78-7.11-7.78-7.11L199.28,253l-5.35-1.15h-6.19V222.12l-11.56-5,3.64-5.47,1.32-1.94L164,207.88l-16.51,3.76-2.74-.5V199.33h10.9s35.3-11,38.28-12.64a3.83,3.83,0,0,1,1.56-.23c2.67,3.78,1.68,5.54,3.79,6.91,2.43,1.59,21.44,3.51,23.14,2.94s7.88-1.28,9.15-2,2.93,3.27,2.93,3.27a31.85,31.85,0,0,1,4.67-.15c1.84.14,3.83,3.5,3.83,3.5s7.68-.65,12.79-2.94c.59.57,1,1,1.32,1.32,1.7,1.82,7.64,1.8,11.2,1.62a6.11,6.11,0,0,1,1.6.18c-3.7.72-18,3.38-23.89,2.86l-3,7.65,6.29,10.74s4.64.8,5.44,0,3.74,11.13,3.74,11.13l9.18,1.21s9.33-16,9.94-16.27,4.66,2.35,4.66,2.35l1.25-13.4c3.08,2.88,10.46,11,10.46,11s5.35,6.61,9.59,7.28c-1.84-.2-9.46-1-12,.27-2.84,1.4-5.68,2.46-7.69,4.43s-6.31,5.93-7.85,5.41,15.54,6.88,15.54,6.88l10.15-1.87,13-6.26,1.63-6.5c3.82.77,7.34,1.42,8.9,1.34,2.28-.13,4.6-1.65,6.59-2l-4.72,3L316,237.15s-4.39,4.28-3.7,5.57-4,9.08-4,9.08l3.25,8,4.48,17,7.81-5.17s16.28-6.68,17.77-6.74,7.29-10,7.29-10l-2.08-17.67.43-.26a63.19,63.19,0,0,1,5.74,3.84c2,1.84,4.23,5.94,10.42,6.06a7.6,7.6,0,0,0,.84,0l-6.38,2.29s-1.8,7.55-2.88,8.84a31.42,31.42,0,0,0-2.66,4.51l-9.23,2.37,2.33,10.41,5.07,1.48v2.65s-1.57,1.4,0,2.63,4.49,5.46,4.49,5.46l7.1-2.26L375.82,270l23.54,5.31s6.71-7.18,11.22-11.76A22.31,22.31,0,0,1,417.62,264.32Z" style="opacity:0.1"></path></g><path d="M417.62,264.32v79.05H144.75v-144h10.9s35.3-11,38.28-12.64a3.83,3.83,0,0,1,1.56-.23c7.34-.09,35.25,6,39,5.46,4.14-.66,8.88-4,10.07-3.69,1,.22,8,6.67,11.22,9.78.59.57,1,1,1.32,1.32,1.7,1.82,7.64,1.8,11.2,1.62a6.11,6.11,0,0,1,1.6.18c4.18.91,11.38,5,12.34,5.28a5.39,5.39,0,0,1,1.25,1c3.08,2.88,10.46,11,10.46,11s5.35,6.61,9.59,7.28l.41.05c2.39.17,7.65,1.34,12.45,2.31,3.82.77,7.34,1.42,8.9,1.34,2.28-.13,4.6-1.65,6.59-2a2.91,2.91,0,0,1,2.92,1c1.48,1.76,7.63,5.57,12.41,8.56a63.19,63.19,0,0,1,5.74,3.84c2,1.84,4.23,5.94,10.42,6.06a7.6,7.6,0,0,0,.84,0,3.41,3.41,0,0,0,2.61-.93l.1-.12c.31-.45.28-.85.58-.71a13.6,13.6,0,0,1,2.06,1.91c4.35,4.36,29.28,21.44,36,17.85a12.18,12.18,0,0,1,5-1.34A22.31,22.31,0,0,1,417.62,264.32Z" style="fill:none;stroke:#263238;stroke-linecap:round;stroke-linejoin:round"></path><path d="M207.53,196.33l-1.34.1A4.37,4.37,0,0,1,207.53,196.33Z" style="fill:#fff;opacity:0.4"></path><path d="M366.86,246h0l.1-.12Z" style="opacity:0.2"></path><path d="M367.52,245.13l-.58.71C367.25,245.39,367.22,245,367.52,245.13Z" style="opacity:0.2"></path><path d="M247.62,229.83h0Z" style="fill:#407BFF;opacity:0.4"></path><path d="M248.76,227.63a5,5,0,0,1-1.15,2.19A10.57,10.57,0,0,1,248.76,227.63Z" style="fill:#407BFF;opacity:0.4"></path><path d="M398.93,343.37H193.48a61,61,0,0,1,12.61-12.32,27.29,27.29,0,0,1,2.81-1.62,159.06,159.06,0,0,1,17.54-7c3.67-1.28,7.34-2.49,10.61-3.54,6.63-2.13,11.62-3.6,11.62-3.6s-2.16-24.76-5.66-42.39c-1.54-7.8-3.35-14.21-5.36-16.45s-6.78-3.84-12.34-4.88c-12.23-2.28-28.39-2.11-28.39-2.11s-5-22.53-8.9-33.87a21.89,21.89,0,0,0-2.67-5.9c-1.24-1.45-6.62-3.1-13.22-4.65-9.55-2.24-21.64-4.28-27.38-5.2v-.7c10.09-.54,41.25-2.07,64.09-1.62,13.45.26,24,1.2,25.68,3.42s3.39,7.24,4.79,12.69c2.64,10.42,4.4,22.8,4.4,22.8s19.92.93,34.15,4.12c6.85,1.54,12.38,3.61,13.73,6.35,1,2.07,2.05,6.79,3,12.74,3,18.4,5.48,48.6,5.48,48.6s11.43,1.06,26.53,3.61c3.26.55,6.69,1.17,10.21,1.86,4.19.82,8.51,1.75,12.83,2.79a179.54,179.54,0,0,1,27,8.47C388.2,329.82,396.93,335.88,398.93,343.37Z" style="fill:#407BFF"></path><g style="clip-path:url(#freepik--clip-path-6--inject-145)"><path d="M398.93,343.37H306.56c-2.49,1.68-7.51,1.08-11.9,0H239.17c-3.93,1.14-6.74.94-8.94,0H193.48a61,61,0,0,1,12.61-12.32,27.29,27.29,0,0,1,2.81-1.62,159.06,159.06,0,0,1,17.54-7c3.67-1.28,7.34-2.49,10.61-3.54,6.63-2.13,11.62-3.6,11.62-3.6s-2.16-24.76-5.66-42.39c-1.54-7.8-3.35-14.21-5.36-16.45s-6.78-3.84-12.34-4.88c-12.23-2.28-28.39-2.11-28.39-2.11s-5-22.53-8.9-33.87a21.89,21.89,0,0,0-2.67-5.9c-1.24-1.45-6.62-3.1-13.22-4.65-9.55-2.24-21.64-4.28-27.38-5.2v-.7c10.09-.54,41.25-2.07,64.09-1.62,13.45.26,24,1.2,25.68,3.42s3.39,7.24,4.79,12.69c2.64,10.42,4.4,22.8,4.4,22.8s19.92.93,34.15,4.12c6.85,1.54,12.38,3.61,13.73,6.35,1,2.07,2.05,6.79,3,12.74,3,18.4,5.48,48.6,5.48,48.6s11.43,1.06,26.53,3.61c3.26.55,6.69,1.17,10.21,1.86,4.19.82,8.51,1.75,12.83,2.79a179.54,179.54,0,0,1,27,8.47C388.2,329.82,396.93,335.88,398.93,343.37Z" style="fill:#fff;opacity:0.4"></path><path d="M239.31,213.64c-1.71-.89-3.87-3.27-4.79-3.94-1.48-1.09-.37,4-1.68,7.15s-1.32-2.64-3.53-2.33-1,3.91-2.41,3.93-5.14-7.14-6.7-5.56,1.56,10,0,7.62-4.77-12.89-6.88-10.81,1.58,10.84-1.34,10.81-3.94-6-3.94-6v6s-5-6.56-5.4-6-.66,7.34-3.47,5.75c-1.85-1-6.56-4-11.15-4.67a21.89,21.89,0,0,0-2.67-5.9c-1.24-1.45-6.62-3.1-13.22-4.65,7,0,7.85-.63,6.16-1.06s7.86-.33,9.45,0,.26-2.18-1.32-3,7.38,1.13,9.23,0-2.64-.72-1.72-1.62,14.91.11,14.91-1.73v-.07c13.45.26,24,1.2,25.68,3.42S237.91,208.19,239.31,213.64Z" style="fill:#fff;opacity:0.4"></path><path d="M294.61,259.65a8.41,8.41,0,0,1-4.28-2.25c-1.85-1.65-.53,5.6-1.13,7.5s-4.15,0-4.15,0l-3.87-8.44,1.07,8.44s-2.21-3.75-3.62-3.48-2,5-3.19,6.95-5,1.63-5,1.63a53.16,53.16,0,0,0-4.33-10.16l2.37,11.8s-3.17-6.53-6.86-5-.26,8.47-3.11,8.16-4.27-8.13-7.7-8.16-1.58,11.64-3.69,10.15c-1-.67-2.38-2.35-4.07-3.9-1.54-7.8-3.35-14.21-5.36-16.45s-6.78-3.84-12.34-4.88c4-2.38,13.63.57,13.86-1.22.27-2.1.52-3.18,3.83-2.47s8.3,2.45,11.46,1.12-4.75-4.47-.26-4.48,12.92,2.65,11.34,0,7.49-.93,8.15-.81l-6.86-2.86c.67.13,13,2.6,13.2,1.86.14-.42-1.07-1.38-2.17-2.16,6.85,1.54,12.38,3.61,13.73,6.35C292.61,249,293.64,253.7,294.61,259.65Z" style="fill:#fff;opacity:0.4"></path><path d="M324.35,324c1.32,3.62-9.72,4.14-19.23,4.41s-2.05,3-8,7.28-10.92-3-16.49-1.71-2.7,4.78-9.81,5.8-8.13-7.46-13.69-8.63-5,2.45-14.11,2.41c-7.64,0-17.64-5.65-16.56-11.12,3.67-1.28,7.34-2.49,10.61-3.54a9.62,9.62,0,0,0,2.12,5c2.08,2.69,9.23,3.69,15,3.44s8.7,5.35,14.5,6.64,5.12-7.21,8.89-6.92,10.52,4.8,14,3.07-1-6.1,3-6.13,20.35,4,20.17-.66-2-4.4,4.56-6c3.9-.94,6.53-3.12,7.28-5.49,3.26.55,6.69,1.17,10.21,1.86-2.17,1.65-4.7,2.3-8.78,3.89C322,320,323,320.39,324.35,324Z" style="fill:#fff;opacity:0.4"></path><path d="M230.23,343.37H193.48a61,61,0,0,1,12.61-12.32,27.29,27.29,0,0,1,2.81-1.62A20.77,20.77,0,0,1,220.2,334C223.9,336.94,225.92,341.55,230.23,343.37Z" style="fill:#fff;opacity:0.4"></path><path d="M258.8,343.37H239.17C249.91,340.26,254,339.73,258.8,343.37Z" style="fill:#fff;opacity:0.4"></path><path d="M288.88,341.58a50.3,50.3,0,0,0,5.78,1.79H282.17C284.16,341.71,286.28,340.59,288.88,341.58Z" style="fill:#fff;opacity:0.4"></path><path d="M369.64,343.37H306.56a3.5,3.5,0,0,0,1-1c2.62-4.14-1.1-10.23,8.44-8.37s19.6,1.34,18.32-4.89-7-7.83,5.88-9.44c4.85-.6,7.66-1.74,9.45-3.14a179.54,179.54,0,0,1,27,8.47C378.15,330.36,376.73,336.67,369.64,343.37Z" style="fill:#fff;opacity:0.4"></path></g><path d="M398.93,343.37H193.48a61,61,0,0,1,12.61-12.32,27.29,27.29,0,0,1,2.81-1.62,159.06,159.06,0,0,1,17.54-7c3.67-1.28,7.34-2.49,10.61-3.54,6.63-2.13,11.62-3.6,11.62-3.6s-2.16-24.76-5.66-42.39c-1.54-7.8-3.35-14.21-5.36-16.45s-6.78-3.84-12.34-4.88c-12.23-2.28-28.39-2.11-28.39-2.11s-5-22.53-8.9-33.87a21.89,21.89,0,0,0-2.67-5.9c-1.24-1.45-6.62-3.1-13.22-4.65-9.55-2.24-21.64-4.28-27.38-5.2v-.7c10.09-.54,41.25-2.07,64.09-1.62,13.45.26,24,1.2,25.68,3.42s3.39,7.24,4.79,12.69c2.64,10.42,4.4,22.8,4.4,22.8s19.92.93,34.15,4.12c6.85,1.54,12.38,3.61,13.73,6.35,1,2.07,2.05,6.79,3,12.74,3,18.4,5.48,48.6,5.48,48.6s11.43,1.06,26.53,3.61c3.26.55,6.69,1.17,10.21,1.86,4.19.82,8.51,1.75,12.83,2.79a179.54,179.54,0,0,1,27,8.47C388.2,329.82,396.93,335.88,398.93,343.37Z" style="fill:none;stroke:#263238;stroke-linecap:round;stroke-linejoin:round"></path><path d="M197.24,249.51s-2.51.41-2.51-1.86,3.17.65,6.12-.88,4.08-4,5.9-3.36,2.59,5.2,6.74,1.76,9.83-7.69,10.39-5,4.48,1.64,7.73-.54,8.51-4.89,8.72-3.33.66,2.5,3.38.15,7.93-4,9.31-1.7c0,0,13,2.14,6.28,2.83s-9.89.41-9.22,2.52-10.33,2.68-13.11,3.22-1.35,3.47-5.36,3.44-12.68-.39-12.76.63S206.11,250.76,197.24,249.51Z" style="fill:#407BFF"></path><g style="clip-path:url(#freepik--clip-path-7--inject-145)"><path d="M197.24,249.51s-2.51.41-2.51-1.86,3.17.65,6.12-.88,4.08-4,5.9-3.36,2.59,5.2,6.74,1.76,9.83-7.69,10.39-5,4.48,1.64,7.73-.54,8.51-4.89,8.72-3.33.66,2.5,3.38.15,7.93-4,9.31-1.7c0,0,13,2.14,6.28,2.83s-9.89.41-9.22,2.52-10.33,2.68-13.11,3.22-1.35,3.47-5.36,3.44-12.68-.39-12.76.63S206.11,250.76,197.24,249.51Z" style="fill:#fff;opacity:0.7000000000000001"></path><path d="M218.85,247.38c2-3.7,3.49-5,5.9-3.65s3.7,3,6.82,0,4.51-5.59,6.08-4.7a5.47,5.47,0,0,1,2,1.57s2.17,1.15,4.55-1.15,5.14-4.47,6.52-3.29" style="fill:none;stroke:#fff;stroke-linecap:round;stroke-linejoin:round"></path><path d="M216.29,246.91s.37-1.4-2.38-.95-4.76,2.38-7.82,1.93" style="fill:none;stroke:#fff;stroke-linecap:round;stroke-linejoin:round"></path></g><path d="M197.24,249.51s-2.51.41-2.51-1.86,3.17.65,6.12-.88,4.08-4,5.9-3.36,2.59,5.2,6.74,1.76,9.83-7.69,10.39-5,4.48,1.64,7.73-.54,8.51-4.89,8.72-3.33.66,2.5,3.38.15,7.93-4,9.31-1.7c0,0,13,2.14,6.28,2.83s-9.89.41-9.22,2.52-10.33,2.68-13.11,3.22-1.35,3.47-5.36,3.44-12.68-.39-12.76.63S206.11,250.76,197.24,249.51Z" style="fill:none;stroke:#263238;stroke-linecap:round;stroke-linejoin:round"></path><path d="M248.67,315.3s-4.1-.15-2.32-2.87,4.05,1.31,6.38,1.29,4.3-.14,7.67-3.34,3.56.77,5.34,2.05,6.1.76,8-2.05,5.84-4.94,8.52-2.49,7.51,1.2,9.34-1.54S296,307,296,307s6.23-5.2,8-4.09-2.22,4.09-2.22,4.09,8.25-1.26,6.4,1.53-11.32,2.62-13,3.9-2.26,5.82-8.21,4-7.91-1.75-11.48.41-6.74,2.13-9.9.47-8.42,1.11-12.81,1.2S245.05,318.68,248.67,315.3Z" style="fill:#407BFF"></path><g style="clip-path:url(#freepik--clip-path-8--inject-145)"><path d="M248.67,315.3s-4.1-.15-2.32-2.87,4.05,1.31,6.38,1.29,4.3-.14,7.67-3.34,3.56.77,5.34,2.05,6.1.76,8-2.05,5.84-4.94,8.52-2.49,7.51,1.2,9.34-1.54S296,307,296,307s6.23-5.2,8-4.09-2.22,4.09-2.22,4.09,8.25-1.26,6.4,1.53-11.32,2.62-13,3.9-2.26,5.82-8.21,4-7.91-1.75-11.48.41-6.74,2.13-9.9.47-8.42,1.11-12.81,1.2S245.05,318.68,248.67,315.3Z" style="fill:#fff;opacity:0.7000000000000001"></path><path d="M248.67,315.3c2.71-1.95,4.41-1,5.4,0s2.57,1.78,5.34,0,3.18-2.12,4.15-1.58,1.25,1.43,3.56,2.16" style="fill:none;stroke:#fff;stroke-linecap:round;stroke-linejoin:round"></path><path d="M270.8,316.47c2.85-.2,5.1-5.48,7.83-5.8s3.92,3.05,6.36,2.64c2.61-.44,2.86-2.4,5.21-3" style="fill:none;stroke:#fff;stroke-linecap:round;stroke-linejoin:round"></path><path d="M292.24,313c1.46-.42,2.43-4,3.76-4.75.61-.34,2,.65,2.7.66,3.63.07,2.67-1.89,6.42-2.18" style="fill:none;stroke:#fff;stroke-linecap:round;stroke-linejoin:round"></path></g><path d="M248.67,315.3s-4.1-.15-2.32-2.87,4.05,1.31,6.38,1.29,4.3-.14,7.67-3.34,3.56.77,5.34,2.05,6.1.76,8-2.05,5.84-4.94,8.52-2.49,7.51,1.2,9.34-1.54S296,307,296,307s6.23-5.2,8-4.09-2.22,4.09-2.22,4.09,8.25-1.26,6.4,1.53-11.32,2.62-13,3.9-2.26,5.82-8.21,4-7.91-1.75-11.48.41-6.74,2.13-9.9.47-8.42,1.11-12.81,1.2S245.05,318.68,248.67,315.3Z" style="fill:none;stroke:#263238;stroke-linecap:round;stroke-linejoin:round"></path><path d="M230.18,339.39a13.6,13.6,0,0,1-4.67,4H144.75V262c3.14,4.05,4.14,9.89,4.14,9.89.05-8.68,7.38-18.29,10.57-14.55s-2.7,16.64-2.7,16.64c4.5,1.82,8.77,6,9,6.29-.08-.33-2.05-7.49,2.67-9.68s5.33,7.93,5.33,7.93-.22-18,6.19-10.6,1.72,19.31,1.72,19.31c6.61,1.54,6.72,9.67,6.72,9.67a31.11,31.11,0,0,1,11-14.33,34.75,34.75,0,0,1-4.12,25.25,71.94,71.94,0,0,1,9.4-.09c3.65.34,2.88,4.87,2.88,4.87s4.77-5.41,10.14-7.91-3.17,11.54-3.17,11.54,6-2.92,11.38,1.25c0,0-2.92,5.5-9.16,6,0,0,6.69,8,3.93,13C220.68,336.45,225.54,332.43,230.18,339.39Z" style="fill:#407BFF"></path><path d="M230.18,339.39a13.6,13.6,0,0,1-4.67,4H144.75V262c3.14,4.05,4.14,9.89,4.14,9.89.05-8.68,7.38-18.29,10.57-14.55s-2.7,16.64-2.7,16.64c4.5,1.82,8.77,6,9,6.29-.08-.33-2.05-7.49,2.67-9.68s5.33,7.93,5.33,7.93-.22-18,6.19-10.6,1.72,19.31,1.72,19.31c6.61,1.54,6.72,9.67,6.72,9.67a31.11,31.11,0,0,1,11-14.33,34.75,34.75,0,0,1-4.12,25.25,71.94,71.94,0,0,1,9.4-.09c3.65.34,2.88,4.87,2.88,4.87s4.77-5.41,10.14-7.91-3.17,11.54-3.17,11.54,6-2.92,11.38,1.25c0,0-2.92,5.5-9.16,6,0,0,6.69,8,3.93,13C220.68,336.45,225.54,332.43,230.18,339.39Z" style="opacity:0.2"></path><path d="M225.51,343.37a13.6,13.6,0,0,0,4.67-4c-4.64-7-9.5-2.94-9.5-2.94,2.76-4.94-3.93-13-3.93-13,6.24-.54,9.16-6,9.16-6-5.42-4.17-11.38-1.25-11.38-1.25s8.55-14,3.17-11.54-10.14,7.91-10.14,7.91.77-4.53-2.88-4.87a71.94,71.94,0,0,0-9.4.09,34.75,34.75,0,0,0,4.12-25.25,31.11,31.11,0,0,0-11,14.33s-.11-8.13-6.72-9.67c0,0,4.69-11.94-1.72-19.31s-6.19,10.6-6.19,10.6-.49-10.18-5.33-7.93-2.75,9.35-2.67,9.68" style="fill:none;stroke:#263238;stroke-linecap:round;stroke-linejoin:round"></path><path d="M144.75,262c3.14,4.05,4.14,9.89,4.14,9.89.05-8.68,7.38-18.29,10.57-14.55s-2.7,16.64-2.7,16.64c4.5,1.82,8.77,6,9,6.29h0" style="fill:none;stroke:#263238;stroke-linecap:round;stroke-linejoin:round"></path><path d="M195.33,342.46a41.55,41.55,0,0,1,4.24.91H144.75V284.88c2.94,2,5.22,7.58,5.22,7.58s6.13-13.18,8-9.07-4.25,11.51-4.25,11.51c4.38-.44,12.25,4.52,12.25,4.52s-.29-6.07,4.73-4.82S179.21,310,179.21,310c.94-4,3.61-7.09,5.1-5.84,2.83,2.37-.78,14.52-.94,15.07,3.69-5.77,7.94-1.68,7.94-1.68.53,3.15-3.41,9.26-3.41,9.26,6.18-5.33,9.27-2.46,9.27-2.46s2.31,4.37-3.4,10.56c0,0,6.92-1.14,12,.34A14.32,14.32,0,0,1,195.33,342.46Z" style="opacity:0.2"></path><path d="M417.62,269.92v73.45H323.73A8.8,8.8,0,0,1,329,340c-4.44-3.81-4.74-7.62-4.74-7.62,7.09-1.44,14.68,4.3,14.68,4.3a19.07,19.07,0,0,1,7.29-19c-10.45-1.56-10.73-10-10.73-10,7.13-5.88,15.51-3.08,15.51-3.08-4.17-7.12-1-16.93-1-16.93,7.64,3.7,8.1,15.35,8.1,15.35,1.91-4.35,6.75-7.82,6.75-7.82s-1.71-6.32.68-8,9.53.7,9.87.8c-.31-.42-9.28-12.6-2.59-13.1s13.12,8.08,13.12,8.08c-3.84-7.78-1.58-19.66,2.94-17.74s5,16.1,5,16.1c4.85-.39,10.58,1.47,10.91,1.57-.25-.27-5.19-5.78-1.95-9.85s7.75,3.75,8.27,4.63c-.6-1.18-7.83-15.75.84-12.17A13.56,13.56,0,0,1,417.62,269.92Z" style="fill:#407BFF"></path><path d="M417.62,269.92v73.45H323.73A8.8,8.8,0,0,1,329,340c-4.44-3.81-4.74-7.62-4.74-7.62,7.09-1.44,14.68,4.3,14.68,4.3a19.07,19.07,0,0,1,7.29-19c-10.45-1.56-10.73-10-10.73-10,7.13-5.88,15.51-3.08,15.51-3.08-4.17-7.12-1-16.93-1-16.93,7.64,3.7,8.1,15.35,8.1,15.35,1.91-4.35,6.75-7.82,6.75-7.82s-1.71-6.32.68-8,9.53.7,9.87.8c-.31-.42-9.28-12.6-2.59-13.1s13.12,8.08,13.12,8.08c-3.84-7.78-1.58-19.66,2.94-17.74s5,16.1,5,16.1c4.85-.39,10.58,1.47,10.91,1.57-.25-.27-5.19-5.78-1.95-9.85s7.75,3.75,8.27,4.63c-.6-1.18-7.83-15.75.84-12.17A13.56,13.56,0,0,1,417.62,269.92Z" style="opacity:0.2"></path><path d="M411.14,277.62c-.6-1.18-7.83-15.75.84-12.17a13.56,13.56,0,0,1,5.64,4.47" style="fill:none;stroke:#263238;stroke-linecap:round;stroke-linejoin:round"></path><path d="M411.18,277.7v0l0-.06c-.52-.88-5.14-8.57-8.27-4.63s1.7,9.58,1.95,9.85" style="fill:none;stroke:#263238;stroke-linecap:round;stroke-linejoin:round"></path><path d="M404.83,282.85h0c-.33-.1-6.06-2-10.91-1.57,0,0-.5-14.18-5-16.1s-6.78,10-2.94,17.74c0,0-6.3-8.59-13.12-8.08s2.28,12.68,2.59,13.1" style="fill:none;stroke:#263238;stroke-linecap:round;stroke-linejoin:round"></path><path d="M323.73,343.37A8.8,8.8,0,0,1,329,340c-4.44-3.81-4.74-7.62-4.74-7.62,7.09-1.44,14.68,4.3,14.68,4.3a19.07,19.07,0,0,1,7.29-19c-10.45-1.56-10.73-10-10.73-10,7.13-5.88,15.51-3.08,15.51-3.08-4.17-7.12-1-16.93-1-16.93,7.64,3.7,8.1,15.35,8.1,15.35,1.91-4.35,6.75-7.82,6.75-7.82s-1.71-6.32.68-8,9.53.7,9.87.8h0" style="fill:none;stroke:#263238;stroke-linecap:round;stroke-linejoin:round"></path><path d="M336.07,340.45s1.62,1.17,3.65,2.92h-3.93A12.07,12.07,0,0,1,336.07,340.45Z" style="opacity:0.2"></path><path d="M355.41,343.37h-7.18a10.44,10.44,0,0,1,1.65-2.63C351.71,338.64,353.78,340.73,355.41,343.37Z" style="opacity:0.2"></path><path d="M417.62,293.61v49.76H362a2.83,2.83,0,0,1,1.36-.91c-6-.53-6.64-7.44-6.64-7.44,4.57-4.91,11.94-4,12.51-4-4.9-1.47-5.08-10.17-5.08-10.17,3.37-4.21,11.94-1.6,12.56-1.4-3.35-1.65-4.86-8.21-4.86-8.21,5.11-.56,10.09,4.86,10.09,4.86.57-5.64,7.92-11.16,7.92-11.16s-7.43-6-4.09-8.14,10.4,4,10.4,4-.41-14.53,3.09-11.68,1.35,12.19,1.35,12.19c3.72-2.35,13-1.44,13-1.44s-3-5.29,2.08-6.42A4.3,4.3,0,0,1,417.62,293.61Z" style="opacity:0.2"></path><path d="M335.53,250.9q-.22,1.59-.39,3.15c-.13,1.12-.24,2.23-.33,3.34h0c-.19,2.19-.32,4.36-.39,6.49h0c-.05,1.19-.07,2.37-.07,3.53,0,3.37.08,6.65.31,9.84q.15,2,.36,4c.3,2.95.7,5.83,1.18,8.61.17,1,.35,2,.54,2.95.8,4.07,1.76,7.95,2.83,11.62.32,1.09.64,2.16,1,3.21h0c1.29,4.07,2.71,7.85,4.16,11.32.3.71.6,1.41.9,2.09a121.7,121.7,0,0,0,12.55,22.31" style="fill:none;stroke:#263238;stroke-linecap:round;stroke-linejoin:round"></path><path d="M344.7,319s-8.13-8.16-15.49-7.46,7,12.41,16.39,9.55,11.73-17.53,7-19.22S344.7,319,344.7,319Z" style="fill:#407BFF"></path><path d="M339.56,304.44s-6.92-11-12.9-8.93,9.64,12.05,13.88,12.14,12.78-16,9-18.7S339.56,304.44,339.56,304.44Z" style="fill:#407BFF"></path><path d="M336.19,289.87s-5.39-9.05-9-8.76,3.35,8.5,9.58,11.71c0,0,12.26-6.77,8.31-12.18S336.19,289.87,336.19,289.87Z" style="fill:#407BFF"></path><path d="M334.65,277.28S332.48,267,329,268.52s4.15,11.58,6,12.75c0,0,8.49-7.66,6.19-11.11S334.65,277.28,334.65,277.28Z" style="fill:#407BFF"></path><path d="M334.41,263.9s-1.9-6.11-3.91-6.2,3.83,9.73,3.83,9.73,6.43-5.52,5.76-7.31S334.41,263.9,334.41,263.9Z" style="fill:#407BFF"></path><path d="M335.14,254.05s-1.88-5.12-3.17-4.86,2.83,8.21,2.83,8.21,5.95-4.57,5-5.91S335.14,254.05,335.14,254.05Z" style="fill:#407BFF"></path><path d="M337.42,243.83c-1.61-.77-2.53,3.13-2,7.18C335.39,251,340.2,245.17,337.42,243.83Z" style="fill:#407BFF"></path><g style="opacity:0.4"><path d="M344.7,319s-8.13-8.16-15.49-7.46,7,12.41,16.39,9.55,11.73-17.53,7-19.22S344.7,319,344.7,319Z"></path><path d="M339.56,304.44s-6.92-11-12.9-8.93,9.64,12.05,13.88,12.14,12.78-16,9-18.7S339.56,304.44,339.56,304.44Z"></path><path d="M336.19,289.87s-5.39-9.05-9-8.76,3.35,8.5,9.58,11.71c0,0,12.26-6.77,8.31-12.18S336.19,289.87,336.19,289.87Z"></path><path d="M334.65,277.28S332.48,267,329,268.52s4.15,11.58,6,12.75c0,0,8.49-7.66,6.19-11.11S334.65,277.28,334.65,277.28Z"></path><path d="M334.41,263.9s-1.9-6.11-3.91-6.2,3.83,9.73,3.83,9.73,6.43-5.52,5.76-7.31S334.41,263.9,334.41,263.9Z"></path><path d="M335.14,254.05s-1.88-5.12-3.17-4.86,2.83,8.21,2.83,8.21,5.95-4.57,5-5.91S335.14,254.05,335.14,254.05Z"></path><path d="M337.42,243.83c-1.61-.77-2.53,3.13-2,7.18C335.39,251,340.2,245.17,337.42,243.83Z"></path></g><path d="M344.7,319s-8.13-8.16-15.49-7.46,7,12.41,16.39,9.55,11.73-17.53,7-19.22S344.7,319,344.7,319Z" style="fill:none;stroke:#263238;stroke-linecap:round;stroke-linejoin:round"></path><path d="M339.56,304.44s-6.92-11-12.9-8.93,9.64,12.05,13.88,12.14,12.78-16,9-18.7S339.56,304.44,339.56,304.44Z" style="fill:none;stroke:#263238;stroke-linecap:round;stroke-linejoin:round"></path><path d="M336.19,289.87s-5.39-9.05-9-8.76,3.35,8.5,9.58,11.71c0,0,12.26-6.77,8.31-12.18S336.19,289.87,336.19,289.87Z" style="fill:none;stroke:#263238;stroke-linecap:round;stroke-linejoin:round"></path><path d="M334.65,277.28S332.48,267,329,268.52s4.15,11.58,6,12.75c0,0,8.49-7.66,6.19-11.11S334.65,277.28,334.65,277.28Z" style="fill:none;stroke:#263238;stroke-linecap:round;stroke-linejoin:round"></path><path d="M334.41,263.9s-1.9-6.11-3.91-6.2,3.83,9.73,3.83,9.73,6.43-5.52,5.76-7.31S334.41,263.9,334.41,263.9Z" style="fill:none;stroke:#263238;stroke-linecap:round;stroke-linejoin:round"></path><path d="M335.14,254.05s-1.88-5.12-3.17-4.86,2.83,8.21,2.83,8.21,5.95-4.57,5-5.91S335.14,254.05,335.14,254.05Z" style="fill:none;stroke:#263238;stroke-linecap:round;stroke-linejoin:round"></path><path d="M337.42,243.83c-1.61-.77-2.53,3.13-2,7.18C335.39,251,340.2,245.17,337.42,243.83Z" style="fill:none;stroke:#263238;stroke-linecap:round;stroke-linejoin:round"></path><path d="M278.63,306.74c.87.61,1.73,1.22,2.58,1.84s1.81,1.34,2.69,2q2.61,2,5,4.1v0c.9.76,1.77,1.54,2.63,2.33h0c2.47,2.24,4.79,4.54,7,6.86v0s0,0,0,0c.93,1,1.83,2,2.7,2.95h0c2,2.21,3.8,4.45,5.51,6.68,0,0,0,0,0,0h0c.62.79,1.22,1.59,1.8,2.39,1.81,2.46,3.47,4.91,5,7.34" style="fill:none;stroke:#263238;stroke-linecap:round;stroke-linejoin:round"></path><path d="M330.39,343.37h-3.11a1.8,1.8,0,0,1,.2-.19C328.88,341.92,329.86,342.19,330.39,343.37Z" style="fill:#407BFF"></path><path d="M308.5,343.37H297.13a1.63,1.63,0,0,1,0-.54C297.45,340.15,303.48,341.64,308.5,343.37Z" style="fill:#407BFF"></path><path d="M319.25,343.37H314.7c-.67-3.85-1.23-10.79,2.74-12.91S320.91,337.07,319.25,343.37Z" style="fill:#407BFF"></path><path d="M306.83,333.64s-3-10.1-.31-12.58,4,8.22,2.11,15c0,0-13.28,4.42-14.58-2.15S306.83,333.64,306.83,333.64Z" style="fill:#407BFF"></path><path d="M298.61,324s-6.08-8.58-2.57-10.13,5.7,10.9,5.27,13.09c0,0-11.38,1-12.36-3S298.61,324,298.61,324Z" style="fill:#407BFF"></path><path d="M289,314.73s-3.21-5.54-1.91-7.07,4.55,9.4,4.55,9.4-8.42,1-9.27-.72S289,314.73,289,314.73Z" style="fill:#407BFF"></path><path d="M281.21,308.58s-2.49-4.84-1.42-5.62,4.11,7.65,4.11,7.65-7.39,1.27-7.72-.35S281.21,308.58,281.21,308.58Z" style="fill:#407BFF"></path><path d="M272.15,303.34c.53-1.71,4,.25,6.65,3.37C278.8,306.71,271.25,306.29,272.15,303.34Z" style="fill:#407BFF"></path><g style="opacity:0.6000000000000001"><path d="M330.39,343.37h-3.11a1.8,1.8,0,0,1,.2-.19C328.88,341.92,329.86,342.19,330.39,343.37Z"></path><path d="M308.5,343.37H297.13a1.63,1.63,0,0,1,0-.54C297.45,340.15,303.48,341.64,308.5,343.37Z"></path><path d="M319.25,343.37H314.7c-.67-3.85-1.23-10.79,2.74-12.91S320.91,337.07,319.25,343.37Z"></path><path d="M306.83,333.64s-3-10.1-.31-12.58,4,8.22,2.11,15c0,0-13.28,4.42-14.58-2.15S306.83,333.64,306.83,333.64Z"></path><path d="M298.61,324s-6.08-8.58-2.57-10.13,5.7,10.9,5.27,13.09c0,0-11.38,1-12.36-3S298.61,324,298.61,324Z"></path><path d="M289,314.73s-3.21-5.54-1.91-7.07,4.55,9.4,4.55,9.4-8.42,1-9.27-.72S289,314.73,289,314.73Z"></path><path d="M281.21,308.58s-2.49-4.84-1.42-5.62,4.11,7.65,4.11,7.65-7.39,1.27-7.72-.35S281.21,308.58,281.21,308.58Z"></path><path d="M272.15,303.34c.53-1.71,4,.25,6.65,3.37C278.8,306.71,271.25,306.29,272.15,303.34Z"></path></g><path d="M330.39,343.37h-3.11a1.8,1.8,0,0,1,.2-.19C328.88,341.92,329.86,342.19,330.39,343.37Z" style="fill:none;stroke:#263238;stroke-linecap:round;stroke-linejoin:round"></path><path d="M308.5,343.37H297.13a1.63,1.63,0,0,1,0-.54C297.45,340.15,303.48,341.64,308.5,343.37Z" style="fill:none;stroke:#263238;stroke-linecap:round;stroke-linejoin:round"></path><path d="M319.25,343.37H314.7c-.67-3.85-1.23-10.79,2.74-12.91S320.91,337.07,319.25,343.37Z" style="fill:none;stroke:#263238;stroke-linecap:round;stroke-linejoin:round"></path><path d="M306.83,333.64s-3-10.1-.31-12.58,4,8.22,2.11,15c0,0-13.28,4.42-14.58-2.15S306.83,333.64,306.83,333.64Z" style="fill:none;stroke:#263238;stroke-linecap:round;stroke-linejoin:round"></path><path d="M298.61,324s-6.08-8.58-2.57-10.13,5.7,10.9,5.27,13.09c0,0-11.38,1-12.36-3S298.61,324,298.61,324Z" style="fill:none;stroke:#263238;stroke-linecap:round;stroke-linejoin:round"></path><path d="M289,314.73s-3.21-5.54-1.91-7.07,4.55,9.4,4.55,9.4-8.42,1-9.27-.72S289,314.73,289,314.73Z" style="fill:none;stroke:#263238;stroke-linecap:round;stroke-linejoin:round"></path><path d="M281.21,308.58s-2.49-4.84-1.42-5.62,4.11,7.65,4.11,7.65-7.39,1.27-7.72-.35S281.21,308.58,281.21,308.58Z" style="fill:none;stroke:#263238;stroke-linecap:round;stroke-linejoin:round"></path><path d="M272.15,303.34c.53-1.71,4,.25,6.65,3.37C278.8,306.71,271.25,306.29,272.15,303.34Z" style="fill:none;stroke:#263238;stroke-linecap:round;stroke-linejoin:round"></path><path d="M376.48,339.49s-8-56.41,31.77-106" style="fill:none;stroke:#263238;stroke-linecap:round;stroke-linejoin:round"></path><path d="M377.37,305.6s-3.2-12.76-10.82-16.39-.38,16.29,10.48,19,21.76-10.3,18.11-14.74S377.37,305.6,377.37,305.6Z" style="fill:#407BFF"></path><path d="M380.84,288.35s-.32-14.86-7.41-16.31,2.39,17.45,6.49,20,21.9-8.19,19.77-13.05S380.84,288.35,380.84,288.35Z" style="fill:#407BFF"></path><path d="M386.07,272.09s0-12-3.73-13.88-1.69,10.29,2.53,17.09c0,0,16,.55,15.28-7.07S386.07,272.09,386.07,272.09Z" style="fill:#407BFF"></path><path d="M391.94,258.85s3.89-11.36-.45-11.92-2.72,13.78-1.54,16c0,0,12.8-2.54,12.57-7.26S391.94,258.85,391.94,258.85Z" style="fill:#407BFF"></path><path d="M399.54,245.6s1.72-7.11-.2-8.37S397.4,249,397.4,249s9.54-1.65,9.92-3.79S399.54,245.6,399.54,245.6Z" style="fill:#407BFF"></path><path d="M406,236.36s1.15-6.11-.27-6.62-2,9.71-2,9.71,8.5-1,8.34-2.87S406,236.36,406,236.36Z" style="fill:#407BFF"></path><path d="M414.25,227.69c-1.13-1.7-4.32,1.58-6.19,5.85C408.06,233.54,416.19,230.63,414.25,227.69Z" style="fill:#407BFF"></path><path d="M377.37,305.6s-3.2-12.76-10.82-16.39-.38,16.29,10.48,19,21.76-10.3,18.11-14.74S377.37,305.6,377.37,305.6Z" style="fill:none;stroke:#263238;stroke-linecap:round;stroke-linejoin:round"></path><path d="M380.84,288.35s-.32-14.86-7.41-16.31,2.39,17.45,6.49,20,21.9-8.19,19.77-13.05S380.84,288.35,380.84,288.35Z" style="fill:none;stroke:#263238;stroke-linecap:round;stroke-linejoin:round"></path><path d="M386.07,272.09s0-12-3.73-13.88-1.69,10.29,2.53,17.09c0,0,16,.55,15.28-7.07S386.07,272.09,386.07,272.09Z" style="fill:none;stroke:#263238;stroke-linecap:round;stroke-linejoin:round"></path><path d="M391.94,258.85s3.89-11.36-.45-11.92-2.72,13.78-1.54,16c0,0,12.8-2.54,12.57-7.26S391.94,258.85,391.94,258.85Z" style="fill:none;stroke:#263238;stroke-linecap:round;stroke-linejoin:round"></path><path d="M399.54,245.6s1.72-7.11-.2-8.37S397.4,249,397.4,249s9.54-1.65,9.92-3.79S399.54,245.6,399.54,245.6Z" style="fill:none;stroke:#263238;stroke-linecap:round;stroke-linejoin:round"></path><path d="M406,236.36s1.15-6.11-.27-6.62-2,9.71-2,9.71,8.5-1,8.34-2.87S406,236.36,406,236.36Z" style="fill:none;stroke:#263238;stroke-linecap:round;stroke-linejoin:round"></path><path d="M414.25,227.69c-1.13-1.7-4.32,1.58-6.19,5.85C408.06,233.54,416.19,230.63,414.25,227.69Z" style="fill:none;stroke:#263238;stroke-linecap:round;stroke-linejoin:round"></path><path d="M329.07,339.12a24.39,24.39,0,0,1,8.13,4.25h-4.41C330.76,341,329.21,339.28,329.07,339.12Z" style="fill:#407BFF"></path><path d="M417.62,322v21.38H361l.11.65a5.6,5.6,0,0,0-.34-.65H338.67c-1.52-4.79-4.71-16.31-.62-18.16,5.26-2.39,9.43,5.56,9.43,5.56s6.17-7.59,12-7.66c0,0-13.25-9.13-14.06-15.27-.83-6.33,17.12,11.42,17.12,11.42s-1.65-12.83,3.92-12.91,6.36,12.91,6.36,12.91,12.94.86,19.89,6.88c0,0-1.65-10,3.77-13.3,0,0,6,8.94,4.74,13.29.29-.54,5.48-10.22,13.52-7.8A40.6,40.6,0,0,1,417.62,322Z" style="fill:#407BFF"></path><path d="M329.07,339.12a24.39,24.39,0,0,1,8.13,4.25h-4.41C330.76,341,329.21,339.28,329.07,339.12Z" style="opacity:0.1"></path><path d="M417.62,322v21.38H361l.11.65a5.6,5.6,0,0,0-.34-.65H338.67c-1.52-4.79-4.71-16.31-.62-18.16,5.26-2.39,9.43,5.56,9.43,5.56s6.17-7.59,12-7.66c0,0-13.25-9.13-14.06-15.27-.83-6.33,17.12,11.42,17.12,11.42s-1.65-12.83,3.92-12.91,6.36,12.91,6.36,12.91,12.94.86,19.89,6.88c0,0-1.65-10,3.77-13.3,0,0,6,8.94,4.74,13.29.29-.54,5.48-10.22,13.52-7.8A40.6,40.6,0,0,1,417.62,322Z" style="opacity:0.1"></path><path d="M401.25,326.13c.29-.54,5.48-10.22,13.52-7.8a40.6,40.6,0,0,1,2.85,3.66" style="fill:none;stroke:#263238;stroke-linecap:round;stroke-linejoin:round"></path><path d="M329.07,339.12a24.39,24.39,0,0,1,8.13,4.25" style="fill:none;stroke:#263238;stroke-linecap:round;stroke-linejoin:round"></path><path d="M338.67,343.37c-1.52-4.79-4.71-16.31-.62-18.16,5.26-2.39,9.43,5.56,9.43,5.56s6.17-7.59,12-7.66c0,0-13.25-9.13-14.06-15.27-.83-6.33,17.12,11.42,17.12,11.42s-1.65-12.83,3.92-12.91,6.36,12.91,6.36,12.91,12.94.86,19.89,6.88c0,0-1.65-10,3.77-13.3,0,0,6,8.94,4.74,13.29v0" style="fill:none;stroke:#263238;stroke-linecap:round;stroke-linejoin:round"></path><path d="M329.06,339.11h0c.14.16,1.69,1.89,3.72,4.25" style="fill:none;stroke:#263238;stroke-linecap:round;stroke-linejoin:round"></path><path d="M360.73,343.37h-4.39a3.69,3.69,0,0,1,.06-1.22S358.88,340.16,360.73,343.37Z" style="opacity:0.2"></path><path d="M412.64,343.37H361c-.33-2-1.16-8.06.37-9.11.95-.65,2.36,1.54,2.71,4.17,0,0,2.77-8.59,5.78-8.91s2.58,3.42,2.58,3.42,4.84-2.38,7.42-1.71c0,0-3.35-5.1-2.12-7.44s4.41,6.26,4.41,6.26,2.32-5,4.63-4.42-.22,5.62-.22,5.62,5.36,1.85,7.11,5.16c0,0,1.32-4.28,4.22-5,0,0,.9,4.3-.51,6,0,0,4.15-3.64,7.22-1.69,0,0,2.27,5.39,0,7.34a8.55,8.55,0,0,1,8-.1A3.08,3.08,0,0,1,412.64,343.37Z" style="opacity:0.2"></path><path d="M417.62,299.42v43.95H380c-.24-.54-.49-1.07-.73-1.59l-.32-.68c-1.86-3.93-3.6-7.31-3.71-7.53h0a11.18,11.18,0,0,1,1.35.37c.27.09.58.2.9.33l.63.27c.31.15.64.31,1,.5a6.82,6.82,0,0,1,.68.41l.69.47c.22.17.45.35.67.54a9.61,9.61,0,0,1,2.29,2.91s.08-18.89,6-22l.37-.18a6.25,6.25,0,0,1,.69-.28l.66-.18a3.78,3.78,0,0,1,2.22.15,3.28,3.28,0,0,1,.67.35,3.06,3.06,0,0,1,.58.44l.21.21a4.75,4.75,0,0,1,.57.69c.11.16.22.32.31.48h0c.1.17.19.33.27.5a2,2,0,0,1,.13.25c.07.15.13.29.18.43a11.34,11.34,0,0,1,.48,1.47,0,0,0,0,1,0,0l.05.24h0l.08-.08.11-.11.16-.16.2-.2c2-1.94,8.69-8.18,13.45-8.84,0,0-.87-.65-2.07-1.72l-.76-.69c-2.84-2.66-6.71-7.06-6-10.76.57-3,4.12-.35,7.34,2.86,1,1,2,2.11,2.89,3.07l1.49,1.72,1.08,1.31c0-.08.08-.5.22-1.15l.06-.32c.08-.39.18-.84.3-1.33s.26-1,.42-1.57A24.82,24.82,0,0,1,417.62,299.42Z" style="fill:#407BFF"></path><path d="M383.63,343.37H380c-.24-.54-.49-1.07-.73-1.59l-.32-.68c-1.86-3.93-3.6-7.31-3.71-7.53A72.42,72.42,0,0,1,383.63,343.37Z" style="opacity:0.2"></path><path d="M390.3,340.18a16.84,16.84,0,0,1,6.78,3.19h-8.65A20.61,20.61,0,0,1,390.3,340.18Z" style="opacity:0.2"></path><path d="M404.72,343.37H401c.05-.65.13-1.36.25-2.11C401.62,339,403.32,341.11,404.72,343.37Z" style="opacity:0.2"></path><path d="M417.62,341.1v2.27H407a16,16,0,0,1,2.42-6.81c2.74-3.8,6.13,6,6.13,6A7.31,7.31,0,0,1,417.62,341.1Z" style="opacity:0.2"></path><path d="M417.62,299.42a24.82,24.82,0,0,0-1.77,4.56c-.16.55-.3,1.08-.42,1.57s-.22.94-.3,1.33l-.06.32c0,.09,0,.18-.05.26s-.07.39-.1.53a.13.13,0,0,1,0,.06c0,.2-.05.31-.05.31h0L413.77,307l-1.49-1.72c-.85-1-1.86-2-2.89-3.07-3.22-3.21-6.77-5.9-7.34-2.86-.69,3.7,3.18,8.1,6,10.76l.76.69c1.2,1.07,2.07,1.72,2.07,1.72-4.76.66-11.47,6.9-13.45,8.84l-.2.2-.16.16-.11.11-.08.08,0,0h0l-.06-.23a0,0,0,0,0,0,0c0-.08,0-.17-.07-.27s-.1-.35-.17-.55a5.89,5.89,0,0,0-.24-.65c-.05-.14-.11-.28-.18-.43a2,2,0,0,0-.13-.25c-.08-.17-.17-.33-.27-.5h0c-.09-.16-.2-.32-.31-.48a4.75,4.75,0,0,0-.57-.69l-.21-.21a3.06,3.06,0,0,0-.58-.44,3.28,3.28,0,0,0-.67-.35l-.31-.11a3.26,3.26,0,0,0-.65-.12,4.6,4.6,0,0,0-1.26.08l-.66.18c-.22.08-.45.17-.69.28l-.37.18c-5.93,3.1-6,22-6,22a9.61,9.61,0,0,0-2.29-2.91c-.22-.19-.45-.37-.67-.54l-.69-.47c-.22-.15-.45-.28-.68-.41s-.67-.35-1-.5l-.63-.27c-.32-.13-.63-.24-.9-.33s-.68-.21-.91-.27l-.23,0h-.06l-.09,0h-.05c.11.22,1.85,3.6,3.71,7.53l.32.68c.24.52.49,1.05.73,1.59" style="fill:none;stroke:#263238;stroke-linecap:round;stroke-linejoin:round"></path><path d="M240.16,331.12s-3.34,7.58-4.77,12.25h-3.21c0,.11-.07.21-.1.32l-.06-.32H220.89l-.06.1s0-.05,0-.1H171.09c0,.15,0,.3,0,.44l-.84-.44A158.89,158.89,0,0,1,150.56,331c-.93-.68-1.43-1.09-1.49-1.13h0c.51-.28,1-.54,1.43-.76s.88-.43,1.27-.61c4-1.8,5.34-1.24,5.48-1.18l-.3-.28a6.54,6.54,0,0,1-1.17-1.54,5.13,5.13,0,0,1-.43-1c-1.21-3.51,1-7.14,1-7.14a12.94,12.94,0,0,1,7.93,1.24l.79.4.73.42.84.55c.45.3.84.59,1.15.84s.62.52.79.68l.15.14,0,0h0c-3.06-4.1,2-11.19,2-11.19a6.9,6.9,0,0,1,5.22,1l.36.22a16.42,16.42,0,0,1,2.85,2.29l.3.3a17.22,17.22,0,0,1,1.23,1.34l.35.42c.32.39.52.67.6.76-1.7-3.32,1-9.47,1-9.47,4.34,2.54,5.16,9.58,5.2,9.91l.37-.37a8.11,8.11,0,0,1,1.29-1,12.13,12.13,0,0,1,1.46-.81,15.52,15.52,0,0,1,1.59-.64l.54-.18,1.08-.31h0c.36-.09.72-.18,1.07-.25a31,31,0,0,1,5.59-.65s0-.1-.06-.27-.14-.6-.22-1.05h0c-.07-.34-.14-.73-.2-1.14s-.07-.59-.11-.89-.06-.61-.08-.91c-.1-1.69,0-3.42.86-4.23l.19-.17.23-.14a1.9,1.9,0,0,1,1-.17,2.51,2.51,0,0,1,.72.16,3.27,3.27,0,0,1,1,.56,2.61,2.61,0,0,1,.31.27l.29.29c.1.1.19.21.29.32a10.6,10.6,0,0,1,1,1.52c.15.28.3.56.44.85.27.58.52,1.17.74,1.74.11.28.21.56.3.83a27.22,27.22,0,0,1,.84,2.91h0s.84-1.19,2-2.69l.94-1.16c.66-.79,1.38-1.6,2.08-2.32a12.7,12.7,0,0,1,2.34-2h0a1.72,1.72,0,0,1,1.4-.31,1.18,1.18,0,0,1,.66.91,5.92,5.92,0,0,1-.73,4c-.19.37-.4.73-.62,1.09a25.07,25.07,0,0,1-3.39,4.14l-.24.24-.44.42c-.47.44-.77.7-.77.7h0a8.1,8.1,0,0,1,2.2.54,10.9,10.9,0,0,1,1.41.63c.48.24,1,.5,1.42.78a43.75,43.75,0,0,1,6.22,4.62h0a6.76,6.76,0,0,1,.22-1c.07-.24.16-.5.26-.76h0l.18-.4a6.21,6.21,0,0,1,.34-.61,3.7,3.7,0,0,1,.59-.73,3.65,3.65,0,0,1,.36-.31h0a3,3,0,0,1,2.54-.43c.15,0,.31.08.48.14l.51.21a3.91,3.91,0,0,1,1.23.9c3.67,3.82,4.47,15.77,4.47,15.77,1.62-3.78,6-4.86,6-4.86Z" style="fill:#407BFF"></path><path d="M240.16,331.12s-3.34,7.58-4.77,12.25h-3.21c0,.11-.07.21-.1.32l-.06-.32H220.89l-.06.1s0-.05,0-.1H171.09c0,.15,0,.3,0,.44l-.84-.44A158.89,158.89,0,0,1,150.56,331c-.93-.68-1.43-1.09-1.49-1.13h0c.51-.28,1-.54,1.43-.76s.88-.43,1.27-.61c4-1.8,5.34-1.24,5.48-1.18l-.3-.28a6.54,6.54,0,0,1-1.17-1.54,5.13,5.13,0,0,1-.43-1c-1.21-3.51,1-7.14,1-7.14a12.94,12.94,0,0,1,7.93,1.24l.79.4.73.42.84.55c.45.3.84.59,1.15.84s.62.52.79.68l.15.14,0,0h0c-3.06-4.1,2-11.19,2-11.19a6.9,6.9,0,0,1,5.22,1l.36.22a16.42,16.42,0,0,1,2.85,2.29l.3.3a17.22,17.22,0,0,1,1.23,1.34l.35.42c.32.39.52.67.6.76-1.7-3.32,1-9.47,1-9.47,4.34,2.54,5.16,9.58,5.2,9.91l.37-.37a8.11,8.11,0,0,1,1.29-1,12.13,12.13,0,0,1,1.46-.81,15.52,15.52,0,0,1,1.59-.64l.54-.18,1.08-.31h0c.36-.09.72-.18,1.07-.25a31,31,0,0,1,5.59-.65s0-.1-.06-.27-.14-.6-.22-1.05h0c-.07-.34-.14-.73-.2-1.14s-.07-.59-.11-.89-.06-.61-.08-.91c-.1-1.69,0-3.42.86-4.23l.19-.17.23-.14a1.9,1.9,0,0,1,1-.17,2.51,2.51,0,0,1,.72.16,3.27,3.27,0,0,1,1,.56,2.61,2.61,0,0,1,.31.27l.29.29c.1.1.19.21.29.32a10.6,10.6,0,0,1,1,1.52c.15.28.3.56.44.85.27.58.52,1.17.74,1.74.11.28.21.56.3.83a27.22,27.22,0,0,1,.84,2.91h0s.84-1.19,2-2.69l.94-1.16c.66-.79,1.38-1.6,2.08-2.32a12.7,12.7,0,0,1,2.34-2h0a1.72,1.72,0,0,1,1.4-.31,1.18,1.18,0,0,1,.66.91,5.92,5.92,0,0,1-.73,4c-.19.37-.4.73-.62,1.09a25.07,25.07,0,0,1-3.39,4.14l-.24.24-.44.42c-.47.44-.77.7-.77.7h0a8.1,8.1,0,0,1,2.2.54,10.9,10.9,0,0,1,1.41.63c.48.24,1,.5,1.42.78a43.75,43.75,0,0,1,6.22,4.62h0a6.76,6.76,0,0,1,.22-1c.07-.24.16-.5.26-.76h0l.18-.4a6.21,6.21,0,0,1,.34-.61,3.7,3.7,0,0,1,.59-.73,3.65,3.65,0,0,1,.36-.31h0a3,3,0,0,1,2.54-.43c.15,0,.31.08.48.14l.51.21a3.91,3.91,0,0,1,1.23.9c3.67,3.82,4.47,15.77,4.47,15.77,1.62-3.78,6-4.86,6-4.86Z" style="opacity:0.2"></path><path d="M206.24,328.33a3.17,3.17,0,0,0-4.24-.87,60.35,60.35,0,0,0-7.31,6.19s-2.41-7-6.51-2.16-4.26,8.53-4.28,8.78c-.21-.4-5.86-11.78-10.09-4.87a17.84,17.84,0,0,0-2.72,8c0,.15,0,.3,0,.44l-.84-.44A158.89,158.89,0,0,1,150.56,331c5.77-.91,10.84,5.58,11.12,5.94,0-.45,0-7.15,3.32-7.81s8.79,1.5,8.79,1.5c0-4.73,4.4-9.76,4.4-9.76a16.27,16.27,0,0,1,7,6.75c.4-5.37,7.78-9.15,7.78-9.15,2.33,3.22,3.26,9.33,3.26,9.33s4.9-6,6.36-4.74C206.1,326,205.41,327.23,206.24,328.33Z" style="opacity:0.2"></path><path d="M206.3,328.41a2.85,2.85,0,0,1,.22.28Z" style="opacity:0.2"></path><path d="M220.84,343.37h-9.49a11.31,11.31,0,0,0-2.56-1.61,12.54,12.54,0,0,0-3.81,1.61h-1.93a6.75,6.75,0,0,1,1.14-.85s-3.15-4.77.37-4.37,5,1.81,5,1.81,2.14-7.69,4.43-4.89,2.59,7.83,2.59,7.83,3.22-7.64,3.92-4.6A15.65,15.65,0,0,1,220.84,343.37Z" style="opacity:0.2"></path><path d="M228.87,337a16.27,16.27,0,0,1,3.15,6.42H220.89A13.32,13.32,0,0,1,228.87,337Z" style="opacity:0.2"></path><path d="M240.16,331.12s-3.34,7.58-4.77,12.25h-3.21c1.5-5.05,7.51-11.73,7.95-12.21v0Z" style="opacity:0.2"></path><path d="M149.06,329.9h0c.5-.29,1-.54,1.42-.77s.88-.43,1.27-.61c4-1.8,5.34-1.24,5.48-1.18" style="fill:none;stroke:#263238;stroke-linecap:round;stroke-linejoin:round"></path><path d="M157.25,327.35h0l-.3-.28a6.54,6.54,0,0,1-1.17-1.54,6.86,6.86,0,0,1-.43-1c-1.21-3.51,1-7.14,1-7.14a12.94,12.94,0,0,1,7.93,1.24c.27.13.54.26.79.4l.73.42c.3.18.58.37.84.55.45.3.84.59,1.15.84a10.4,10.4,0,0,1,.79.68l.15.14,0,0h0c-3.06-4.1,2-11.19,2-11.19a6.9,6.9,0,0,1,5.22,1l.36.22a16.42,16.42,0,0,1,2.85,2.29q.17.15.3.3a17.22,17.22,0,0,1,1.23,1.34l.35.42c.32.39.52.67.6.76" style="fill:none;stroke:#263238;stroke-linecap:round;stroke-linejoin:round"></path><path d="M181.7,316.91l0,0c-1.7-3.32,1-9.47,1-9.47,4.34,2.54,5.16,9.58,5.2,9.91" style="fill:none;stroke:#263238;stroke-linecap:round;stroke-linejoin:round"></path><path d="M187.88,317.32h0l.37-.37a9.28,9.28,0,0,1,1.29-1,12.13,12.13,0,0,1,1.46-.81c.52-.24,1.05-.45,1.59-.64l.54-.18,1.08-.31h0c.36-.09.72-.18,1.07-.25a31,31,0,0,1,5.59-.65h0s0-.1-.07-.27-.13-.6-.22-1.05h0c-.06-.34-.13-.73-.2-1.14s-.07-.59-.11-.89-.06-.61-.08-.91c-.1-1.69,0-3.42.86-4.23l.19-.17.23-.14a1.92,1.92,0,0,1,1-.16,2.88,2.88,0,0,1,.72.15,3.85,3.85,0,0,1,1.3.83l.29.29c.1.1.19.21.29.32a10.6,10.6,0,0,1,1,1.52c.15.28.3.56.44.85.27.58.52,1.17.74,1.74.11.28.21.56.3.83a30.23,30.23,0,0,1,.83,2.92h0c.11-.16.91-1.29,2-2.68.29-.37.61-.77.94-1.16.65-.79,1.36-1.6,2.08-2.32a11.34,11.34,0,0,1,2.34-2h0a1.72,1.72,0,0,1,1.4-.31,1.18,1.18,0,0,1,.66.91,5.92,5.92,0,0,1-.73,4c-.19.37-.4.73-.62,1.09a25.07,25.07,0,0,1-3.39,4.14l-.24.24-.44.42c-.47.44-.77.7-.77.7a7.73,7.73,0,0,1,2.19.55,10.9,10.9,0,0,1,1.41.63c.48.23,1,.5,1.42.78a43.75,43.75,0,0,1,6.22,4.62l0,0h0a7.15,7.15,0,0,1,.23-1,5.72,5.72,0,0,1,.26-.76h0a3.52,3.52,0,0,1,.18-.4,5.24,5.24,0,0,1,.34-.61,3.7,3.7,0,0,1,.59-.73,2.67,2.67,0,0,1,.36-.31h0a3,3,0,0,1,2.54-.43c.15,0,.31.08.48.14l.51.2a3.16,3.16,0,0,1,.84.54,3.41,3.41,0,0,1,.39.37c3.67,3.82,4.47,15.77,4.47,15.77,1.62-3.78,6-4.86,6-4.86v0c-.24.56-3.39,7.73-4.75,12.21" style="fill:none;stroke:#263238;stroke-linecap:round;stroke-linejoin:round"></path><path d="M231.57,281.59c-.78.72-1.54,1.45-2.29,2.19s-1.6,1.58-2.37,2.38h0q-2.31,2.37-4.41,4.79h0c-.78.89-1.54,1.78-2.27,2.68h0c-2.14,2.59-4.13,5.21-6,7.83h0c-.78,1.1-1.52,2.21-2.24,3.31-1.63,2.47-3.13,4.94-4.51,7.39v0c-.5.88-1,1.75-1.45,2.63-2,3.66-3.66,7.28-5.15,10.8-.44,1-.87,2.08-1.26,3.1-1.57,4-2.86,7.79-3.92,11.4h0c-.22.74-.42,1.47-.62,2.18-.1.35-.19.7-.29,1" style="fill:none;stroke:#263238;stroke-linecap:round;stroke-linejoin:round"></path><path d="M195.67,340.15s-1.15-11.47-7.3-15.57-2.39,14.06,6.68,17.75,20.16-6.17,17.56-10.48S195.67,340.15,195.67,340.15Z" style="fill:#407BFF"></path><path d="M200.86,325.64s1.61-12.92-4.35-15.08-.14,15.43,3.09,18.18,20-4.33,18.78-8.81S200.86,325.64,200.86,325.64Z" style="fill:#407BFF"></path><path d="M207.46,312.21s1.54-10.42-1.48-12.5-2.77,8.7,0,15.13c0,0,13.78,2.5,14.13-4.19S207.46,312.21,207.46,312.21Z" style="fill:#407BFF"></path><path d="M214.22,301.48s4.81-9.35,1.12-10.39-4.1,11.6-3.37,13.7c0,0,11.42-.57,11.82-4.69S214.22,301.48,214.22,301.48Z" style="fill:#407BFF"></path><path d="M222.48,291s2.39-5.94.89-7.27-3.17,9.95-3.17,9.95,8.47-.22,9.08-2S222.48,291,222.48,291Z" style="fill:#407BFF"></path><path d="M229.27,283.78s1.78-5.15.62-5.77-3,8.15-3,8.15,7.5.22,7.6-1.43S229.27,283.78,229.27,283.78Z" style="fill:#407BFF"></path><path d="M237.5,277.31c-.76-1.63-3.95.82-6.11,4.27C231.39,281.58,238.81,280.1,237.5,277.31Z" style="fill:#407BFF"></path><g style="opacity:0.4"><path d="M195.67,340.15s-1.15-11.47-7.3-15.57-2.39,14.06,6.68,17.75,20.16-6.17,17.56-10.48S195.67,340.15,195.67,340.15Z"></path><path d="M200.86,325.64s1.61-12.92-4.35-15.08-.14,15.43,3.09,18.18,20-4.33,18.78-8.81S200.86,325.64,200.86,325.64Z"></path><path d="M207.46,312.21s1.54-10.42-1.48-12.5-2.77,8.7,0,15.13c0,0,13.78,2.5,14.13-4.19S207.46,312.21,207.46,312.21Z"></path><path d="M214.22,301.48s4.81-9.35,1.12-10.39-4.1,11.6-3.37,13.7c0,0,11.42-.57,11.82-4.69S214.22,301.48,214.22,301.48Z"></path><path d="M222.48,291s2.39-5.94.89-7.27-3.17,9.95-3.17,9.95,8.47-.22,9.08-2S222.48,291,222.48,291Z"></path><path d="M229.27,283.78s1.78-5.15.62-5.77-3,8.15-3,8.15,7.5.22,7.6-1.43S229.27,283.78,229.27,283.78Z"></path><path d="M237.5,277.31c-.76-1.63-3.95.82-6.11,4.27C231.39,281.58,238.81,280.1,237.5,277.31Z"></path></g><path d="M195.67,340.15s-1.15-11.47-7.3-15.57-2.39,14.06,6.68,17.75,20.16-6.17,17.56-10.48S195.67,340.15,195.67,340.15Z" style="fill:none;stroke:#263238;stroke-linecap:round;stroke-linejoin:round"></path><path d="M200.86,325.64s1.61-12.92-4.35-15.08-.14,15.43,3.09,18.18,20-4.33,18.78-8.81S200.86,325.64,200.86,325.64Z" style="fill:none;stroke:#263238;stroke-linecap:round;stroke-linejoin:round"></path><path d="M207.46,312.21s1.54-10.42-1.48-12.5-2.77,8.7,0,15.13c0,0,13.78,2.5,14.13-4.19S207.46,312.21,207.46,312.21Z" style="fill:none;stroke:#263238;stroke-linecap:round;stroke-linejoin:round"></path><path d="M214.22,301.48s4.81-9.35,1.12-10.39-4.1,11.6-3.37,13.7c0,0,11.42-.57,11.82-4.69S214.22,301.48,214.22,301.48Z" style="fill:none;stroke:#263238;stroke-linecap:round;stroke-linejoin:round"></path><path d="M222.48,291s2.39-5.94.89-7.27-3.17,9.95-3.17,9.95,8.47-.22,9.08-2S222.48,291,222.48,291Z" style="fill:none;stroke:#263238;stroke-linecap:round;stroke-linejoin:round"></path><path d="M229.27,283.78s1.78-5.15.62-5.77-3,8.15-3,8.15,7.5.22,7.6-1.43S229.27,283.78,229.27,283.78Z" style="fill:none;stroke:#263238;stroke-linecap:round;stroke-linejoin:round"></path><path d="M237.5,277.31c-.76-1.63-3.95.82-6.11,4.27C231.39,281.58,238.81,280.1,237.5,277.31Z" style="fill:none;stroke:#263238;stroke-linecap:round;stroke-linejoin:round"></path><path d="M151.47,334S174,289.46,155,237.15" style="fill:none;stroke:#263238;stroke-linecap:round;stroke-linejoin:round"></path><path d="M160.28,305.62s6.24-9.68,13.59-10.54-4.28,13.61-14,12.77S144.69,293.18,149,290.52,160.28,305.62,160.28,305.62Z" style="fill:#407BFF"></path><path d="M162.26,290.34S166.71,278.1,173,278.9s-6.9,13.8-11,14.78-15.86-13-12.72-16.4S162.26,290.34,162.26,290.34Z" style="fill:#407BFF"></path><path d="M162.5,275.39s3.37-10,7-10.47-1.49,9-6.91,13.46c0,0-13.4-4-10.68-10.16S162.5,275.39,162.5,275.39Z" style="fill:#407BFF"></path><path d="M161.36,262.75s0-10.51,3.73-9.76-1.63,12.2-3.24,13.74c0,0-9.9-5.72-8.38-9.57S161.36,262.75,161.36,262.75Z" style="fill:#407BFF"></path><path d="M158.79,249.62s.57-6.37,2.52-6.88-1.71,10.31-1.71,10.31-7.44-4.05-7.16-5.94S158.79,249.62,158.79,249.62Z" style="fill:#407BFF"></path><path d="M156,240.14s.76-5.4,2.08-5.42-1.05,8.62-1.05,8.62-6.77-3.22-6.11-4.73S156,240.14,156,240.14Z" style="fill:#407BFF"></path><path d="M151.63,230.63c1.42-1.1,3.14,2.53,3.5,6.59C155.13,237.22,149.2,232.52,151.63,230.63Z" style="fill:#407BFF"></path><g style="opacity:0.6000000000000001"><path d="M160.28,305.62s6.24-9.68,13.59-10.54-4.28,13.61-14,12.77S144.69,293.18,149,290.52,160.28,305.62,160.28,305.62Z"></path><path d="M162.26,290.34S166.71,278.1,173,278.9s-6.9,13.8-11,14.78-15.86-13-12.72-16.4S162.26,290.34,162.26,290.34Z"></path><path d="M162.5,275.39s3.37-10,7-10.47-1.49,9-6.91,13.46c0,0-13.4-4-10.68-10.16S162.5,275.39,162.5,275.39Z"></path><path d="M161.36,262.75s0-10.51,3.73-9.76-1.63,12.2-3.24,13.74c0,0-9.9-5.72-8.38-9.57S161.36,262.75,161.36,262.75Z"></path><path d="M158.79,249.62s.57-6.37,2.52-6.88-1.71,10.31-1.71,10.31-7.44-4.05-7.16-5.94S158.79,249.62,158.79,249.62Z"></path><path d="M156,240.14s.76-5.4,2.08-5.42-1.05,8.62-1.05,8.62-6.77-3.22-6.11-4.73S156,240.14,156,240.14Z"></path><path d="M151.63,230.63c1.42-1.1,3.14,2.53,3.5,6.59C155.13,237.22,149.2,232.52,151.63,230.63Z"></path></g><path d="M160.28,305.62s6.24-9.68,13.59-10.54-4.28,13.61-14,12.77S144.69,293.18,149,290.52,160.28,305.62,160.28,305.62Z" style="fill:none;stroke:#263238;stroke-linecap:round;stroke-linejoin:round"></path><path d="M162.26,290.34S166.71,278.1,173,278.9s-6.9,13.8-11,14.78-15.86-13-12.72-16.4S162.26,290.34,162.26,290.34Z" style="fill:none;stroke:#263238;stroke-linecap:round;stroke-linejoin:round"></path><path d="M162.5,275.39s3.37-10,7-10.47-1.49,9-6.91,13.46c0,0-13.4-4-10.68-10.16S162.5,275.39,162.5,275.39Z" style="fill:none;stroke:#263238;stroke-linecap:round;stroke-linejoin:round"></path><path d="M161.36,262.75s0-10.51,3.73-9.76-1.63,12.2-3.24,13.74c0,0-9.9-5.72-8.38-9.57S161.36,262.75,161.36,262.75Z" style="fill:none;stroke:#263238;stroke-linecap:round;stroke-linejoin:round"></path><path d="M158.79,249.62s.57-6.37,2.52-6.88-1.71,10.31-1.71,10.31-7.44-4.05-7.16-5.94S158.79,249.62,158.79,249.62Z" style="fill:none;stroke:#263238;stroke-linecap:round;stroke-linejoin:round"></path><path d="M156,240.14s.76-5.4,2.08-5.42-1.05,8.62-1.05,8.62-6.77-3.22-6.11-4.73S156,240.14,156,240.14Z" style="fill:none;stroke:#263238;stroke-linecap:round;stroke-linejoin:round"></path><path d="M151.63,230.63c1.42-1.1,3.14,2.53,3.5,6.59C155.13,237.22,149.2,232.52,151.63,230.63Z" style="fill:none;stroke:#263238;stroke-linecap:round;stroke-linejoin:round"></path><path d="M196.56,343.37H144.75V302a4.06,4.06,0,0,1,.76-.07,3.47,3.47,0,0,1,1,.14,7.63,7.63,0,0,1,.73.26,5.57,5.57,0,0,1,.6.32l.25.18.22.19c2.1,1.93,0,5.3-.14,5.58h0c.1,0,.92,0,2.12,0l1,0c.6,0,1.26.07,1.94.13a25.38,25.38,0,0,1,5.48,1l.39.13a7.89,7.89,0,0,1,2,1s-1.44-8.82,1.78-11.78L163,299l.18-.15a1.58,1.58,0,0,1,.48-.25l.14,0a.89.89,0,0,1,.88.32,2,2,0,0,1,.27.4,5.44,5.44,0,0,1,.45,1.41c0,.15.06.32.09.49.05.34.1.71.13,1.09,0,.18,0,.38.05.57a57,57,0,0,1-.18,7.87h0l.06-.05.24-.18.18-.13.74-.5.31-.2h0c.23-.15.47-.3.73-.45L168,309l.51-.3c2-1.13,4.59-2.27,6.49-1.89a2.54,2.54,0,0,1,.47.14,2.58,2.58,0,0,1,.68.35,1.71,1.71,0,0,1,.72,1,2,2,0,0,1,0,.74,2.23,2.23,0,0,1-.1.43,4.37,4.37,0,0,1-.37.8,6.23,6.23,0,0,1-.53.81l-.44.55c-.3.35-.63.69-1,1a28.35,28.35,0,0,1-2.94,2.47v0l.29.25.16.15.18.17.21.2.49.49.28.28.59.63a25.14,25.14,0,0,1,1.71,2l.57.78.32.46c.31.47.61,1,.89,1.47a10.62,10.62,0,0,1,.51,1,10.09,10.09,0,0,1,1,3.69h0l0,0,.06-.06.17-.15c.2-.18.51-.43.9-.74s.65-.49,1-.75l.29-.2c.41-.27.86-.54,1.33-.8l.74-.38.77-.34a9.12,9.12,0,0,1,5-.72s-.25.82-.73,1.94c-.05.14-.12.29-.19.45-.19.44-.42.91-.68,1.39-.11.2-.22.4-.34.6s-.29.49-.46.73-.25.37-.38.54a10.27,10.27,0,0,1-.85,1c-.17.17-.35.33-.53.48l-.29.22-.3.2a3.78,3.78,0,0,1-.63.33l.61-.13.45-.09.3-.05.34-.05c.58-.09,1.27-.18,2-.23l.88,0c2.8-.08,6.15.41,7.83,2.81,0,0-.74,8.71-5.76,9.83A17.83,17.83,0,0,1,196.56,343.37Z" style="fill:#407BFF"></path><path d="M182.4,343.37H168.47a20.57,20.57,0,0,0,.82-5.94c0-6.33-6.36-2.57-6.36-2.57a60.15,60.15,0,0,0-1.55-9.45,3.17,3.17,0,0,0-3.79-2.09c1.34-.3,1.59-1.67,6.16-1.63,1.9,0,1.78,7.73,1.78,7.73s4.67-4.05,8.52-5c0,0,3.18,7.66,0,12a16.28,16.28,0,0,1,9.71-.6A21.75,21.75,0,0,1,182.4,343.37Z" style="opacity:0.2"></path><path d="M157.49,323.34l-.35.07Z" style="opacity:0.2"></path><path d="M150,335.45a11.21,11.21,0,0,1-.64,7.92h-.22a14.5,14.5,0,0,0-2.15-11.48,11.37,11.37,0,0,0-2.19-.4v-7.12a9.19,9.19,0,0,1,2.58-.93c3.56-.65.21,6.6.21,6.6s2-.13,5,1.85S150,335.45,150,335.45Z" style="opacity:0.2"></path><path d="M183.71,330.52l.61-.13.45-.09.3-.05.34-.05c.58-.09,1.27-.18,2-.23l.88,0c2.8-.08,6.15.41,7.83,2.81,0,0-.74,8.71-5.76,9.83a17.83,17.83,0,0,1,6.18.8h0" style="fill:none;stroke:#263238;stroke-linecap:round;stroke-linejoin:round"></path><path d="M144.75,302a4.06,4.06,0,0,1,.76-.07,3.77,3.77,0,0,1,1,.14,7.63,7.63,0,0,1,.73.26,5.57,5.57,0,0,1,.6.32l.25.18.22.19c2.1,1.93,0,5.3-.14,5.58h0s1.29,0,3.08,0c.6,0,1.26.07,1.94.13a25.38,25.38,0,0,1,5.48,1l.39.13a7.89,7.89,0,0,1,2,1s-1.44-8.82,1.78-11.78L163,299a1.41,1.41,0,0,1,.18-.14,1.91,1.91,0,0,1,.48-.26l.14,0a.89.89,0,0,1,.88.32,2,2,0,0,1,.27.4,5.44,5.44,0,0,1,.45,1.41c0,.15.06.32.09.49.05.34.1.71.13,1.09,0,.18,0,.38.05.57a57,57,0,0,1-.18,7.87h0l.06-.05.24-.18.92-.63.31-.2h0c.23-.15.47-.3.73-.45L168,309l.51-.3c2-1.13,4.59-2.27,6.49-1.89.17,0,.32.09.47.14a2.89,2.89,0,0,1,.67.36,1.73,1.73,0,0,1,.74,1.77,2.23,2.23,0,0,1-.1.43,4.37,4.37,0,0,1-.37.8,7.47,7.47,0,0,1-.53.81l-.44.55c-.3.35-.63.69-1,1a28.35,28.35,0,0,1-2.94,2.47h0l0,0,.29.25.16.15.18.17.21.2.49.49.28.28.59.63A28.66,28.66,0,0,1,176,320.2l.32.46c.31.47.61,1,.89,1.47.18.33.35.66.51,1a10.09,10.09,0,0,1,1,3.69h0l0,0,.06-.06.17-.15c.2-.18.51-.43.9-.74s.65-.48,1-.75l.29-.2c.41-.27.86-.54,1.33-.8l.74-.38.77-.34a9.12,9.12,0,0,1,5-.72s-.25.82-.73,1.94c-.05.14-.12.29-.19.45-.19.44-.42.91-.68,1.39-.11.2-.22.4-.34.6s-.29.49-.46.73-.25.37-.38.54a10.27,10.27,0,0,1-.85,1,5.89,5.89,0,0,1-.53.48l-.29.22a2.61,2.61,0,0,1-.3.2,3.78,3.78,0,0,1-.63.33h0" style="fill:none;stroke:#263238;stroke-linecap:round;stroke-linejoin:round"></path></g><g id="freepik--Birds--inject-145"><path d="M195.51,102.87s-1.71-6.85-5.27-8.11-8.31-1-9.43-2.5-.14,5.41,5.21,10.22,9.49,5.21,9.49,5.47Z" style="fill:#407BFF"></path><g style="clip-path:url(#freepik--clip-path-9--inject-145)"><path d="M195.51,102.87s-1.71-6.85-5.27-8.11-8.31-1-9.43-2.5-.14,5.41,5.21,10.22,9.49,5.21,9.49,5.47Z" style="opacity:0.1"></path></g><path d="M195.51,102.87s-1.71-6.85-5.27-8.11-8.31-1-9.43-2.5-.14,5.41,5.21,10.22,9.49,5.21,9.49,5.47Z" style="fill:none;stroke:#263238;stroke-linecap:round;stroke-linejoin:round"></path><path d="M182.59,94.76s.1,1.82,2.63,2.48c0,0-.92.53,0,2s4.67,2,4.67,2-1,.92-.64,1.71,4.81,1,4.81,1" style="fill:none;stroke:#263238;stroke-linecap:round;stroke-linejoin:round"></path><path d="M186.48,95.52s-1.77,1.58,2.77,2.47" style="fill:none;stroke:#263238;stroke-linecap:round;stroke-linejoin:round"></path><path d="M219.91,112.43a7.12,7.12,0,0,1-7.22,3s-1.59,1.76-8.61-1.48S219.91,112.43,219.91,112.43Z" style="fill:#407BFF;stroke:#263238;stroke-linecap:round;stroke-linejoin:round"></path><path d="M191,97c4.95-1.32,8.17,6.06,10.28,6.33s5.25-6.71,16.54-9.24,15.31-6.19,15.31-6.19.47,16.94-22.95,21.16c0,0,4.35,2.67,12.8,2.18a16.48,16.48,0,0,1-13.45,2.06l-1.46-.42c-3.72,3.5-9.62,3.35-12.45,0a11.94,11.94,0,0,1-2.84-7.58S186.18,98.29,191,97Z" style="fill:#407BFF;stroke:#263238;stroke-linecap:round;stroke-linejoin:round"></path><polygon points="190.33 97.75 187.76 97.9 189.26 99.02 188.22 99.24 189.89 101.23 192.01 99.95 190.33 97.75" style="fill:#757575;stroke:#263238;stroke-linecap:round;stroke-linejoin:round"></polygon><path d="M208.83,106.24s5.67,1.18,6.46,0-.79-2.77-.79-2.77,5.41-.28,7-1.79-2-1.68-2-1.68,6.46-1.41,7.91-3.39-2.64-2.37-2.64-2.37,5.22-1.15,6.2-3.3" style="fill:none;stroke:#263238;stroke-linecap:round;stroke-linejoin:round"></path><path d="M209.92,103s3.66,1.28,4.55-.59-.2-3.06,0-3.21,3.85,1.36,4.84-.39a2.78,2.78,0,0,0,0-3s4.32.3,5.47-1.58" style="fill:none;stroke:#263238;stroke-linecap:round;stroke-linejoin:round"></path><path d="M194.21,99.24a.72.72,0,1,1-.71-.72A.71.71,0,0,1,194.21,99.24Z" style="fill:#263238"></path><path d="M305.51,139.61s-1.74-4.8-9.31-2.72-9.95,7-9.95,7,7.52,1.71,10.68.52,10.55-.13,10.55-.13Z" style="fill:#407BFF"></path><g style="clip-path:url(#freepik--clip-path-10--inject-145)"><path d="M305.51,139.61s-1.74-4.8-9.31-2.72-9.95,7-9.95,7,7.52,1.71,10.68.52,10.55-.13,10.55-.13Z" style="opacity:0.2"></path></g><path d="M305.51,139.61s-1.74-4.8-9.31-2.72-9.95,7-9.95,7,7.52,1.71,10.68.52,10.55-.13,10.55-.13Z" style="fill:none;stroke:#263238;stroke-linecap:round;stroke-linejoin:round"></path><path d="M300,136.23c3.64-1.59,7,3.68,8.64,3.63s3.84-4.56,9-4.56c6.6,0,20.17,7,20.17,7-9,.59-14.37-2.71-21.65.87,0,0,3.66,1.53,10.07.14a12.79,12.79,0,0,1-10.06,3.19l-1.17-.15c-2.43,3.13-7,3.72-9.54,1.49a9.26,9.26,0,0,1-3.09-5.47S296.45,137.8,300,136.23Z" style="fill:#407BFF;stroke:#263238;stroke-linecap:round;stroke-linejoin:round"></path><polygon points="299.57 136.88 297.62 137.31 298.9 137.99 298.13 138.28 299.65 139.61 301.12 138.37 299.57 136.88" style="fill:#757575;stroke:#263238;stroke-linecap:round;stroke-linejoin:round"></polygon><path d="M302.72,137.56a.56.56,0,0,1-.46.64.56.56,0,0,1-.17-1.1A.55.55,0,0,1,302.72,137.56Z" style="fill:#263238"></path><path d="M387.38,163.05s-6.46-3.34-9.6-3.34c-2.44,0-3.49,2.15-4.27,2.17s-2.38-2.48-4.11-1.72l-.11.06a6.4,6.4,0,0,0-1.7.25,7.34,7.34,0,0,0-4.73,3.3s3.57.82,5.08.25a8.09,8.09,0,0,1,2.76-.25,4.4,4.4,0,0,0,1.29,1.91,3.24,3.24,0,0,0,4.54-.7l.55.07a6.09,6.09,0,0,0,4.79-1.52,8.68,8.68,0,0,1-4.79-.06C380.54,161.76,383.11,163.33,387.38,163.05Z" style="fill:#407BFF"></path><path d="M387.38,163.05s-6.46-3.34-9.6-3.34c-2.44,0-3.49,2.15-4.27,2.17s-2.38-2.48-4.11-1.72l-.11.06a6.4,6.4,0,0,0-1.7.25,7.34,7.34,0,0,0-4.73,3.3s3.57.82,5.08.25a8.09,8.09,0,0,1,2.76-.25,4.4,4.4,0,0,0,1.29,1.91,3.24,3.24,0,0,0,4.54-.7l.55.07a6.09,6.09,0,0,0,4.79-1.52,8.68,8.68,0,0,1-4.79-.06C380.54,161.76,383.11,163.33,387.38,163.05Z" style="opacity:0.2"></path><path d="M359.71,183.17c4.15-1.44,3.58-4.51,3.58-4.51a6.51,6.51,0,0,1-2.61,1.56c-2,.78-2.36,2.14-2.76,2.16-.14,0-.34-.16-.57-.35l0,0h0a2.55,2.55,0,0,0-.83-.51,9.91,9.91,0,0,0-1.8-.86,12.44,12.44,0,0,0-3-.32s2.57,2.48,4.82,2.88a2.26,2.26,0,0,0,.68,1.09,1.62,1.62,0,0,0,2.27-.36l.28,0a3,3,0,0,0,2.39-.76A4.32,4.32,0,0,1,359.71,183.17Z" style="fill:#407BFF"></path><path d="M359.71,183.17c4.15-1.44,3.58-4.51,3.58-4.51a6.51,6.51,0,0,1-2.61,1.56c-2,.78-2.36,2.14-2.76,2.16-.14,0-.34-.16-.57-.35l0,0h0a2.55,2.55,0,0,0-.83-.51,9.91,9.91,0,0,0-1.8-.86,12.44,12.44,0,0,0-3-.32s2.57,2.48,4.82,2.88a2.26,2.26,0,0,0,.68,1.09,1.62,1.62,0,0,0,2.27-.36l.28,0a3,3,0,0,0,2.39-.76A4.32,4.32,0,0,1,359.71,183.17Z" style="opacity:0.2"></path><path d="M303.07,172.47c6.92-2.39,6-7.52,6-7.52s-1,1.3-4.36,2.61-3.93,3.57-4.59,3.59c-.23,0-.56-.26-.95-.58l-.05,0h0a4.44,4.44,0,0,0-1.38-.86,16.6,16.6,0,0,0-3-1.43,20.44,20.44,0,0,0-5-.54s4.29,4.15,8,4.81a3.73,3.73,0,0,0,1.15,1.81,2.71,2.71,0,0,0,3.78-.59l.46.06a5.05,5.05,0,0,0,4-1.26A7.16,7.16,0,0,1,303.07,172.47Z" style="fill:#407BFF"></path><path d="M303.07,172.47c6.92-2.39,6-7.52,6-7.52s-1,1.3-4.36,2.61-3.93,3.57-4.59,3.59c-.23,0-.56-.26-.95-.58l-.05,0h0a4.44,4.44,0,0,0-1.38-.86,16.6,16.6,0,0,0-3-1.43,20.44,20.44,0,0,0-5-.54s4.29,4.15,8,4.81a3.73,3.73,0,0,0,1.15,1.81,2.71,2.71,0,0,0,3.78-.59l.46.06a5.05,5.05,0,0,0,4-1.26A7.16,7.16,0,0,1,303.07,172.47Z" style="opacity:0.2"></path></g><g id="freepik--Character--inject-145"><path d="M144.79,256.33V271.1l1.47,10.48-47,2.62a58.52,58.52,0,0,1,8.82-10.95c4.76-4.29-7.87-32.39-7.87-32.39Z" style="fill:#fff;stroke:#263238;stroke-linecap:round;stroke-linejoin:round"></path><path d="M140.74,214.52s8.69,10.72,8.69,16.8-3.17,13.22-3.17,13.22v22.65a261.52,261.52,0,0,0-38.15-3l-5.84-36.45Z" style="fill:#263238"></path><path d="M166.59,188.18c3.85-4.5,21.79-8.45,28.84-11.24,4.37-1.73,5.55-3,5.55-3s3.64-4.93,4.5-6,4.07-3.06,4.93-5.6c0,0,2.78.67-1.29,5.39,0,0-1.5,1.89-.64,2.87s7.28-1.16,11.14-1.37,4.71-.46,5.36,1.37c0,0-6,.53-8.79,1.72,0,0,9.21-.31,10.71,1.4s-1.92.1-10.28,1.77c0,0,7.93.59,8.14,1.66s-3.64,0-6.86,1.29-11.57,2.33-13.49,2.56c0,0-3.87,2-24,13.19-7.8,4.33-10.5,3.32-10.5,3.32Z" style="fill:#fff;stroke:#263238;stroke-linecap:round;stroke-linejoin:round"></path><path d="M221.15,177.76s-3.74-.09-5.39.09" style="fill:#fff;stroke:#263238;stroke-linecap:round;stroke-linejoin:round"></path><path d="M93.54,203.32c-2.73-5.26-19.29-13.19-25.52-17.51-3.86-2.68-4.72-4.2-4.72-4.2s-2.42-5.63-3-6.87-3.27-3.91-3.52-6.57c0,0-2.87,0,0,5.54,0,0,1,2.18,0,2.94s-6.83-2.79-10.53-3.88-4.49-1.52-5.53.12c0,0,5.72,1.88,8.16,3.68,0,0-8.9-2.4-10.75-1.07s1.85.53,9.61,4.06c0,0-7.85-1.23-8.31-.24s3.55.83,6.39,2.82,10.73,4.9,12.56,5.56c0,0,3.31,2.84,20.36,18.31,6.61,6,9.47,5.63,9.47,5.63Z" style="fill:#fff;stroke:#263238;stroke-linecap:round;stroke-linejoin:round"></path><path d="M42.79,180.75s3.66.76,5.22,1.31" style="fill:#fff;stroke:#263238;stroke-linecap:round;stroke-linejoin:round"></path><path d="M118.23,184.54s4,2.7,5.62,3-2.16,4.36-2.16,4.36" style="fill:#fff;stroke:#263238;stroke-linecap:round;stroke-linejoin:round"></path><path d="M96.24,176.4c13-8.87,25.5,2.57,29.07,25.61.46,2.92-14.42,5.24-18.93,4.11C90.65,202.19,86.25,183.21,96.24,176.4Z" style="fill:#fff;stroke:#263238;stroke-linecap:round;stroke-linejoin:round"></path><path d="M116.92,201a10.57,10.57,0,0,0,7.34,2.54s-5.44,2.57-5,6.15,3.6,8.81,3.6,8.81H106s5.12-7.26.42-12.33S116.92,201,116.92,201Z" style="fill:#fff;stroke:#263238;stroke-linecap:round;stroke-linejoin:round"></path><path d="M105.47,216.31s1.2-3.1,11.69-2.38c0,0,5.71-7.05,11.19-8.89s16.92,15.79,17.87,24.37S130.08,263,122.9,268.24s-17.89,3.34-23.85,0-16-2.3-20.73,3.26-15.72,3.65-17.15-4c0,0,14.44-1.91,22.83-8.82s16.24-6.91,16.24-6.91S91.43,226.31,95,218.45,105.47,216.31,105.47,216.31Z" style="fill:#407BFF;stroke:#263238;stroke-linecap:round;stroke-linejoin:round"></path><path d="M110.48,171.28c9.12-2.68,14.3,6.63,11.8,13.26s.59,16.82-6.08,23.73S101,213.69,97.14,223.22,90,234.41,82.85,234.41c0,0,6.82-.24,8.05-8.81,0,0-4.48,9.77-13.77,8.81s-11.54,6.2-11.54,6.2-5.85-11,6.06-19.3c0,0-8.57,3.1-10,8.34,0,0-.95-10,6.67-15.25,0,0-6.67,2.62-10.24-1.43,0,0,10.72.72,14-4.29s1.1-12.3,11.87-18.78c0,0-7.29,1.08-10.77,6.48S62.36,204.17,61.17,201a8.87,8.87,0,0,0,9.29-4.52c3.58-5.85,6.91-12.76,16-14.9a35.1,35.1,0,0,1,12.63-10.25C107.39,167.23,110.48,171.28,110.48,171.28Z" style="fill:#263238"></path><path d="M108.11,268.48c8.09-1.43,5.71-16.2,5.71-16.2s16.91.95,26.92-11.67" style="fill:none;stroke:#263238;stroke-linecap:round;stroke-linejoin:round"></path><path d="M100.24,251.8c7.39-.71,23.82-5.48,29.3-14.53" style="fill:none;stroke:#263238;stroke-linecap:round;stroke-linejoin:round"></path><path d="M129.54,204.91c-.47,6.87,12,18.54,12,18.54S166.47,207,170.28,201c0,0,3.1.35,4.05-1.08s-6.76-4.92-6-13.41c0,0-2.44-2-3.44,1.77,0,0-9,5-18.59,9S129.54,204.91,129.54,204.91Z" style="fill:#407BFF;stroke:#263238;stroke-linecap:round;stroke-linejoin:round"></path><path d="M170.28,201s-5.62-1.26-5.43-9" style="fill:#407BFF;stroke:#263238;stroke-linecap:round;stroke-linejoin:round"></path><path d="M105.47,273.25s17.43-7.16,40.79,1.66c0,0,6.81,29.41,5.71,42.93s-1.46,37.21,1.4,48.42-1.79,38.72,0,58l-10,1.78s-6.79-30.37-9.65-41.09.36-21.17-.36-26.67-15-40.46-15-40.46-6.61,26.57-14.64,41.37c-1.33,2.46-.73,7.89-3.47,10.66C96.74,373.41,87,426.06,87,426.06H78.58s-1.68-34.3-.26-44c1.31-8.83,8.22-15,8.58-25.34s3.59-48.22,3.59-48.22S87,290.26,105.47,273.25Z" style="fill:#263238"></path><path d="M138.93,446.67c-.71-3.81,1.91-14.29,1.91-14.29s-.72-18.54-2.38-20,16-5.8,16-3.83a70,70,0,0,0,1.43,17.5c1.66,8.7,10.48,11.8,14.05,14.42a6.46,6.46,0,0,1,2.86,6.19l.06,2.86h-12l-5.28-1.43-1.63,1.43H139.65Z" style="fill:#407BFF;stroke:#263238;stroke-linecap:round;stroke-linejoin:round"></path><path d="M76.38,409.93a32.61,32.61,0,0,1,15,.29s-4.14,14.3-2.71,20,11.67,8.82,12.86,11.2,0,5.72,0,5.72l.53,2.38H92.25l-9.77-1.43-1.66,1.43H72v-11c0-1.67,3-9.33,3.53-11.43C76.9,421.24,76.38,409.93,76.38,409.93Z" style="fill:#407BFF;stroke:#263238;stroke-linecap:round;stroke-linejoin:round"></path><g style="opacity:0.2"><path d="M112.57,280.23s-6.52,18,3.46,31.39" style="fill:none;stroke:#fff;stroke-linecap:round;stroke-linejoin:round"></path><path d="M94,310.35a26.29,26.29,0,0,0,15.23-2.46" style="fill:none;stroke:#fff;stroke-linecap:round;stroke-linejoin:round"></path><path d="M119,307s11.27,6,20,.51" style="fill:none;stroke:#fff;stroke-linecap:round;stroke-linejoin:round"></path><path d="M121.54,284.2v7.95l5.93,3.78s7.12-2.8,7.12-3.59.79-8.14.79-8.14a19.54,19.54,0,0,0-10.95-1.6" style="fill:none;stroke:#fff;stroke-linecap:round;stroke-linejoin:round"></path><path d="M106.51,283.58l-2.8,7.46-6.3,3.87-2-3.87L98,284.2s2.92-2.58,5.71-1.6" style="fill:none;stroke:#fff;stroke-linecap:round;stroke-linejoin:round"></path><path d="M106.63,274.7s4.87.59,6.63,3.28a35,35,0,0,1,21.33-3.28" style="fill:none;stroke:#fff;stroke-linecap:round;stroke-linejoin:round"></path><path d="M144.48,279.19s3.64,23.87,3,27.81,1.34,36,1.24,38.35" style="fill:none;stroke:#fff;stroke-linecap:round;stroke-linejoin:round"></path><path d="M148.73,291a23.24,23.24,0,0,1-1.68,6.07" style="fill:none;stroke:#fff;stroke-linecap:round;stroke-linejoin:round"></path><path d="M110.48,313a123.66,123.66,0,0,1-9.51,8.7" style="fill:none;stroke:#fff;stroke-linecap:round;stroke-linejoin:round"></path><path d="M113.26,319.87s-10.12,37.75-13.08,40.52-10.29,39.76-10.29,39.76" style="fill:none;stroke:#fff;stroke-linecap:round;stroke-linejoin:round"></path><path d="M134.2,353.07s10.47,4.75,12.06,2.37" style="fill:none;stroke:#fff;stroke-linecap:round;stroke-linejoin:round"></path><path d="M137,358.41s3.49,2.33,5.73,0" style="fill:none;stroke:#fff;stroke-linecap:round;stroke-linejoin:round"></path><path d="M88.11,361.18s5.93.2,7.32-4" style="fill:none;stroke:#fff;stroke-linecap:round;stroke-linejoin:round"></path><path d="M151.47,364.15s2.59,18.39.07,36" style="fill:none;stroke:#fff;stroke-linecap:round;stroke-linejoin:round"></path></g><path d="M72,444.26a57.54,57.54,0,0,1,12.35,0c5.14.79,15.43,2.57,15.43,2.57" style="fill:none;stroke:#263238;stroke-linecap:round;stroke-linejoin:round"></path><path d="M138.93,446.67s.61-2.72,10.1-2.77,14.24,3.32,21.37,2.93" style="fill:none;stroke:#263238;stroke-linecap:round;stroke-linejoin:round"></path><path d="M156.92,429.35s.12,1.65-2.6,3.43" style="fill:none;stroke:#263238;stroke-linecap:round;stroke-linejoin:round"></path><path d="M159.17,432.78s1.24,3.56,0,5.54" style="fill:none;stroke:#263238;stroke-linecap:round;stroke-linejoin:round"></path><path d="M88.11,429.35s-1,2.64-5.14,3.43" style="fill:none;stroke:#263238;stroke-linecap:round;stroke-linejoin:round"></path><path d="M89.89,432.78a2.81,2.81,0,0,1-1,2.77" style="fill:none;stroke:#263238;stroke-linecap:round;stroke-linejoin:round"></path><path d="M141.12,412.61s2.37,13.77,2,16.18a97.4,97.4,0,0,0-1,13.29" style="fill:none;stroke:#263238;stroke-linecap:round;stroke-linejoin:round"></path><path d="M78.22,410.63s1.23,13.3-.47,16.74-4.28,10.16-3.68,14.71" style="fill:none;stroke:#263238;stroke-linecap:round;stroke-linejoin:round"></path><path d="M117.16,213.93s-6.9,6.61-10.65,7" style="fill:none;stroke:#263238;stroke-linecap:round;stroke-linejoin:round"></path><path d="M146.26,211.64a30.11,30.11,0,0,0-4.69,11.81" style="fill:none;stroke:#263238;stroke-linecap:round;stroke-linejoin:round"></path><path d="M136.18,227.63s5.46,1.5,6.88-5.17" style="fill:none;stroke:#263238;stroke-linecap:round;stroke-linejoin:round"></path><path d="M105.47,216.31a2.48,2.48,0,0,0-1.76,2.14" style="fill:none;stroke:#263238;stroke-linecap:round;stroke-linejoin:round"></path><path d="M100.24,238.21s3.3,8,9.2,11.66" style="fill:#407BFF;stroke:#263238;stroke-linecap:round;stroke-linejoin:round"></path><path d="M85.31,257.68c-5.31,2.82-8.82,15.05-16.39,12.83" style="fill:#407BFF;stroke:#263238;stroke-linecap:round;stroke-linejoin:round"></path><g style="opacity:0.2"><path d="M114.87,173.39c2.91,1.85,5.25,7.08-3,13.07s-15.41,4.41-23.72,6.78-9.49,8.51-9.49,8.51" style="fill:none;stroke:#fff;stroke-linecap:round;stroke-linejoin:round"></path><path d="M118.23,189.09C113,196,95.61,197.28,93.54,209.7" style="fill:none;stroke:#fff;stroke-linecap:round;stroke-linejoin:round"></path><path d="M110.48,204.33s-8.34,9.51-16.94,10.19-13-3.87-13-3.87" style="fill:none;stroke:#fff;stroke-linecap:round;stroke-linejoin:round"></path><path d="M96.31,216.31a19.12,19.12,0,0,0-9.19,8.81c-3,6.3-14,2.51-14,2.51" style="fill:none;stroke:#fff;stroke-linecap:round;stroke-linejoin:round"></path><path d="M118.23,197.45s-3.87,6.67-12.34,4.3" style="fill:none;stroke:#fff;stroke-linecap:round;stroke-linejoin:round"></path><path d="M109.44,171.68s-8.11-1.91-11.36,3.6S91.47,190,81.58,187.57" style="fill:none;stroke:#fff;stroke-linecap:round;stroke-linejoin:round"></path></g></g><g id="freepik--Floor--inject-145"><line x1="56.14" y1="449.53" x2="431.27" y2="449.53" style="fill:none;stroke:#263238;stroke-miterlimit:10"></line></g></svg>