<svg xmlns="http://www.w3.org/2000/svg" xmlns:xlink="http://www.w3.org/1999/xlink" viewBox="0 0 500 500"><defs><clipPath id="freepik--clip-path--inject-193"><path d="M307.32,378.76V351H223.81v27.76a39.72,39.72,0,0,1-8.87,25l-3.66,4.52H319.85l-3.66-4.52A39.72,39.72,0,0,1,307.32,378.76Z" style="fill:#fff;stroke:#263238;stroke-linecap:round;stroke-linejoin:round"></path></clipPath><clipPath id="freepik--clip-path-2--inject-193"><rect x="114.62" y="128.63" width="301.89" height="174.12" style="fill:none;stroke:#fff;stroke-miterlimit:10"></rect></clipPath><clipPath id="freepik--clip-path-3--inject-193"><path d="M418.05,436.42c-10.34-5.65-23-5.72-28.08-5.48a21.3,21.3,0,0,0,2.3.87c6.61,2.12,16.83,4.11,28.3,10.36,8,4.36,14.51,7.18,21.2,6.5C426.47,445.37,428.25,442,418.05,436.42Z" style="fill:#fff;stroke:#263238;stroke-linecap:round;stroke-linejoin:round"></path></clipPath></defs><g id="freepik--background-simple--inject-193"><path d="M255.74,392.18s73.95,17.94,127.1-30.26S445,270.16,454.12,202.17s-26.58-132-85.2-156.29-79.38,23.84-148.53,34S129.27,81.42,84,130.78,58,241.17,125.71,310.55,255.74,392.18,255.74,392.18Z" style="fill:#407BFF"></path><path d="M255.74,392.18s73.95,17.94,127.1-30.26S445,270.16,454.12,202.17s-26.58-132-85.2-156.29-79.38,23.84-148.53,34S129.27,81.42,84,130.78,58,241.17,125.71,310.55,255.74,392.18,255.74,392.18Z" style="fill:#fff;opacity:0.7000000000000001"></path></g><g id="freepik--Floor--inject-193"><ellipse cx="256.3" cy="412.57" rx="211.26" ry="16.83" style="fill:#407BFF"></ellipse><ellipse cx="256.3" cy="412.57" rx="211.26" ry="16.83" style="fill:#fff;opacity:0.5"></ellipse><path d="M459.69,431.41c0,7.43-17.62,13.45-39.34,13.45s-39.34-6-39.34-13.45S398.62,418,420.35,418,459.69,424,459.69,431.41Z" style="fill:#407BFF"></path><path d="M459.69,431.41c0,7.43-17.62,13.45-39.34,13.45s-39.34-6-39.34-13.45S398.62,418,420.35,418,459.69,424,459.69,431.41Z" style="fill:#fff;opacity:0.5"></path></g><g id="freepik--Plants--inject-193"><path d="M99.63,202.1s0-5.62-7.87-13.48-12.91-12.36-12.91-12.36-3.94,12.92,3.37,20.79a138.13,138.13,0,0,0,17.41,15.16Z" style="fill:#407BFF"></path><path d="M88.21,237.18s0-5.62-7.86-13.48-12.92-12.36-12.92-12.36-3.93,12.92,3.37,20.78a137.71,137.71,0,0,0,17.41,15.17Z" style="fill:#407BFF"></path><path d="M99.13,211.67s.6-5.59,9.25-12.58,14.15-10.92,14.15-10.92,2.54,13.26-5.55,20.31a137.74,137.74,0,0,1-18.92,13.24Z" style="fill:#407BFF"></path><path d="M85.35,253.09s1.17-5.49,10.51-11.53,15.22-9.38,15.22-9.38,1.14,13.46-7.65,19.62A138.23,138.23,0,0,1,83.23,263Z" style="fill:#407BFF"></path><path d="M87.94,298.26s0-5.62,7.86-13.48,12.92-12.36,12.92-12.36,3.93,12.92-3.37,20.78a137.71,137.71,0,0,1-17.41,15.17Z" style="fill:#407BFF"></path><path d="M87.81,309.28s.8-5.56-5.87-14.46-11-14.06-11-14.06-5.73,12.22.38,21a137.64,137.64,0,0,0,15.08,17.49Z" style="fill:#407BFF"></path><path d="M80.05,342s0-5.62,7.87-13.48,12.91-12.36,12.91-12.36,3.94,12.92-3.37,20.78a138.64,138.64,0,0,1-17.41,15.17Z" style="fill:#407BFF"></path><path d="M85.3,371.58s-1.42-5.44,4.2-15,9.36-15.23,9.36-15.23,7.08,11.5,2,21a138.12,138.12,0,0,1-13,19.08Z" style="fill:#407BFF"></path><path d="M100.34,200.66a160.47,160.47,0,0,1-2.15,17.44c-3.11,16.06-10.88,26.42-14,40.93s5.81,33.19,3.42,51.82-9.64,29-7.57,41.43,13,46.1,13,46.1" style="fill:none;stroke:#263238;stroke-linecap:round;stroke-linejoin:round"></path><line x1="99.05" y1="215.4" x2="107.53" y2="208.9" style="fill:none;stroke:#263238;stroke-linecap:round;stroke-linejoin:round"></line><line x1="99.45" y1="207.91" x2="95.9" y2="201.6" style="fill:none;stroke:#263238;stroke-linecap:round;stroke-linejoin:round"></line><path d="M84.67,258.36s7.09-5.32,14.38-10.64" style="fill:none;stroke:#263238;stroke-linecap:round;stroke-linejoin:round"></path><path d="M88.21,247.29S82.3,235.7,75.6,228" style="fill:none;stroke:#263238;stroke-linecap:round;stroke-linejoin:round"></path><path d="M88.22,306.25A87.56,87.56,0,0,1,103.39,286" style="fill:none;stroke:#263238;stroke-linecap:round;stroke-linejoin:round"></path><path d="M86.84,314.13a99.37,99.37,0,0,0-7.69-14.58c-4.14-6.11-4.73-6.9-4.73-6.9" style="fill:none;stroke:#263238;stroke-linecap:round;stroke-linejoin:round"></path><path d="M80.05,352.28a95,95,0,0,1,6.39-12.92,82.5,82.5,0,0,1,8.28-10.84" style="fill:none;stroke:#263238;stroke-linecap:round;stroke-linejoin:round"></path><path d="M87.86,381.36S87,374.63,90,368.92s6.31-13.21,7.69-16.16" style="fill:none;stroke:#263238;stroke-linecap:round;stroke-linejoin:round"></path><path d="M48.14,277.14s-.61-3.53,3.46-9.31,6.76-9.15,6.76-9.15,3.87,7.67.14,13.4a87.83,87.83,0,0,1-9.27,11.4Z" style="fill:#407BFF"></path><path d="M59.1,297.89s-.61-3.52,3.47-9.3,6.76-9.16,6.76-9.16,3.86,7.68.14,13.4a88,88,0,0,1-9.27,11.4Z" style="fill:#407BFF"></path><path d="M49.48,283.08s-1-3.44-7.16-6.88-10.06-5.31-10.06-5.31S32.11,279.48,38,283a87.76,87.76,0,0,0,13.29,6.25Z" style="fill:#407BFF"></path><path d="M62.63,307.56s-1.34-3.31-7.85-6.09-10.56-4.23-10.56-4.23.75,8.56,6.92,11.47A87.85,87.85,0,0,0,65,313.53Z" style="fill:#407BFF"></path><path d="M65.9,336.17s-.61-3.53-6.39-7.6-9.44-6.35-9.44-6.35-1.07,8.53,4.37,12.67A88.78,88.78,0,0,0,67,342.51Z" style="fill:#407BFF"></path><path d="M67.18,343.06s-1.1-3.4,2.11-9.7,5.39-10,5.39-10,4.92,7.05,2,13.24a88.06,88.06,0,0,1-7.56,12.6Z" style="fill:#407BFF"></path><path d="M77.05,371.47s.41-3.55,6-8,9.07-6.87,9.07-6.87,1.55,8.45-3.64,12.89a88.57,88.57,0,0,1-12.11,8.33Z" style="fill:#407BFF"></path><path d="M75.59,362.71s-.61-3.52-6.39-7.6-9.44-6.34-9.44-6.34-1.07,8.52,4.36,12.66a88.14,88.14,0,0,0,12.57,7.62Z" style="fill:#407BFF"></path><path d="M75.52,381.86s.3-3.57-4.27-9-7.52-8.54-7.52-8.54-3.19,8,1,13.36A87.74,87.74,0,0,0,75,388.27Z" style="fill:#407BFF"></path><path d="M47.53,276.31A99.67,99.67,0,0,0,50.78,287c3.69,9.74,9.69,15.39,13.21,24.15S64,332.6,67.47,344s9.19,17.13,9.24,25.15S73.6,399.5,73.6,399.5" style="fill:none;stroke:#263238;stroke-linecap:round;stroke-linejoin:round"></path><line x1="49.94" y1="285.41" x2="43.92" y2="282.25" style="fill:none;stroke:#263238;stroke-linecap:round;stroke-linejoin:round"></line><line x1="48.88" y1="280.76" x2="50.42" y2="276.42" style="fill:none;stroke:#263238;stroke-linecap:round;stroke-linejoin:round"></line><path d="M63.62,310.79s-5-2.56-10.17-5.11" style="fill:none;stroke:#263238;stroke-linecap:round;stroke-linejoin:round"></path><path d="M60.2,304.23A72.12,72.12,0,0,1,66,290.78" style="fill:none;stroke:#263238;stroke-linecap:round;stroke-linejoin:round"></path><path d="M66.6,341.21a56.05,56.05,0,0,0-11.72-11.09" style="fill:none;stroke:#263238;stroke-linecap:round;stroke-linejoin:round"></path><path d="M68.32,346a63,63,0,0,1,3.23-10c1.94-4.28,2.22-4.84,2.22-4.84" style="fill:none;stroke:#263238;stroke-linecap:round;stroke-linejoin:round"></path><path d="M76.44,375.27s4-4.89,6.47-6.72a34.09,34.09,0,0,0,4.21-3.66" style="fill:none;stroke:#263238;stroke-linecap:round;stroke-linejoin:round"></path><path d="M76.71,369.18a59.51,59.51,0,0,0-5.41-7.41,52.83,52.83,0,0,0-6.36-5.89" style="fill:none;stroke:#263238;stroke-linecap:round;stroke-linejoin:round"></path><path d="M75,388.27a15.34,15.34,0,0,0-2.68-7.57c-2.48-3.27-5.39-7.6-6.58-9.3" style="fill:none;stroke:#263238;stroke-linecap:round;stroke-linejoin:round"></path><path d="M57.53,395.61H109a0,0,0,0,1,0,0v18a3.5,3.5,0,0,1-3.5,3.5H61a3.5,3.5,0,0,1-3.5-3.5v-18A0,0,0,0,1,57.53,395.61Z" style="fill:#263238;stroke:#263238;stroke-linecap:round;stroke-linejoin:round"></path><path d="M108.52,402.32h-51a4,4,0,0,1-4-4h0a4,4,0,0,1,4-4h51a4,4,0,0,1,4,4h0A4,4,0,0,1,108.52,402.32Z" style="fill:#263238;stroke:#263238;stroke-linecap:round;stroke-linejoin:round"></path><line x1="59.55" y1="402.5" x2="96.58" y2="402.5" style="fill:none;stroke:#fff;stroke-linecap:round;stroke-linejoin:round"></line><line x1="100.06" y1="402.5" x2="106.16" y2="402.5" style="fill:none;stroke:#fff;stroke-linecap:round;stroke-linejoin:round"></line></g><g id="freepik--Device--inject-193"><path d="M307.32,378.76V351H223.81v27.76a39.72,39.72,0,0,1-8.87,25l-3.66,4.52H319.85l-3.66-4.52A39.72,39.72,0,0,1,307.32,378.76Z" style="fill:#fff"></path><g style="clip-path:url(#freepik--clip-path--inject-193)"><path d="M218.68,368.94h93.77a39.57,39.57,0,0,1-5.13-19.44V321.73H223.81V349.5A39.57,39.57,0,0,1,218.68,368.94Z" style="fill:#263238"></path></g><path d="M307.32,378.76V351H223.81v27.76a39.72,39.72,0,0,1-8.87,25l-3.66,4.52H319.85l-3.66-4.52A39.72,39.72,0,0,1,307.32,378.76Z" style="fill:none;stroke:#263238;stroke-linecap:round;stroke-linejoin:round"></path><rect x="97.74" y="113.29" width="335.65" height="246.46" rx="8.48" style="fill:#263238;stroke:#263238;stroke-linecap:round;stroke-linejoin:round"></rect><path d="M97.74,321.44H433.39a0,0,0,0,1,0,0v29.82a8.48,8.48,0,0,1-8.48,8.48H106.22a8.48,8.48,0,0,1-8.48-8.48V321.44a0,0,0,0,1,0,0Z" style="fill:#fff;stroke:#263238;stroke-linecap:round;stroke-linejoin:round"></path><rect x="211.28" y="408.24" width="108.59" height="4.96" style="fill:#fff;stroke:#263238;stroke-linecap:round;stroke-linejoin:round"></rect><g style="clip-path:url(#freepik--clip-path-2--inject-193)"><path d="M110,172.41S186.26,114,262.1,118.85s147.59,50.46,160.3,58.87V333.53H107.7Z" style="fill:#263238;stroke:#263238;stroke-linecap:round;stroke-linejoin:round"></path><path d="M312.08,162.08c0,30.71-21.46,55.6-47.93,55.6s-47.93-24.89-47.93-55.6,21.46-47,47.93-47S312.08,131.37,312.08,162.08Z" style="fill:#595959;stroke:#263238;stroke-linecap:round;stroke-linejoin:round"></path><path d="M223,156.56a135.36,135.36,0,0,0,8.88,25.58c6.2,13.19,18.85,26.93,32,26.93S289.46,194.26,294.3,187s6.47-26.66,6.47-26.66Z" style="fill:#919191;stroke:#263238;stroke-linecap:round;stroke-linejoin:round"></path><path d="M211.61,111.55c-2,2.26-2.48,5.33-2.32,8.48.35,7,2.79,16,8.72,19.17s2.09-22.3,2.79-27.19c.63-4.43-4.49-3.77-7-2.26A9,9,0,0,0,211.61,111.55Z" style="fill:#919191;stroke:#263238;stroke-linecap:round;stroke-linejoin:round"></path><path d="M318.17,111.49a14.47,14.47,0,0,1,2.18,8.54c-.35,7-2.79,16-8.72,19.17s-2.09-22.31-2.78-27.19c-.39-2.69,1.9-3.67,4.19-3.53A6.59,6.59,0,0,1,318.17,111.49Z" style="fill:#919191;stroke:#263238;stroke-linecap:round;stroke-linejoin:round"></path><path d="M214.17,89.7s-.69-12.9,2.79-21.61,17.43-22.31,29.28-27.19,26.5-4.88,38.7,3.83,18.47,13.6,21.61,20.92,5.92,22,5.92,31-8,18.13-22.65,24.06-51.59,3.48-64.49-4.19S214.17,89.7,214.17,89.7Z" style="fill:#595959;stroke:#263238;stroke-linecap:round;stroke-linejoin:round"></path><path d="M216.26,108.87s1.75,36.26,4.19,46,18.12,29.28,21.26,34.86,14.64,13.94,27.89,11.15,18.82-19.17,26.84-26.49S306.55,152.8,309,139.2s4.53-33.11,4.53-33.11-19.17,13.94-49.85,10.8-47.06-14.64-47.06-14.64Z" style="fill:#919191;stroke:#263238;stroke-linecap:round;stroke-linejoin:round"></path><path d="M263.67,116.89c-30.67-3.13-47.06-14.64-47.06-14.64l-.35,6.62s.92,19,2.34,33.15c3.34,6.26,8.68,13.75,16.49,17.75,15,7.67,33.81,8.71,51.94,2.44,12.27-4.25,18-11.37,20.83-16.72.38-2.09.75-4.2,1.13-6.29,2.44-13.59,4.53-33.11,4.53-33.11S294.35,120,263.67,116.89Z" style="fill:#263238;stroke:#263238;stroke-linecap:round;stroke-linejoin:round"></path><path d="M237.53,168.13s10.46,14.65,26.84,15,24.75-15,24.75-15" style="fill:none;stroke:#263238;stroke-linecap:round;stroke-linejoin:round"></path><line x1="240.67" y1="166.74" x2="235.09" y2="169.53" style="fill:none;stroke:#263238;stroke-linecap:round;stroke-linejoin:round"></line><line x1="287.38" y1="166.74" x2="290.86" y2="169.18" style="fill:none;stroke:#263238;stroke-linecap:round;stroke-linejoin:round"></line><ellipse cx="244.92" cy="146.66" rx="12.04" ry="15.16" transform="translate(2.14 296.83) rotate(-62.65)" style="fill:#919191;stroke:#263238;stroke-linecap:round;stroke-linejoin:round"></ellipse><path d="M273.81,153.62c3.06,5.91,11.56,7.58,19,3.73s11-11.75,7.93-17.65-11.56-7.58-19-3.73S270.76,147.72,273.81,153.62Z" style="fill:#919191;stroke:#263238;stroke-linecap:round;stroke-linejoin:round"></path><path d="M268.81,163.09c0,.65,0,1.28.09,1.91.7,8.71,2.79,13.59-.35,13.59s-10.46-1-13.59-10.8" style="fill:none;stroke:#263238;stroke-linecap:round;stroke-linejoin:round"></path><path d="M271.69,144.78s-3,9.92-2.88,18.31" style="fill:none;stroke:#5c5c5c;stroke-linecap:round;stroke-linejoin:round"></path><line x1="290.86" y1="141.29" x2="280.06" y2="147.57" style="fill:none;stroke:#263238;stroke-linecap:round;stroke-linejoin:round"></line><path d="M287.28,143.4l-4,2.21a5.27,5.27,0,0,0,0,.57c0,2.23,1,4,2.32,4s2.31-2.23,2.31-4.46A3.61,3.61,0,0,0,287.28,143.4Z" style="fill:#263238"></path><line x1="240.82" y1="141.29" x2="251.63" y2="147.57" style="fill:none;stroke:#263238;stroke-linecap:round;stroke-linejoin:round"></line><path d="M244.4,143.4l4,2.21a5.27,5.27,0,0,1,0,.57c0,2.23-1,4-2.32,4s-2.31-2.23-2.31-4.46A3.61,3.61,0,0,1,244.4,143.4Z" style="fill:#263238"></path><path d="M212.26,90.72s-.88,18.5-.53,20.94S218,123.17,241,130.49s56.13,1,65.54-4.88,8-10.11,8.36-16.39.7-12.89.35-14.64-3.13-2.44-4.18,1-19.87,15-47.76,13.94-43.92-15.34-46-20.22S211.52,87.94,212.26,90.72Z" style="fill:#595959;stroke:#263238;stroke-linecap:round;stroke-linejoin:round"></path><path d="M218.74,92.58a2.31,2.31,0,0,0-2.22,2.59v22.42" style="fill:none;stroke:#263238;stroke-linecap:round;stroke-linejoin:round"></path><path d="M223.38,115.64V122" style="fill:none;stroke:#263238;stroke-linecap:round;stroke-linejoin:round"></path><path d="M225,98s-1.66,2-1.66,3.52v6.25" style="fill:none;stroke:#263238;stroke-linecap:round;stroke-linejoin:round"></path><path d="M232.64,102s-2,1.85-2,3.52v20.93" style="fill:none;stroke:#263238;stroke-linecap:round;stroke-linejoin:round"></path><path d="M240.49,121.8c0,4.15-.07,8-.07,8" style="fill:none;stroke:#263238;stroke-linecap:round;stroke-linejoin:round"></path><path d="M242.83,106.66s-2.59,3.7-2.41,5.19c.07.53.09,3,.08,6" style="fill:none;stroke:#263238;stroke-linecap:round;stroke-linejoin:round"></path><path d="M253.21,108.88a42.36,42.36,0,0,0-1.11,7c0,2.41-.19,16.49-.19,16.49" style="fill:none;stroke:#263238;stroke-linecap:round;stroke-linejoin:round"></path><line x1="265.81" y1="110.18" x2="265.81" y2="133.34" style="fill:none;stroke:#263238;stroke-linecap:round;stroke-linejoin:round"></line><path d="M277.48,109.62s2.22,2.23,2,6.86S279,132.6,279,132.6" style="fill:none;stroke:#263238;stroke-linecap:round;stroke-linejoin:round"></path><path d="M292.66,126c0,2.43,0,4.21,0,4.21" style="fill:none;stroke:#263238;stroke-linecap:round;stroke-linejoin:round"></path><path d="M290.08,107.21s2.22,3,2.41,5.75c.06.9.1,3.06.13,5.54" style="fill:none;stroke:#263238;stroke-linecap:round;stroke-linejoin:round"></path><path d="M301.57,102.58s3,1.67,3.7,4.26-.74,19.64-.74,19.64" style="fill:none;stroke:#263238;stroke-linecap:round;stroke-linejoin:round"></path><path d="M310.64,96.65s3.17-1.08,2.78,5.38-1.48,19.27-1.48,19.27" style="fill:none;stroke:#263238;stroke-linecap:round;stroke-linejoin:round"></path><path d="M360.88,247.21s.88,5.32,16.37,12,36.74-1.77,46-7.09S433.91,198.52,429,187s-16.8-7.15-28.77-.45S383,199,373.71,204.72,346.71,227.3,360.88,247.21Z" style="fill:#424242;stroke:#263238;stroke-linecap:round;stroke-linejoin:round"></path><ellipse cx="376.59" cy="226.19" rx="25.89" ry="28.11" style="fill:#424242;stroke:#263238;stroke-linecap:round;stroke-linejoin:round"></ellipse><path d="M380.73,207.87c-4.76-7.81-27.07-17-34.55-18a7,7,0,0,0-1.43,0l2,5.6s3.54,4.87,2.22,10.62c-1.26,5.45-.78,10.63-5.76,8,0,.58-5.8-2.78-5.75-2.22a29.59,29.59,0,0,0,4.69,13.41s1.7,17.66,21.4,23.44,23.3-7.27,23.85-14.64A43.26,43.26,0,0,0,380.73,207.87Z" style="fill:#595959;stroke:#263238;stroke-linecap:round;stroke-linejoin:round"></path><path d="M364.42,233.05s3.1,15-6.64,12.39S342.73,230,340.52,230s-12.4,2.66-17.27-5.75-8-15.94-4.87-23.9,9.74-5.76,13.73,0,11.5,11.5,11.5,11.5,1.78-1.77,9.74-1.77,8-1.32,8-1.32" style="fill:#595959;stroke:#263238;stroke-linecap:round;stroke-linejoin:round"></path><path d="M166.64,247.21s-.89,5.32-16.38,12-36.74-1.77-46-7.09S93.6,198.52,98.47,187s16.8-7.15,28.77-.45S144.5,199,153.8,204.72,180.8,227.3,166.64,247.21Z" style="fill:#424242;stroke:#263238;stroke-linecap:round;stroke-linejoin:round"></path><ellipse cx="150.92" cy="226.19" rx="25.89" ry="28.11" style="fill:#424242;stroke:#263238;stroke-linecap:round;stroke-linejoin:round"></ellipse><path d="M146.78,207.87c4.76-7.81,27.08-17,34.55-18a7,7,0,0,1,1.43,0l-2,5.6s-3.54,4.87-2.21,10.62c1.25,5.45.77,10.63,5.75,8,0,.58,5.8-2.78,5.76-2.22a29.54,29.54,0,0,1-4.7,13.41s-1.69,17.66-21.4,23.44-23.29-7.27-23.85-14.64A43.39,43.39,0,0,1,146.78,207.87Z" style="fill:#595959;stroke:#263238;stroke-linecap:round;stroke-linejoin:round"></path><path d="M163.09,233.05s-3.09,15,6.64,12.39S184.78,230,187,230s12.39,2.66,17.26-5.75,8-15.94,4.87-23.9-9.74-5.76-13.72,0-11.51,11.5-11.51,11.5-1.77-1.77-9.74-1.77-8-1.32-8-1.32" style="fill:#595959;stroke:#263238;stroke-linecap:round;stroke-linejoin:round"></path><rect x="187.81" y="193.66" width="150.5" height="92.07" style="fill:#fff;stroke:#263238;stroke-linecap:round;stroke-linejoin:round"></rect><circle cx="263.76" cy="222.27" r="17.26" transform="translate(2.3 447.25) rotate(-80.83)" style="fill:#bdbdbd"></circle><circle cx="263.76" cy="218.29" r="7.52" transform="translate(5.34 442.87) rotate(-80.6)" style="fill:#263238"></circle><path d="M251.36,234.28a17.26,17.26,0,0,0,24.79,0v-.5a6.64,6.64,0,0,0-6.64-6.64H258a6.64,6.64,0,0,0-6.64,6.64Z" style="fill:#263238"></path><rect x="211.35" y="244.09" width="104.14" height="12.66" style="fill:none;stroke:#263238;stroke-miterlimit:10"></rect><rect x="211.35" y="263.08" width="104.14" height="12.66" style="fill:#407BFF;stroke:#263238;stroke-miterlimit:10"></rect><path d="M215.54,252.46a.31.31,0,0,1-.11-.25v-4.37a.35.35,0,0,1,.1-.25.33.33,0,0,1,.24-.1h2.63a.26.26,0,0,1,.2.08.32.32,0,0,1,.08.2.32.32,0,0,1-.08.21.26.26,0,0,1-.2.08h-2.25v1.62h2.12a.26.26,0,0,1,.22.08.26.26,0,0,1,.07.19.26.26,0,0,1-.29.28h-2.12V252h2.34a.26.26,0,0,1,.21.09.27.27,0,0,1,.07.2.26.26,0,0,1-.28.28h-2.71A.33.33,0,0,1,215.54,252.46Z" style="fill:#8f8f8f"></path><path d="M219.84,252.48a.26.26,0,0,1-.1-.22v-2.92a.29.29,0,0,1,.1-.22.31.31,0,0,1,.23-.08.34.34,0,0,1,.22.07.26.26,0,0,1,.1.22v.31a1,1,0,0,1,.44-.5,1.36,1.36,0,0,1,.71-.17,1.28,1.28,0,0,1,.94.34,1.38,1.38,0,0,1,.34,1v1.92a.28.28,0,0,1-.09.22.3.3,0,0,1-.22.08.31.31,0,0,1-.23-.08.28.28,0,0,1-.09-.22v-1.93a1,1,0,0,0-.21-.69.77.77,0,0,0-.6-.24.94.94,0,0,0-.69.29,1.15,1.15,0,0,0-.3.8v1.77a.29.29,0,0,1-.1.22.32.32,0,0,1-.23.08A.29.29,0,0,1,219.84,252.48Z" style="fill:#8f8f8f"></path><path d="M224.36,252.35a1.2,1.2,0,0,1-.24-.82v-2h-.43a.24.24,0,0,1-.18-.06.22.22,0,0,1,0-.3.24.24,0,0,1,.17-.06h.44l.09-1a.23.23,0,0,1,.1-.19.27.27,0,0,1,.2-.08.26.26,0,0,1,.18.06.24.24,0,0,1,.07.19v1h.66a.24.24,0,0,1,.17.06.21.21,0,0,1,.06.16c0,.13-.08.2-.23.2h-.66v1.93a1,1,0,0,0,.11.53.33.33,0,0,0,.32.16h.3a.26.26,0,0,1,.19.08.25.25,0,0,1,0,.31.2.2,0,0,1-.12.08l-.16,0H225A.86.86,0,0,1,224.36,252.35Z" style="fill:#8f8f8f"></path><path d="M227.13,252.41a1.68,1.68,0,0,1-.63-.64,2.16,2.16,0,0,1,0-1.88,1.53,1.53,0,0,1,.59-.67A1.61,1.61,0,0,1,228,249a1.67,1.67,0,0,1,.73.14,1.13,1.13,0,0,1,.5.38,2,2,0,0,1,.28.54,2.69,2.69,0,0,1,.1.66.25.25,0,0,1-.06.17.22.22,0,0,1-.17.07h-2.43a1.25,1.25,0,0,0,.32.92,1.14,1.14,0,0,0,.82.32,1.48,1.48,0,0,0,.57-.11,2.78,2.78,0,0,0,.51-.31.24.24,0,0,1,.13-.05.18.18,0,0,1,.15.07.2.2,0,0,1,.06.15.28.28,0,0,1-.1.2,2,2,0,0,1-2.25.29Zm1.89-1.88a1.45,1.45,0,0,0-.28-.81.88.88,0,0,0-.73-.32,1.06,1.06,0,0,0-.45.1.78.78,0,0,0-.33.26,1.13,1.13,0,0,0-.21.35,1.58,1.58,0,0,0-.09.42Z" style="fill:#8f8f8f"></path><path d="M230.56,252.48a.27.27,0,0,1-.09-.22v-2.92a.25.25,0,0,1,.1-.22.35.35,0,0,1,.22-.08.36.36,0,0,1,.23.08.26.26,0,0,1,.09.21v.42a1.06,1.06,0,0,1,.36-.55,1,1,0,0,1,.64-.22.2.2,0,0,1,.18.09.32.32,0,0,1,.07.2.24.24,0,0,1-.07.18.19.19,0,0,1-.17.07,1,1,0,0,0-.74.25.87.87,0,0,0-.27.67v1.82a.27.27,0,0,1-.09.22.34.34,0,0,1-.23.08A.31.31,0,0,1,230.56,252.48Z" style="fill:#8f8f8f"></path><path d="M235.84,254a.37.37,0,0,1-.22-.08.25.25,0,0,1-.09-.2.31.31,0,0,1,0-.13l.64-1.35-1.32-2.72a.32.32,0,0,1,0-.14.29.29,0,0,1,.09-.22.38.38,0,0,1,.23-.08.28.28,0,0,1,.27.19l1.08,2.29,1.09-2.3a.31.31,0,0,1,.28-.2.33.33,0,0,1,.22.09.29.29,0,0,1,.09.21.5.5,0,0,1,0,.12l-2.06,4.32A.29.29,0,0,1,235.84,254Z" style="fill:#8f8f8f"></path><path d="M239.05,252.11a2,2,0,0,1,0-2.63,1.9,1.9,0,0,1,2.59,0,2,2,0,0,1,0,2.63,1.87,1.87,0,0,1-2.59,0Zm2.13-.29a1.88,1.88,0,0,0,0-2,1.11,1.11,0,0,0-1.67,0,1.87,1.87,0,0,0,0,2,1,1,0,0,0,.83.38A1,1,0,0,0,241.18,251.82Z" style="fill:#8f8f8f"></path><path d="M243.23,252.28a1.34,1.34,0,0,1-.35-1v-1.91a.3.3,0,0,1,.09-.23.37.37,0,0,1,.46,0,.3.3,0,0,1,.09.23v1.92a1,1,0,0,0,.21.69.72.72,0,0,0,.59.24.94.94,0,0,0,.69-.29,1.21,1.21,0,0,0,.31-.8v-1.76a.26.26,0,0,1,.1-.22.31.31,0,0,1,.22-.09.36.36,0,0,1,.23.08.3.3,0,0,1,.09.23v2.92a.25.25,0,0,1-.1.22.3.3,0,0,1-.22.08.35.35,0,0,1-.23-.07.28.28,0,0,1-.09-.22V252a1,1,0,0,1-.44.49,1.43,1.43,0,0,1-.72.18A1.26,1.26,0,0,1,243.23,252.28Z" style="fill:#8f8f8f"></path><path d="M247.14,252.48a.27.27,0,0,1-.09-.22v-2.92a.27.27,0,0,1,.09-.22.38.38,0,0,1,.23-.08.33.33,0,0,1,.22.08.24.24,0,0,1,.1.21v.42a1,1,0,0,1,.35-.55,1,1,0,0,1,.65-.22.23.23,0,0,1,.18.09.32.32,0,0,1,.06.2.28.28,0,0,1-.06.18.21.21,0,0,1-.17.07,1.09,1.09,0,0,0-.75.25.9.9,0,0,0-.26.67v1.82a.25.25,0,0,1-.1.22.31.31,0,0,1-.23.08A.29.29,0,0,1,247.14,252.48Z" style="fill:#8f8f8f"></path><path d="M252.32,252.41a1.59,1.59,0,0,1-.62-.64,2,2,0,0,1-.24-1,2,2,0,0,1,.2-.9,1.59,1.59,0,0,1,.59-.67,1.65,1.65,0,0,1,.92-.25,1.67,1.67,0,0,1,.73.14,1.16,1.16,0,0,1,.49.38,1.55,1.55,0,0,1,.28.54,2.28,2.28,0,0,1,.1.66.31.31,0,0,1-.05.17.24.24,0,0,1-.17.07h-2.44a1.26,1.26,0,0,0,.33.92,1.11,1.11,0,0,0,.82.32,1.4,1.4,0,0,0,.56-.11,2.78,2.78,0,0,0,.51-.31.27.27,0,0,1,.14-.05.17.17,0,0,1,.14.07.2.2,0,0,1,.06.15.25.25,0,0,1-.1.2,2,2,0,0,1-1.36.51A2,2,0,0,1,252.32,252.41Zm1.89-1.88a1.38,1.38,0,0,0-.28-.81.87.87,0,0,0-.73-.32,1.14,1.14,0,0,0-.45.1.93.93,0,0,0-.33.26,1.1,1.1,0,0,0-.2.35,1.29,1.29,0,0,0-.1.42Z" style="fill:#8f8f8f"></path><path d="M255.75,252.48a.27.27,0,0,1-.09-.22v-2.93a.29.29,0,0,1,.09-.22A.38.38,0,0,1,256,249a.35.35,0,0,1,.22.08.23.23,0,0,1,.1.2v.33a1.17,1.17,0,0,1,.46-.5,1.41,1.41,0,0,1,.69-.17,1.27,1.27,0,0,1,.74.21,1,1,0,0,1,.42.61,1.21,1.21,0,0,1,.48-.62,1.52,1.52,0,0,1,.79-.2,1.59,1.59,0,0,1,.5.07,1.52,1.52,0,0,1,.41.24,1.11,1.11,0,0,1,.28.43,1.85,1.85,0,0,1,.1.61v1.94a.25.25,0,0,1-.1.22.31.31,0,0,1-.23.08.29.29,0,0,1-.22-.08.27.27,0,0,1-.09-.22v-2a.93.93,0,0,0-.21-.66.72.72,0,0,0-.57-.23,1,1,0,0,0-.73.29,1.19,1.19,0,0,0-.29.86v1.71a.26.26,0,0,1-.1.22.3.3,0,0,1-.22.08.29.29,0,0,1-.22-.08.26.26,0,0,1-.1-.22v-1.88c0-.65-.26-1-.77-1a1,1,0,0,0-.74.3,1.14,1.14,0,0,0-.28.83v1.73a.25.25,0,0,1-.1.22.31.31,0,0,1-.23.08A.29.29,0,0,1,255.75,252.48Z" style="fill:#8f8f8f"></path><path d="M262.26,252.36a.91.91,0,0,1-.35-.76,1.25,1.25,0,0,1,0-.35,1.11,1.11,0,0,1,.12-.27.67.67,0,0,1,.22-.19,1.55,1.55,0,0,1,.32-.14,2,2,0,0,1,.43-.07l.54,0h.67v-.39a.7.7,0,0,0-.2-.56.8.8,0,0,0-.56-.18,2.2,2.2,0,0,0-.44,0l-.34.09-.3.13h-.09a.21.21,0,0,1-.16-.07.28.28,0,0,1-.07-.17.18.18,0,0,1,.1-.16,2.62,2.62,0,0,1,1.31-.31,1.55,1.55,0,0,1,1,.3,1.12,1.12,0,0,1,.37.93v2.07a.27.27,0,0,1-.1.22.35.35,0,0,1-.22.08.33.33,0,0,1-.22-.08.27.27,0,0,1-.09-.22v-.34a1.13,1.13,0,0,1-1.1.7A1.42,1.42,0,0,1,262.26,252.36Zm1.69-.5a1.23,1.23,0,0,0,.3-.86v-.1h-.71a3.12,3.12,0,0,0-.49.06.82.82,0,0,0-.32.12.48.48,0,0,0-.16.19.67.67,0,0,0-.05.3.56.56,0,0,0,.19.47.82.82,0,0,0,.52.15A1,1,0,0,0,264,251.86Z" style="fill:#8f8f8f"></path><path d="M266,248.11a.42.42,0,0,1-.11-.29.36.36,0,0,1,.12-.28.41.41,0,0,1,.3-.11.44.44,0,0,1,.3.11.39.39,0,0,1,.11.28.42.42,0,0,1-.11.29.44.44,0,0,1-.3.1A.45.45,0,0,1,266,248.11Zm.08,4.37a.32.32,0,0,1-.09-.24v-2.89a.3.3,0,0,1,.09-.23.35.35,0,0,1,.23-.09.33.33,0,0,1,.23.09.3.3,0,0,1,.09.23v2.89a.3.3,0,0,1-.1.24.36.36,0,0,1-.23.08A.35.35,0,0,1,266.06,252.48Z" style="fill:#8f8f8f"></path><path d="M267.81,252.48a.32.32,0,0,1-.09-.24v-4.43a.28.28,0,0,1,.1-.23.31.31,0,0,1,.22-.09.33.33,0,0,1,.23.09.3.3,0,0,1,.09.23v4.43a.3.3,0,0,1-.1.24.36.36,0,0,1-.23.08A.35.35,0,0,1,267.81,252.48Z" style="fill:#8f8f8f"></path><path d="M256.63,271.47a.33.33,0,0,1-.1-.24v-4.3a.45.45,0,0,1,.12-.33.38.38,0,0,1,.29-.12.54.54,0,0,1,.26.07.55.55,0,0,1,.22.21l2.59,3.76v-3.73a.3.3,0,0,1,.09-.23.35.35,0,0,1,.24-.08.32.32,0,0,1,.23.08.28.28,0,0,1,.1.23v4.3a.42.42,0,0,1-.13.33.39.39,0,0,1-.31.13.53.53,0,0,1-.24-.06.49.49,0,0,1-.2-.18l-2.59-3.76v3.68a.33.33,0,0,1-.1.24.41.41,0,0,1-.24.08A.38.38,0,0,1,256.63,271.47Z" style="fill:#263238"></path><path d="M262.47,271.39a1.55,1.55,0,0,1-.63-.64,2.21,2.21,0,0,1,0-1.88,1.63,1.63,0,0,1,.59-.66,1.68,1.68,0,0,1,.92-.26,1.83,1.83,0,0,1,.73.14,1.28,1.28,0,0,1,.5.38,1.76,1.76,0,0,1,.27.55,2.27,2.27,0,0,1,.11.65.24.24,0,0,1-.06.17.19.19,0,0,1-.17.07h-2.43a1.26,1.26,0,0,0,.32.93,1.18,1.18,0,0,0,.82.32A1.32,1.32,0,0,0,264,271a2.26,2.26,0,0,0,.51-.3.17.17,0,0,1,.13-.05.2.2,0,0,1,.15.06.24.24,0,0,1,.05.16.28.28,0,0,1-.09.2,2,2,0,0,1-1.36.5A1.75,1.75,0,0,1,262.47,271.39Zm1.89-1.87a1.52,1.52,0,0,0-.28-.82.88.88,0,0,0-.73-.31.93.93,0,0,0-.45.1.76.76,0,0,0-.33.25,1.31,1.31,0,0,0-.21.36,1.43,1.43,0,0,0-.09.42Z" style="fill:#263238"></path><path d="M268,271.42l-1-1.25-1,1.26a.26.26,0,0,1-.21.12.31.31,0,0,1-.22-.09.25.25,0,0,1-.09-.2.2.2,0,0,1,.06-.14l1.12-1.38-1-1.24a.27.27,0,0,1,0-.39.29.29,0,0,1,.22-.09.33.33,0,0,1,.25.14l.92,1.13.92-1.15a.26.26,0,0,1,.22-.12.3.3,0,0,1,.2.08.26.26,0,0,1,.09.19.27.27,0,0,1-.06.16l-1,1.27,1.09,1.36a.27.27,0,0,1,.06.17.29.29,0,0,1-.09.21.31.31,0,0,1-.22.09A.33.33,0,0,1,268,271.42Z" style="fill:#263238"></path><path d="M269.9,271.33a1.15,1.15,0,0,1-.24-.81v-2h-.43a.24.24,0,0,1-.18-.05.21.21,0,0,1-.06-.16.2.2,0,0,1,.06-.15.3.3,0,0,1,.18-.05h.43l.09-1a.28.28,0,0,1,.1-.2.32.32,0,0,1,.21-.08.21.21,0,0,1,.17.07.23.23,0,0,1,.08.19v1H271a.21.21,0,0,1,.17.06.2.2,0,0,1,.06.15c0,.14-.08.2-.23.2h-.65v1.94a1,1,0,0,0,.1.53.38.38,0,0,0,.32.16H271a.23.23,0,0,1,.18.07.24.24,0,0,1,.07.18.23.23,0,0,1,0,.14.25.25,0,0,1-.12.08.45.45,0,0,1-.16,0h-.42A.85.85,0,0,1,269.9,271.33Z" style="fill:#263238"></path><rect x="187.81" y="193.66" width="150.5" height="6.13" style="fill:#407BFF;stroke:#263238;stroke-linecap:round;stroke-linejoin:round"></rect><path d="M176.82,200.3s3.56-6.1,7-6.44,7.13,7.47,12.91,10.53,13.24,6.11,15.28.68S205.18,187.4,194,181s-15.29-7.47-20-3.74S159.11,199,159.11,199" style="fill:#595959;stroke:#263238;stroke-linecap:round;stroke-linejoin:round"></path><path d="M167.4,196.68s-2.72-12.23.68-20.72,9.51-9.85,13.59-14.27,0-13.25-10.19-11.21-16.65,17.32-20.38,27.17-.34,24.46.68,27.52" style="fill:#595959;stroke:#263238;stroke-linecap:round;stroke-linejoin:round"></path><path d="M156.53,202.45s-3.39-9.51-2.38-16.3,7.82-14.61,7.82-21.4-9.51-6.46-16,2.37-6.45,16.31-6.79,26.16S144,210.6,144,216.72a12.19,12.19,0,0,0,3.74,9.17" style="fill:#595959;stroke:#263238;stroke-linecap:round;stroke-linejoin:round"></path><path d="M142.38,219.1c.5-4.56,2.31-8.85,4.25-13,1.48-3.1,2.72-7.17,5.45-9.43,5.69-4.71,14.16-.7,19.4,2.68C183,206.87,187.1,212,181,216c-5.39,3.59-18.56-4-21.32-5,3.39,9.43,10.66,27.07,2.55,35.64-5.07,5.36-14.59,1.24-18.57-3.6" style="fill:#595959;stroke:#263238;stroke-linecap:round;stroke-linejoin:round"></path><path d="M350.7,200.3s-3.57-6.1-7-6.44-7.13,7.47-12.9,10.53-13.25,6.11-15.29.68,6.79-17.67,18-24.12,15.29-7.47,20-3.74S368.4,199,368.4,199" style="fill:#595959;stroke:#263238;stroke-linecap:round;stroke-linejoin:round"></path><path d="M360.11,196.68s2.72-12.23-.68-20.72-9.51-9.85-13.59-14.27,0-13.25,10.19-11.21,16.65,17.32,20.39,27.17.34,24.46-.68,27.52" style="fill:#595959;stroke:#263238;stroke-linecap:round;stroke-linejoin:round"></path><path d="M371,202.45s3.4-9.51,2.38-16.3-7.81-14.61-7.81-21.4,9.51-6.46,16,2.37,6.46,16.31,6.79,26.16-4.75,17.32-4.75,23.44a12.19,12.19,0,0,1-3.74,9.17" style="fill:#595959;stroke:#263238;stroke-linecap:round;stroke-linejoin:round"></path><path d="M385.13,219.1c-.5-4.56-2.3-8.85-4.25-13-1.47-3.1-2.72-7.17-5.44-9.43-5.7-4.71-14.17-.7-19.41,2.68-11.54,7.48-15.62,12.57-9.51,16.65,5.39,3.59,18.56-4,21.32-5-3.38,9.43-10.66,27.07-2.55,35.64,5.08,5.36,14.6,1.24,18.58-3.6" style="fill:#595959;stroke:#263238;stroke-linecap:round;stroke-linejoin:round"></path></g><rect x="114.62" y="128.63" width="301.89" height="174.12" style="fill:none;stroke:#fff;stroke-miterlimit:10"></rect></g><g id="freepik--Keyboard--inject-193"><path d="M451.19,428.08s-5-5.5-19.39-10.31-35.44,1.88-40.61,5.84-5.53,6.08,1.08,8.2,16.83,4.11,28.3,10.36,19.85,9.34,30.12,3.49S455.5,432.27,451.19,428.08Z" style="fill:#fff;stroke:#263238;stroke-linecap:round;stroke-linejoin:round"></path><path d="M418.05,436.42c-10.34-5.65-23-5.72-28.08-5.48a21.3,21.3,0,0,0,2.3.87c6.61,2.12,16.83,4.11,28.3,10.36,8,4.36,14.51,7.18,21.2,6.5C426.47,445.37,428.25,442,418.05,436.42Z" style="fill:#fff"></path><g style="clip-path:url(#freepik--clip-path-3--inject-193)"><path d="M418.05,436.42c-10.34-5.65-23-5.72-28.08-5.48a21.3,21.3,0,0,0,2.3.87c6.61,2.12,16.83,4.11,28.3,10.36,8,4.36,14.51,7.18,21.2,6.5C426.47,445.37,428.25,442,418.05,436.42Z" style="fill:#263238;stroke:#263238;stroke-linecap:round;stroke-linejoin:round"></path></g><path d="M418.05,436.42c-10.34-5.65-23-5.72-28.08-5.48a21.3,21.3,0,0,0,2.3.87c6.61,2.12,16.83,4.11,28.3,10.36,8,4.36,14.51,7.18,21.2,6.5C426.47,445.37,428.25,442,418.05,436.42Z" style="fill:none;stroke:#263238;stroke-linecap:round;stroke-linejoin:round"></path><path d="M397.84,458.07h-268c-2.81,0-4.3-.92-3.35-2l28.47-33.17c.59-.69,2.83-1.25,5-1.25H367.71c2.18,0,4.43.56,5,1.25L401.2,456C402.15,457.15,400.66,458.07,397.84,458.07Z" style="fill:#263238;stroke:#263238;stroke-linecap:round;stroke-linejoin:round;stroke-width:1.0954300000000001px"></path><polygon points="266.05 422.32 253.74 422.32 253.4 426.65 266.12 426.65 266.05 422.32" style="fill:#fff;stroke:#263238;stroke-linecap:round;stroke-linejoin:round;stroke-width:1.0954300000000001px"></polygon><polygon points="236.36 422.32 224.05 422.32 222.69 426.65 235.41 426.65 236.36 422.32" style="fill:#fff;stroke:#263238;stroke-linecap:round;stroke-linejoin:round;stroke-width:1.0954300000000001px"></polygon><polygon points="280.89 422.32 268.59 422.32 268.75 426.65 281.48 426.65 280.89 422.32" style="fill:#fff;stroke:#263238;stroke-linecap:round;stroke-linejoin:round;stroke-width:1.0954300000000001px"></polygon><polygon points="206.67 422.32 194.37 422.32 191.98 426.65 204.71 426.65 206.67 422.32" style="fill:#fff;stroke:#263238;stroke-linecap:round;stroke-linejoin:round;stroke-width:1.0954300000000001px"></polygon><polygon points="221.51 422.32 209.21 422.32 207.34 426.65 220.06 426.65 221.51 422.32" style="fill:#fff;stroke:#263238;stroke-linecap:round;stroke-linejoin:round;stroke-width:1.0954300000000001px"></polygon><polygon points="176.63 426.65 189.35 426.65 191.83 422.32 179.52 422.32 176.63 426.65" style="fill:#fff;stroke:#263238;stroke-linecap:round;stroke-linejoin:round;stroke-width:1.0954300000000001px"></polygon><polygon points="251.2 422.32 238.9 422.32 238.04 426.65 250.77 426.65 251.2 422.32" style="fill:#fff;stroke:#263238;stroke-linecap:round;stroke-linejoin:round;stroke-width:1.0954300000000001px"></polygon><polygon points="295.74 422.32 283.43 422.32 284.1 426.65 296.83 426.65 295.74 422.32" style="fill:#fff;stroke:#263238;stroke-linecap:round;stroke-linejoin:round;stroke-width:1.0954300000000001px"></polygon><polygon points="176.98 422.32 158.25 422.32 154.62 426.65 174 426.65 176.98 422.32" style="fill:#fff;stroke:#263238;stroke-linecap:round;stroke-linejoin:round;stroke-width:1.0954300000000001px"></polygon><polygon points="357.65 422.32 360.87 426.65 374.01 426.65 370.35 422.32 357.65 422.32" style="fill:#fff;stroke:#263238;stroke-linecap:round;stroke-linejoin:round;stroke-width:1.0954300000000001px"></polygon><polygon points="355.11 422.32 342.81 422.32 345.52 426.65 358.25 426.65 355.11 422.32" style="fill:#fff;stroke:#263238;stroke-linecap:round;stroke-linejoin:round;stroke-width:1.0954300000000001px"></polygon><polygon points="340.27 422.32 327.96 422.32 330.17 426.65 342.89 426.65 340.27 422.32" style="fill:#fff;stroke:#263238;stroke-linecap:round;stroke-linejoin:round;stroke-width:1.0954300000000001px"></polygon><polygon points="310.58 422.32 298.27 422.32 299.46 426.65 312.18 426.65 310.58 422.32" style="fill:#fff;stroke:#263238;stroke-linecap:round;stroke-linejoin:round;stroke-width:1.0954300000000001px"></polygon><polygon points="325.42 422.32 313.12 422.32 314.81 426.65 327.54 426.65 325.42 422.32" style="fill:#fff;stroke:#263238;stroke-linecap:round;stroke-linejoin:round;stroke-width:1.0954300000000001px"></polygon><polygon points="227.52 427.08 214.73 427.08 212.98 431.76 226.23 431.76 227.52 427.08" style="fill:#fff;stroke:#263238;stroke-linecap:round;stroke-linejoin:round;stroke-width:1.0954300000000001px"></polygon><polygon points="242.96 427.08 230.16 427.08 228.96 431.76 242.21 431.76 242.96 427.08" style="fill:#fff;stroke:#263238;stroke-linecap:round;stroke-linejoin:round;stroke-width:1.0954300000000001px"></polygon><polygon points="258.39 427.08 245.59 427.08 244.94 431.76 258.19 431.76 258.39 427.08" style="fill:#fff;stroke:#263238;stroke-linecap:round;stroke-linejoin:round;stroke-width:1.0954300000000001px"></polygon><polygon points="196.66 427.08 183.87 427.08 181.01 431.76 194.27 431.76 196.66 427.08" style="fill:#fff;stroke:#263238;stroke-linecap:round;stroke-linejoin:round;stroke-width:1.0954300000000001px"></polygon><polygon points="165.03 431.76 178.28 431.76 181.23 427.08 168.43 427.08 165.03 431.76" style="fill:#fff;stroke:#263238;stroke-linecap:round;stroke-linejoin:round;stroke-width:1.0954300000000001px"></polygon><polygon points="273.82 427.08 261.02 427.08 260.92 431.76 274.18 431.76 273.82 427.08" style="fill:#fff;stroke:#263238;stroke-linecap:round;stroke-linejoin:round;stroke-width:1.0954300000000001px"></polygon><polygon points="212.09 427.08 199.3 427.08 197 431.76 210.25 431.76 212.09 427.08" style="fill:#fff;stroke:#263238;stroke-linecap:round;stroke-linejoin:round;stroke-width:1.0954300000000001px"></polygon><polygon points="350.98 427.08 338.18 427.08 340.83 431.76 354.08 431.76 350.98 427.08" style="fill:#fff;stroke:#263238;stroke-linecap:round;stroke-linejoin:round;stroke-width:1.0954300000000001px"></polygon><polygon points="165.8 427.08 154.27 427.08 150.36 431.76 162.3 431.76 165.8 427.08" style="fill:#fff;stroke:#263238;stroke-linecap:round;stroke-linejoin:round;stroke-width:1.0954300000000001px"></polygon><polygon points="353.61 427.08 356.81 431.76 378.31 431.76 374.37 427.08 353.61 427.08" style="fill:#fff;stroke:#263238;stroke-linecap:round;stroke-linejoin:round;stroke-width:1.0954300000000001px"></polygon><polygon points="335.55 427.08 322.75 427.08 324.85 431.76 338.1 431.76 335.55 427.08" style="fill:#fff;stroke:#263238;stroke-linecap:round;stroke-linejoin:round;stroke-width:1.0954300000000001px"></polygon><polygon points="289.25 427.08 276.45 427.08 276.9 431.76 290.16 431.76 289.25 427.08" style="fill:#fff;stroke:#263238;stroke-linecap:round;stroke-linejoin:round;stroke-width:1.0954300000000001px"></polygon><polygon points="304.68 427.08 291.89 427.08 292.89 431.76 306.14 431.76 304.68 427.08" style="fill:#fff;stroke:#263238;stroke-linecap:round;stroke-linejoin:round;stroke-width:1.0954300000000001px"></polygon><polygon points="320.11 427.08 307.32 427.08 308.87 431.76 322.12 431.76 320.11 427.08" style="fill:#fff;stroke:#263238;stroke-linecap:round;stroke-linejoin:round;stroke-width:1.0954300000000001px"></polygon><polygon points="298.9 450.38 211.12 450.38 208.89 456.91 300.39 456.91 298.9 450.38" style="fill:#fff;stroke:#263238;stroke-linecap:round;stroke-linejoin:round;stroke-width:1.0954300000000001px"></polygon><polygon points="208.02 450.38 188.43 450.38 185.24 456.91 205.66 456.91 208.02 450.38" style="fill:#fff;stroke:#263238;stroke-linecap:round;stroke-linejoin:round;stroke-width:1.0954300000000001px"></polygon><polygon points="318.1 450.38 302.01 450.38 303.62 456.91 320.39 456.91 318.1 450.38" style="fill:#fff;stroke:#263238;stroke-linecap:round;stroke-linejoin:round;stroke-width:1.0954300000000001px"></polygon><polygon points="148 456.91 163.89 456.91 167.94 450.38 152.7 450.38 148 456.91" style="fill:#fff;stroke:#263238;stroke-linecap:round;stroke-linejoin:round;stroke-width:1.0954300000000001px"></polygon><polygon points="185.32 450.38 171.05 450.38 167.13 456.91 182 456.91 185.32 450.38" style="fill:#fff;stroke:#263238;stroke-linecap:round;stroke-linejoin:round;stroke-width:1.0954300000000001px"></polygon><polygon points="149.6 450.38 134.8 450.38 129.35 456.91 144.77 456.91 149.6 450.38" style="fill:#fff;stroke:#263238;stroke-linecap:round;stroke-linejoin:round;stroke-width:1.0954300000000001px"></polygon><polygon points="337.29 450.38 321.2 450.38 323.63 456.91 340.39 456.91 337.29 450.38" style="fill:#fff;stroke:#263238;stroke-linecap:round;stroke-linejoin:round;stroke-width:1.0954300000000001px"></polygon><polygon points="378.78 450.38 383.63 456.91 399.51 456.91 394.01 450.38 378.78 450.38" style="fill:#fff;stroke:#263238;stroke-linecap:round;stroke-linejoin:round;stroke-width:1.0954300000000001px"></polygon><polygon points="356.48 450.38 340.39 450.38 343.63 456.91 360.4 456.91 356.48 450.38" style="fill:#fff;stroke:#263238;stroke-linecap:round;stroke-linejoin:round;stroke-width:1.0954300000000001px"></polygon><polygon points="375.67 450.38 359.58 450.38 363.63 456.91 380.4 456.91 375.67 450.38" style="fill:#fff;stroke:#263238;stroke-linecap:round;stroke-linejoin:round;stroke-width:1.0954300000000001px"></polygon><polygon points="245.19 443.81 230.83 443.81 229.5 449.79 244.44 449.79 245.19 443.81" style="fill:#fff;stroke:#263238;stroke-linecap:round;stroke-linejoin:round;stroke-width:1.0954300000000001px"></polygon><polygon points="279.86 443.81 265.5 443.81 265.57 449.79 280.51 449.79 279.86 443.81" style="fill:#fff;stroke:#263238;stroke-linecap:round;stroke-linejoin:round;stroke-width:1.0954300000000001px"></polygon><polygon points="227.86 443.81 213.5 443.81 211.46 449.79 226.41 449.79 227.86 443.81" style="fill:#fff;stroke:#263238;stroke-linecap:round;stroke-linejoin:round;stroke-width:1.0954300000000001px"></polygon><polygon points="193.19 443.81 178.82 443.81 175.39 449.79 190.33 449.79 193.19 443.81" style="fill:#fff;stroke:#263238;stroke-linecap:round;stroke-linejoin:round;stroke-width:1.0954300000000001px"></polygon><polygon points="157.35 449.79 172.3 449.79 175.85 443.81 161.49 443.81 157.35 449.79" style="fill:#fff;stroke:#263238;stroke-linecap:round;stroke-linejoin:round;stroke-width:1.0954300000000001px"></polygon><polygon points="210.52 443.81 196.16 443.81 193.43 449.79 208.37 449.79 210.52 443.81" style="fill:#fff;stroke:#263238;stroke-linecap:round;stroke-linejoin:round;stroke-width:1.0954300000000001px"></polygon><polygon points="262.53 443.81 248.17 443.81 247.53 449.79 262.48 449.79 262.53 443.81" style="fill:#fff;stroke:#263238;stroke-linecap:round;stroke-linejoin:round;stroke-width:1.0954300000000001px"></polygon><polygon points="158.52 443.81 140.29 443.81 135.3 449.79 154.26 449.79 158.52 443.81" style="fill:#fff;stroke:#263238;stroke-linecap:round;stroke-linejoin:round;stroke-width:1.0954300000000001px"></polygon><polygon points="349.21 443.81 334.84 443.81 337.71 449.79 352.65 449.79 349.21 443.81" style="fill:#fff;stroke:#263238;stroke-linecap:round;stroke-linejoin:round;stroke-width:1.0954300000000001px"></polygon><polygon points="352.18 443.81 355.75 449.79 393.51 449.79 388.48 443.81 352.18 443.81" style="fill:#fff;stroke:#263238;stroke-linecap:round;stroke-linejoin:round;stroke-width:1.0954300000000001px"></polygon><polygon points="297.2 443.81 282.84 443.81 283.61 449.79 298.55 449.79 297.2 443.81" style="fill:#fff;stroke:#263238;stroke-linecap:round;stroke-linejoin:round;stroke-width:1.0954300000000001px"></polygon><polygon points="314.54 443.81 300.17 443.81 301.64 449.79 316.58 449.79 314.54 443.81" style="fill:#fff;stroke:#263238;stroke-linecap:round;stroke-linejoin:round;stroke-width:1.0954300000000001px"></polygon><polygon points="331.87 443.81 317.51 443.81 319.68 449.79 334.62 449.79 331.87 443.81" style="fill:#fff;stroke:#263238;stroke-linecap:round;stroke-linejoin:round;stroke-width:1.0954300000000001px"></polygon><polygon points="254.3 437.78 240.48 437.78 239.57 443.27 253.93 443.27 254.3 437.78" style="fill:#fff;stroke:#263238;stroke-linecap:round;stroke-linejoin:round;stroke-width:1.0954300000000001px"></polygon><polygon points="270.97 437.78 257.15 437.78 256.89 443.27 271.25 443.27 270.97 437.78" style="fill:#fff;stroke:#263238;stroke-linecap:round;stroke-linejoin:round;stroke-width:1.0954300000000001px"></polygon><polygon points="237.63 437.78 223.81 437.78 222.26 443.27 236.61 443.27 237.63 437.78" style="fill:#fff;stroke:#263238;stroke-linecap:round;stroke-linejoin:round;stroke-width:1.0954300000000001px"></polygon><polygon points="220.96 437.78 207.14 437.78 204.94 443.27 219.3 443.27 220.96 437.78" style="fill:#fff;stroke:#263238;stroke-linecap:round;stroke-linejoin:round;stroke-width:1.0954300000000001px"></polygon><polygon points="204.29 437.78 190.47 437.78 187.63 443.27 201.98 443.27 204.29 437.78" style="fill:#fff;stroke:#263238;stroke-linecap:round;stroke-linejoin:round;stroke-width:1.0954300000000001px"></polygon><polygon points="170.31 443.27 184.67 443.27 187.62 437.78 173.79 437.78 170.31 443.27" style="fill:#fff;stroke:#263238;stroke-linecap:round;stroke-linejoin:round;stroke-width:1.0954300000000001px"></polygon><polygon points="287.64 437.78 273.82 437.78 274.21 443.27 288.56 443.27 287.64 437.78" style="fill:#fff;stroke:#263238;stroke-linecap:round;stroke-linejoin:round;stroke-width:1.0954300000000001px"></polygon><polygon points="170.94 437.78 145.33 437.78 140.74 443.27 167.35 443.27 170.94 437.78" style="fill:#fff;stroke:#263238;stroke-linecap:round;stroke-linejoin:round;stroke-width:1.0954300000000001px"></polygon><polygon points="370.99 437.78 357.17 437.78 360.79 443.27 375.14 443.27 370.99 437.78" style="fill:#fff;stroke:#263238;stroke-linecap:round;stroke-linejoin:round;stroke-width:1.0954300000000001px"></polygon><polygon points="304.31 437.78 290.49 437.78 291.52 443.27 305.88 443.27 304.31 437.78" style="fill:#fff;stroke:#263238;stroke-linecap:round;stroke-linejoin:round;stroke-width:1.0954300000000001px"></polygon><polygon points="354.32 437.78 340.5 437.78 343.47 443.27 357.82 443.27 354.32 437.78" style="fill:#fff;stroke:#263238;stroke-linecap:round;stroke-linejoin:round;stroke-width:1.0954300000000001px"></polygon><polygon points="320.98 437.78 307.16 437.78 308.84 443.27 323.19 443.27 320.98 437.78" style="fill:#fff;stroke:#263238;stroke-linecap:round;stroke-linejoin:round;stroke-width:1.0954300000000001px"></polygon><polygon points="337.65 437.78 323.83 437.78 326.15 443.27 340.51 443.27 337.65 437.78" style="fill:#fff;stroke:#263238;stroke-linecap:round;stroke-linejoin:round;stroke-width:1.0954300000000001px"></polygon><polygon points="235.24 437.28 248.73 437.28 249.27 432.22 236.26 432.22 235.24 437.28" style="fill:#fff;stroke:#263238;stroke-linecap:round;stroke-linejoin:round;stroke-width:1.0954300000000001px"></polygon><polygon points="218.9 437.28 232.4 437.28 233.52 432.22 220.51 432.22 218.9 437.28" style="fill:#fff;stroke:#263238;stroke-linecap:round;stroke-linejoin:round;stroke-width:1.0954300000000001px"></polygon><polygon points="251.57 437.28 265.07 437.28 265.02 432.22 252.01 432.22 251.57 437.28" style="fill:#fff;stroke:#263238;stroke-linecap:round;stroke-linejoin:round;stroke-width:1.0954300000000001px"></polygon><polygon points="169.89 437.28 183.39 437.28 186.27 432.22 173.25 432.22 169.89 437.28" style="fill:#fff;stroke:#263238;stroke-linecap:round;stroke-linejoin:round;stroke-width:1.0954300000000001px"></polygon><polygon points="186.23 437.28 199.72 437.28 202.02 432.22 189.01 432.22 186.23 437.28" style="fill:#fff;stroke:#263238;stroke-linecap:round;stroke-linejoin:round;stroke-width:1.0954300000000001px"></polygon><polygon points="267.91 437.28 281.4 437.28 280.77 432.22 267.76 432.22 267.91 437.28" style="fill:#fff;stroke:#263238;stroke-linecap:round;stroke-linejoin:round;stroke-width:1.0954300000000001px"></polygon><polygon points="202.56 437.28 216.06 437.28 217.77 432.22 204.76 432.22 202.56 437.28" style="fill:#fff;stroke:#263238;stroke-linecap:round;stroke-linejoin:round;stroke-width:1.0954300000000001px"></polygon><path d="M378.7,432.22H365l3.75,5.06h3.34a1.84,1.84,0,0,1,1.25.35l4.41,5.69h10.09Z" style="fill:#fff;stroke:#263238;stroke-linecap:round;stroke-linejoin:round;stroke-width:1.0954300000000001px"></path><polygon points="333.25 437.28 346.75 437.28 343.78 432.22 330.77 432.22 333.25 437.28" style="fill:#fff;stroke:#263238;stroke-linecap:round;stroke-linejoin:round;stroke-width:1.0954300000000001px"></polygon><polygon points="349.59 437.28 365.92 437.28 362.27 432.22 346.52 432.22 349.59 437.28" style="fill:#fff;stroke:#263238;stroke-linecap:round;stroke-linejoin:round;stroke-width:1.0954300000000001px"></polygon><polygon points="145.75 437.28 167.05 437.28 170.52 432.22 149.97 432.22 145.75 437.28" style="fill:#fff;stroke:#263238;stroke-linecap:round;stroke-linejoin:round;stroke-width:1.0954300000000001px"></polygon><polygon points="284.24 437.28 297.74 437.28 296.52 432.22 283.51 432.22 284.24 437.28" style="fill:#fff;stroke:#263238;stroke-linecap:round;stroke-linejoin:round;stroke-width:1.0954300000000001px"></polygon><polygon points="316.92 437.28 330.41 437.28 328.03 432.22 315.01 432.22 316.92 437.28" style="fill:#fff;stroke:#263238;stroke-linecap:round;stroke-linejoin:round;stroke-width:1.0954300000000001px"></polygon><polygon points="300.58 437.28 314.07 437.28 312.27 432.22 299.26 432.22 300.58 437.28" style="fill:#fff;stroke:#263238;stroke-linecap:round;stroke-linejoin:round;stroke-width:1.0954300000000001px"></polygon></g></svg>